<mxfile host="Electron" agent="Mozilla/5.0 (Macintosh; Intel Mac OS X 10_15_7) AppleWebKit/537.36 (KHTML, like Gecko) draw.io/27.0.5 Chrome/134.0.6998.205 Electron/35.3.0 Safari/537.36" version="27.0.5" pages="6">
  <diagram name="fgt-single-vm" id="VOJnvQhmk6kvTq0DFbzb">
    <mxGraphModel dx="1306" dy="929" grid="1" gridSize="10" guides="1" tooltips="1" connect="1" arrows="1" fold="1" page="1" pageScale="1" pageWidth="1169" pageHeight="827" math="0" shadow="0">
      <root>
        <mxCell id="igetMSzc9jm7YL5A2QUc-0" />
        <mxCell id="igetMSzc9jm7YL5A2QUc-1" parent="igetMSzc9jm7YL5A2QUc-0" />
        <mxCell id="igetMSzc9jm7YL5A2QUc-3" value="" style="rounded=1;whiteSpace=wrap;html=1;sketch=0;fontSize=10;strokeColor=#007fff;fillColor=#FFFFFF;gradientColor=none;gradientDirection=south;absoluteArcSize=1;arcSize=4;fontFamily=Helvetica;" parent="igetMSzc9jm7YL5A2QUc-1" vertex="1">
          <mxGeometry x="160.5" y="99" width="859.9999999999999" height="600" as="geometry" />
        </mxCell>
        <mxCell id="ILMphzCwu4VwZAjetVbx-0" value="" style="vsdxID=12;fillColor=#f0f0f0;gradientColor=none;shape=stencil(hZNRcoMgEIZPwysDrJjw2EmTC/QETqSVqdUMMa3p6UtcNIAk9Qn+/Ve+XVgCu3NTnTQR7DzY/lP/mHpoCLwSIUzXaGsGtyKwJ7B7763+sP2lq3F/qpxTsEnRNebwm1uwyh7fzK9GjVHgG4kBzPzqv28njj6OoevsVsUkHNB7vFg089g9b2nBVPCVJcZHMcfLjc8Q0Q9G8MRUFt4AoWE6nr04gtZ0Aa3a0kLGxM9wlaIgEuSY0DmUShAfFQXrFMi1Lccd5CwKk/+wLyl3SW5X/EuFXuIsaXLYNIg9j3iDe8kkZN7F/aJ5ShHf/FWsa4HYAdkOZSifv123mIYEx8e0Lc5YGE+Hykk4kLD/Aw==);strokeColor=#bfbfbf;spacingTop=-3;spacingBottom=-3;spacingLeft=-3;spacingRight=-3;labelBackgroundColor=none;rounded=1;html=1;whiteSpace=wrap;arcSize=17;" parent="igetMSzc9jm7YL5A2QUc-1" vertex="1">
          <mxGeometry x="501.5" y="139" width="206" height="490" as="geometry" />
        </mxCell>
        <mxCell id="igetMSzc9jm7YL5A2QUc-94" style="vsdxID=7;fillColor=#ffffff;gradientColor=none;fillOpacity=0;strokeOpacity=0;shape=stencil(pZPRDoIgFIafhlt35Cy1y2b2Hi4xWSYOteztg7EMNXVMrg7w/4fv3zgE46ZIa0YoNK0Ud/biWVsQPBNKeVUwyVtVEUwIxrmQ7CZFV2VmX6daqauHeOoOvfGBdlB427uLEZa8soToReGy9tpJ09Uf1MHRXl+vP3q2pxtyOpbjjAVnMHDaZj94QbQHX/lD+xrd4izZF+ONef8kBKd44JQGnOBhF/nqp5pgwyomrGJN/4uqfxOS87I0AzagqGI6UerITCMmHw==);spacingTop=-3;spacingBottom=-3;spacingLeft=-3;spacingRight=-3;labelBackgroundColor=none;rounded=0;html=1;whiteSpace=wrap;" parent="igetMSzc9jm7YL5A2QUc-1" vertex="1">
          <mxGeometry x="133.5" y="70" width="918" height="626" as="geometry" />
        </mxCell>
        <mxCell id="igetMSzc9jm7YL5A2QUc-110" value="" style="group" parent="igetMSzc9jm7YL5A2QUc-1" vertex="1" connectable="0">
          <mxGeometry x="750.5" y="534" width="207" height="100" as="geometry" />
        </mxCell>
        <mxCell id="igetMSzc9jm7YL5A2QUc-111" style="vsdxID=114;fillColor=#f0f0f0;gradientColor=none;shape=stencil(fZPdcoMgEIWfhlsHWDXhspMmL9AncJRUplYzxDSapw9xpfyExCvcPQe+XVgCu3NbnSTh9Dzq4UdeVTO2BD4J56pvpVajWRHYE9gdBy2/9XDpG/w/VUbJ6RKRDXrYQ81ppesvdZMYoxmwTYEJdP4Of48TpzWPqXndIcvFEjigtr5oFLNQbX+zQlDvgxzzE7f5crM6eLDBBPa8AlYBWAsrHAH9MBCd6j1gsc3ybQAdWp6hhTA9iMBDTkZphPmqMIgNkGpcAts5/ssoy3fUzuDKyFnI7VcWl2JR/X5F9C9Z3a0kDIlX4a45hp/Ce5/5cy0QKiDZnwTl+5drFsuI4PCorsMJ8/PxSJkQjiPs7w==);strokeColor=#bfbfbf;spacingTop=-3;spacingBottom=-3;spacingLeft=-3;spacingRight=-3;labelBackgroundColor=none;rounded=1;html=1;whiteSpace=wrap;opacity=50;textOpacity=50;" parent="igetMSzc9jm7YL5A2QUc-110" vertex="1">
          <mxGeometry width="207" height="100" as="geometry" />
        </mxCell>
        <mxCell id="igetMSzc9jm7YL5A2QUc-112" value="&lt;p style=&quot;align:center;margin-left:0;margin-right:0;margin-top:0px;margin-bottom:0px;text-indent:0;valign:middle;direction:ltr;&quot;&gt;&lt;font style=&quot;font-size:9px;font-family:Arial;color:#000000;direction:ltr;letter-spacing:0px;line-height:100%;opacity:1&quot;&gt;Protected Z&lt;br&gt;&lt;/font&gt;&lt;/p&gt;" style="text;vsdxID=113;fillColor=none;gradientColor=none;strokeColor=none;spacingTop=-3;spacingBottom=-3;spacingLeft=-3;spacingRight=-3;labelBackgroundColor=none;rounded=1;html=1;whiteSpace=wrap;verticalAlign=middle;align=center;;html=1;opacity=50;textOpacity=50;" parent="igetMSzc9jm7YL5A2QUc-110" vertex="1">
          <mxGeometry x="12.700000000000045" y="11.829999999999984" width="182.88" height="12.7" as="geometry" />
        </mxCell>
        <mxCell id="igetMSzc9jm7YL5A2QUc-113" value="" style="aspect=fixed;html=1;points=[];align=center;image;fontSize=12;image=img/lib/azure2/networking/Route_Tables.svg;rounded=1;sketch=0;strokeColor=#007fff;fillColor=#FFFFFF;gradientColor=none;gradientDirection=south;fontFamily=Helvetica;opacity=50;textOpacity=50;" parent="igetMSzc9jm7YL5A2QUc-110" vertex="1">
          <mxGeometry x="4" y="64" width="33.03" height="32" as="geometry" />
        </mxCell>
        <mxCell id="igetMSzc9jm7YL5A2QUc-114" value=". . ." style="text;html=1;strokeColor=none;fillColor=none;align=center;verticalAlign=middle;whiteSpace=wrap;rounded=0;fontFamily=Helvetica;fontSize=10;" parent="igetMSzc9jm7YL5A2QUc-1" vertex="1">
          <mxGeometry x="824" y="504" width="60" height="30" as="geometry" />
        </mxCell>
        <mxCell id="igetMSzc9jm7YL5A2QUc-58" value="&lt;p style=&quot;align:center;margin-left:0;margin-right:0;margin-top:0px;margin-bottom:0px;text-indent:0;valign:middle;direction:ltr;&quot;&gt;&lt;font style=&quot;font-size:9px;font-family:Arial;color:#000000;direction:ltr;letter-spacing:0px;line-height:100%;opacity:1&quot;&gt;Internal&lt;/font&gt;&lt;/p&gt;" style="text;vsdxID=11;fillColor=none;gradientColor=none;strokeColor=none;spacingTop=-3;spacingBottom=-3;spacingLeft=-3;spacingRight=-3;labelBackgroundColor=none;rounded=1;html=1;whiteSpace=wrap;verticalAlign=middle;align=center;;html=1;" parent="igetMSzc9jm7YL5A2QUc-1" vertex="1">
          <mxGeometry x="513.4466019417475" y="156.8886567164179" width="184.49417475728154" height="18.576119402985075" as="geometry" />
        </mxCell>
        <mxCell id="igetMSzc9jm7YL5A2QUc-59" value="&lt;span style=&quot;&quot;&gt;172.16.136.64/26&amp;nbsp;&lt;/span&gt;" style="text;html=1;strokeColor=none;fillColor=none;align=right;verticalAlign=middle;whiteSpace=wrap;rounded=0;fontFamily=Helvetica;fontSize=10;" parent="igetMSzc9jm7YL5A2QUc-1" vertex="1">
          <mxGeometry x="616.942427184466" y="606.2089552238806" width="91.74757281553397" height="27.791044776119403" as="geometry" />
        </mxCell>
        <mxCell id="sIdN9Mmn7lUllPxHDhFa-4" value="&lt;font color=&quot;#000000&quot;&gt;Public IP Address&lt;/font&gt;" style="aspect=fixed;html=1;points=[];align=center;image;fontSize=12;image=img/lib/azure2/networking/Public_IP_Addresses.svg;rounded=1;sketch=0;strokeColor=#007fff;fillColor=#FFFFFF;gradientColor=none;gradientDirection=south;fontFamily=Helvetica;fontColor=#999999;" parent="igetMSzc9jm7YL5A2QUc-1" vertex="1">
          <mxGeometry x="117" y="269.00000000000006" width="65" height="52" as="geometry" />
        </mxCell>
        <mxCell id="igetMSzc9jm7YL5A2QUc-4" value="&lt;span style=&quot;font-size: 13px;&quot;&gt;Virtual Network&amp;nbsp;&lt;/span&gt;&lt;br style=&quot;font-size: 13px;&quot;&gt;&lt;span style=&quot;font-size: 13px;&quot;&gt;172.16.136.0/22&amp;nbsp;&lt;/span&gt;" style="text;html=1;strokeColor=none;fillColor=none;align=right;verticalAlign=middle;whiteSpace=wrap;rounded=0;sketch=0;fontSize=4;labelPosition=center;verticalLabelPosition=middle;horizontal=1;fontFamily=Helvetica;" parent="igetMSzc9jm7YL5A2QUc-1" vertex="1">
          <mxGeometry x="182" y="649" width="766.83" height="50" as="geometry" />
        </mxCell>
        <mxCell id="igetMSzc9jm7YL5A2QUc-5" value="" style="aspect=fixed;html=1;points=[];align=center;image;fontSize=12;image=img/lib/azure2/networking/Virtual_Networks.svg;rounded=1;sketch=0;strokeColor=#007fff;fillColor=#FFFFFF;gradientColor=none;gradientDirection=south;fontFamily=Helvetica;" parent="igetMSzc9jm7YL5A2QUc-1" vertex="1">
          <mxGeometry x="948.8333333333333" y="659" width="57.548333333333325" height="34.32833333333333" as="geometry" />
        </mxCell>
        <mxCell id="igetMSzc9jm7YL5A2QUc-6" style="vsdxID=113;fillColor=none;gradientColor=none;strokeColor=none;spacingTop=-3;spacingBottom=-3;spacingLeft=-3;spacingRight=-3;labelBackgroundColor=none;rounded=1;html=1;whiteSpace=wrap;" parent="igetMSzc9jm7YL5A2QUc-1" vertex="1">
          <mxGeometry x="750.5" y="139" width="207" height="237" as="geometry" />
        </mxCell>
        <mxCell id="igetMSzc9jm7YL5A2QUc-7" style="vsdxID=114;fillColor=#f0f0f0;gradientColor=none;shape=stencil(fZPdcoMgEIWfhlsHWDXhspMmL9AncJRUplYzxDSapw9xpfyExCvcPQe+XVgCu3NbnSTh9Dzq4UdeVTO2BD4J56pvpVajWRHYE9gdBy2/9XDpG/w/VUbJ6RKRDXrYQ81ppesvdZMYoxmwTYEJdP4Of48TpzWPqXndIcvFEjigtr5oFLNQbX+zQlDvgxzzE7f5crM6eLDBBPa8AlYBWAsrHAH9MBCd6j1gsc3ybQAdWp6hhTA9iMBDTkZphPmqMIgNkGpcAts5/ssoy3fUzuDKyFnI7VcWl2JR/X5F9C9Z3a0kDIlX4a45hp/Ce5/5cy0QKiDZnwTl+5drFsuI4PCorsMJ8/PxSJkQjiPs7w==);strokeColor=#bfbfbf;spacingTop=-3;spacingBottom=-3;spacingLeft=-3;spacingRight=-3;labelBackgroundColor=none;rounded=1;html=1;whiteSpace=wrap;" parent="igetMSzc9jm7YL5A2QUc-6" vertex="1">
          <mxGeometry width="207" height="237" as="geometry" />
        </mxCell>
        <mxCell id="igetMSzc9jm7YL5A2QUc-8" value="&lt;p style=&quot;align:center;margin-left:0;margin-right:0;margin-top:0px;margin-bottom:0px;text-indent:0;valign:middle;direction:ltr;&quot;&gt;&lt;font style=&quot;font-size:9px;font-family:Arial;color:#000000;direction:ltr;letter-spacing:0px;line-height:100%;opacity:1&quot;&gt;Protected A&lt;br/&gt;&lt;/font&gt;&lt;/p&gt;" style="text;vsdxID=113;fillColor=none;gradientColor=none;strokeColor=none;spacingTop=-3;spacingBottom=-3;spacingLeft=-3;spacingRight=-3;labelBackgroundColor=none;rounded=1;html=1;whiteSpace=wrap;verticalAlign=middle;align=center;;html=1;" parent="igetMSzc9jm7YL5A2QUc-6" vertex="1">
          <mxGeometry x="12.7" y="11.83" width="182.88" height="12.7" as="geometry" />
        </mxCell>
        <mxCell id="igetMSzc9jm7YL5A2QUc-9" style="vsdxID=117;fillColor=none;gradientColor=none;fillOpacity=0;strokeOpacity=0;spacingTop=-3;spacingBottom=-3;spacingLeft=-3;spacingRight=-3;labelBackgroundColor=none;rounded=1;strokeColor=none;html=1;whiteSpace=wrap;" parent="igetMSzc9jm7YL5A2QUc-6" vertex="1">
          <mxGeometry x="96" y="210" width="111" height="27" as="geometry" />
        </mxCell>
        <mxCell id="igetMSzc9jm7YL5A2QUc-10" style="vsdxID=118;fillColor=#ffffff;gradientColor=none;fillOpacity=0;strokeOpacity=0;shape=stencil(hZNNcsMgDIVPw5YRkn+XnTS5QE/giWnN1LUzxGmdnr6ORaYoJSkrkN6DT4AUbY5dc7AK4Tj58d1+uXbqFD0rRDd01rtpmSnaKtq8jt6++fE0tLw+NIsSYY3Ylj3mokZo/P7FfVuOgSZT5pxg58f4eTlxDnlOncMORufFGtmxeH/yrDZSHpa5hrKORsXpGcN2GsPRZxT+mXiJuiqCgGLBejo8LQC9GyLautSmEMTwiLaudCmB4QYQQANKxHs1UcJCyWtLgAsXh6pKZ9kjeuG5VpTpGmUNUZFxVZnEjm+O/sjuYUfvk/YkqH/f3CRw5D+4EsdlkVRQ8rYSrP/85GWy9gx3k+t7brk4f9tjS4j7k7Y/);spacingTop=-3;spacingBottom=-3;spacingLeft=-3;spacingRight=-3;labelBackgroundColor=none;rounded=1;html=1;whiteSpace=wrap;" parent="igetMSzc9jm7YL5A2QUc-9" vertex="1">
          <mxGeometry width="111" height="27" as="geometry" />
        </mxCell>
        <mxCell id="igetMSzc9jm7YL5A2QUc-11" value="&lt;p style=&quot;align:right;margin-left:0;margin-right:0;margin-top:0px;margin-bottom:0px;text-indent:0;valign:middle;direction:ltr;&quot;&gt;&lt;font style=&quot;font-family: Arial; color: rgb(0, 0, 0); direction: ltr; letter-spacing: 0px; line-height: 100%; opacity: 1; font-size: 13px;&quot;&gt;172.16.137.0/24&amp;nbsp;&lt;/font&gt;&lt;/p&gt;" style="text;vsdxID=117;fillColor=none;gradientColor=none;fillOpacity=0;strokeOpacity=0;spacingTop=-3;spacingBottom=-3;spacingLeft=-3;spacingRight=-3;labelBackgroundColor=none;rounded=1;strokeColor=none;html=1;whiteSpace=wrap;verticalAlign=middle;align=right;;html=1;" parent="igetMSzc9jm7YL5A2QUc-9" vertex="1">
          <mxGeometry y="-0.42" width="111.13" height="27.94" as="geometry" />
        </mxCell>
        <mxCell id="igetMSzc9jm7YL5A2QUc-12" value="" style="aspect=fixed;html=1;points=[];align=center;image;fontSize=12;image=img/lib/azure2/networking/Route_Tables.svg;rounded=1;sketch=0;strokeColor=#007fff;fillColor=#FFFFFF;gradientColor=none;gradientDirection=south;fontFamily=Helvetica;" parent="igetMSzc9jm7YL5A2QUc-6" vertex="1">
          <mxGeometry x="4" y="200" width="33.03" height="32" as="geometry" />
        </mxCell>
        <mxCell id="igetMSzc9jm7YL5A2QUc-13" value="" style="group" parent="igetMSzc9jm7YL5A2QUc-1" vertex="1" connectable="0">
          <mxGeometry x="750.5" y="409" width="207" height="100" as="geometry" />
        </mxCell>
        <mxCell id="igetMSzc9jm7YL5A2QUc-14" style="vsdxID=114;fillColor=#f0f0f0;gradientColor=none;shape=stencil(fZPdcoMgEIWfhlsHWDXhspMmL9AncJRUplYzxDSapw9xpfyExCvcPQe+XVgCu3NbnSTh9Dzq4UdeVTO2BD4J56pvpVajWRHYE9gdBy2/9XDpG/w/VUbJ6RKRDXrYQ81ppesvdZMYoxmwTYEJdP4Of48TpzWPqXndIcvFEjigtr5oFLNQbX+zQlDvgxzzE7f5crM6eLDBBPa8AlYBWAsrHAH9MBCd6j1gsc3ybQAdWp6hhTA9iMBDTkZphPmqMIgNkGpcAts5/ssoy3fUzuDKyFnI7VcWl2JR/X5F9C9Z3a0kDIlX4a45hp/Ce5/5cy0QKiDZnwTl+5drFsuI4PCorsMJ8/PxSJkQjiPs7w==);strokeColor=#bfbfbf;spacingTop=-3;spacingBottom=-3;spacingLeft=-3;spacingRight=-3;labelBackgroundColor=none;rounded=1;html=1;whiteSpace=wrap;opacity=50;textOpacity=50;" parent="igetMSzc9jm7YL5A2QUc-13" vertex="1">
          <mxGeometry width="207" height="100" as="geometry" />
        </mxCell>
        <mxCell id="igetMSzc9jm7YL5A2QUc-15" value="&lt;p style=&quot;align:center;margin-left:0;margin-right:0;margin-top:0px;margin-bottom:0px;text-indent:0;valign:middle;direction:ltr;&quot;&gt;&lt;font style=&quot;font-size:9px;font-family:Arial;color:#000000;direction:ltr;letter-spacing:0px;line-height:100%;opacity:1&quot;&gt;Protected B&lt;br&gt;&lt;/font&gt;&lt;/p&gt;" style="text;vsdxID=113;fillColor=none;gradientColor=none;strokeColor=none;spacingTop=-3;spacingBottom=-3;spacingLeft=-3;spacingRight=-3;labelBackgroundColor=none;rounded=1;html=1;whiteSpace=wrap;verticalAlign=middle;align=center;;html=1;opacity=50;textOpacity=50;" parent="igetMSzc9jm7YL5A2QUc-13" vertex="1">
          <mxGeometry x="12.700000000000045" y="11.829999999999984" width="182.88" height="12.7" as="geometry" />
        </mxCell>
        <mxCell id="igetMSzc9jm7YL5A2QUc-16" value="" style="aspect=fixed;html=1;points=[];align=center;image;fontSize=12;image=img/lib/azure2/networking/Route_Tables.svg;rounded=1;sketch=0;strokeColor=#007fff;fillColor=#FFFFFF;gradientColor=none;gradientDirection=south;fontFamily=Helvetica;opacity=50;textOpacity=50;" parent="igetMSzc9jm7YL5A2QUc-13" vertex="1">
          <mxGeometry x="4" y="64" width="33.03" height="32" as="geometry" />
        </mxCell>
        <mxCell id="igetMSzc9jm7YL5A2QUc-19" value="" style="vsdxID=12;fillColor=#f0f0f0;gradientColor=none;shape=stencil(hZNRcoMgEIZPwysDrJjw2EmTC/QETqSVqdUMMa3p6UtcNIAk9Qn+/Ve+XVgCu3NTnTQR7DzY/lP/mHpoCLwSIUzXaGsGtyKwJ7B7763+sP2lq3F/qpxTsEnRNebwm1uwyh7fzK9GjVHgG4kBzPzqv28njj6OoevsVsUkHNB7vFg089g9b2nBVPCVJcZHMcfLjc8Q0Q9G8MRUFt4AoWE6nr04gtZ0Aa3a0kLGxM9wlaIgEuSY0DmUShAfFQXrFMi1Lccd5CwKk/+wLyl3SW5X/EuFXuIsaXLYNIg9j3iDe8kkZN7F/aJ5ShHf/FWsa4HYAdkOZSifv123mIYEx8e0Lc5YGE+Hykk4kLD/Aw==);strokeColor=#bfbfbf;spacingTop=-3;spacingBottom=-3;spacingLeft=-3;spacingRight=-3;labelBackgroundColor=none;rounded=1;html=1;whiteSpace=wrap;" parent="igetMSzc9jm7YL5A2QUc-1" vertex="1">
          <mxGeometry x="210.5" y="138" width="206" height="490" as="geometry" />
        </mxCell>
        <mxCell id="sIdN9Mmn7lUllPxHDhFa-2" value="" style="group" parent="igetMSzc9jm7YL5A2QUc-1" vertex="1" connectable="0">
          <mxGeometry x="210.5" y="139" width="361.5" height="490" as="geometry" />
        </mxCell>
        <mxCell id="igetMSzc9jm7YL5A2QUc-20" value="&lt;p style=&quot;align:center;margin-left:0;margin-right:0;margin-top:0px;margin-bottom:0px;text-indent:0;valign:middle;direction:ltr;&quot;&gt;&lt;font style=&quot;font-size:9px;font-family:Arial;color:#000000;direction:ltr;letter-spacing:0px;line-height:100%;opacity:1&quot;&gt;External&lt;/font&gt;&lt;/p&gt;" style="text;vsdxID=11;fillColor=none;gradientColor=none;strokeColor=none;spacingTop=-3;spacingBottom=-3;spacingLeft=-3;spacingRight=-3;labelBackgroundColor=none;rounded=1;html=1;whiteSpace=wrap;verticalAlign=middle;align=center;;html=1;" parent="sIdN9Mmn7lUllPxHDhFa-2" vertex="1">
          <mxGeometry x="12.699999999999989" y="17.888656716417895" width="180.98" height="18.57611940298507" as="geometry" />
        </mxCell>
        <mxCell id="igetMSzc9jm7YL5A2QUc-21" value="&lt;span style=&quot;&quot;&gt;&amp;nbsp;172.16.136.0/26&lt;/span&gt;" style="text;html=1;strokeColor=none;fillColor=none;align=left;verticalAlign=middle;whiteSpace=wrap;rounded=0;fontFamily=Helvetica;fontSize=10;" parent="sIdN9Mmn7lUllPxHDhFa-2" vertex="1">
          <mxGeometry y="462.2089552238806" width="90" height="27.791044776119403" as="geometry" />
        </mxCell>
        <mxCell id="igetMSzc9jm7YL5A2QUc-95" value="" style="aspect=fixed;html=1;points=[];align=center;image;fontSize=12;image=img/lib/azure2/networking/Network_Interfaces.svg;strokeWidth=2;rotation=-180;movable=1;resizable=1;rotatable=1;deletable=1;editable=1;connectable=1;direction=east;container=0;" parent="igetMSzc9jm7YL5A2QUc-1" vertex="1">
          <mxGeometry x="380.49999999999994" y="313" width="35.13" height="31" as="geometry" />
        </mxCell>
        <mxCell id="igetMSzc9jm7YL5A2QUc-97" value=".4" style="text;html=1;strokeColor=none;fillColor=none;align=center;verticalAlign=middle;whiteSpace=wrap;rounded=0;fontSize=13;movable=1;resizable=1;rotatable=1;deletable=1;editable=1;connectable=1;direction=east;container=0;" parent="igetMSzc9jm7YL5A2QUc-1" vertex="1">
          <mxGeometry x="386.18" y="343" width="24" height="30" as="geometry" />
        </mxCell>
        <mxCell id="igetMSzc9jm7YL5A2QUc-96" value="" style="aspect=fixed;html=1;points=[];align=center;image;fontSize=12;image=img/lib/azure2/networking/Network_Interfaces.svg;strokeWidth=2;movable=1;resizable=1;rotatable=1;deletable=1;editable=1;connectable=1;direction=east;container=0;" parent="igetMSzc9jm7YL5A2QUc-1" vertex="1">
          <mxGeometry x="501.5" y="313" width="35.13" height="31" as="geometry" />
        </mxCell>
        <mxCell id="igetMSzc9jm7YL5A2QUc-98" value=".68" style="text;html=1;strokeColor=none;fillColor=none;align=center;verticalAlign=middle;whiteSpace=wrap;rounded=0;fontSize=13;movable=1;resizable=1;rotatable=1;deletable=1;editable=1;connectable=1;direction=east;container=0;" parent="igetMSzc9jm7YL5A2QUc-1" vertex="1">
          <mxGeometry x="508.06999999999994" y="343" width="24" height="30" as="geometry" />
        </mxCell>
        <mxCell id="igetMSzc9jm7YL5A2QUc-69" style="vsdxID=156;edgeStyle=orthogonalEdgeStyle;startArrow=none;endArrow=none;startSize=5;endSize=5;strokeColor=#000000;spacingTop=-3;spacingBottom=-3;spacingLeft=-3;spacingRight=-3;verticalAlign=middle;html=1;labelBackgroundColor=none;rounded=1;curved=1;exitX=0.977;exitY=0.538;exitDx=0;exitDy=0;exitPerimeter=0;" parent="igetMSzc9jm7YL5A2QUc-1" source="sIdN9Mmn7lUllPxHDhFa-4" target="igetMSzc9jm7YL5A2QUc-95" edge="1">
          <mxGeometry relative="1" as="geometry">
            <Array as="points">
              <mxPoint x="180.5" y="299" />
              <mxPoint x="280.5" y="299" />
              <mxPoint x="280.5" y="328" />
            </Array>
            <mxPoint x="90.5" y="238.5000000000001" as="sourcePoint" />
            <mxPoint x="244.5" y="316" as="targetPoint" />
          </mxGeometry>
        </mxCell>
        <mxCell id="aFHc2-TC1C3AmbfW_e4t-1" value="" style="shape=image;verticalLabelPosition=bottom;verticalAlign=top;imageAspect=0;aspect=fixed;image=data:image/svg+xml,PHN2ZyB4bWxucz0iaHR0cDovL3d3dy53My5vcmcvMjAwMC9zdmciIHZpZXdCb3g9IjEyLjIwMDAwMDc2MjkzOTQ1MyAyNS41Mjk5OTg3NzkyOTY4NzUgMTY3LjYwMDAwNjEwMzUxNTYyIDE0MC45NzAwMTY0Nzk0OTIyIiBkYXRhLW5hbWU9IlNlY3VyaXR5IE5ldHdvcmtpbmciIGlkPSJTZWN1cml0eV9OZXR3b3JraW5nIiB3aWR0aD0iMTY3LjYwMDAwNjEwMzUxNTYyIiBoZWlnaHQ9IjE0MC45NzAwMTY0Nzk0OTIyIj4mI3hhOyAgPGRlZnM+JiN4YTsgICAgPHN0eWxlPiYjeGE7ICAgICAgLmNscy0xIHsmI3hhOyAgICAgICAgZmlsbDogbm9uZTsmI3hhOyAgICAgICAgc3Ryb2tlOiAjNDY0NjQ2OyYjeGE7ICAgICAgICBzdHJva2UtbGluZWNhcDogcm91bmQ7JiN4YTsgICAgICAgIHN0cm9rZS1saW5lam9pbjogcm91bmQ7JiN4YTsgICAgICAgIHN0cm9rZS13aWR0aDogNHB4OyYjeGE7ICAgICAgfSYjeGE7JiN4YTsgICAgICAuY2xzLTIgeyYjeGE7ICAgICAgICBmaWxsOiAjNDY0NjQ2OyYjeGE7ICAgICAgfSYjeGE7JiN4YTsgICAgICAuY2xzLTIsIC5jbHMtMyB7JiN4YTsgICAgICAgIHN0cm9rZS13aWR0aDogMHB4OyYjeGE7ICAgICAgfSYjeGE7JiN4YTsgICAgICAuY2xzLTMgeyYjeGE7ICAgICAgICBmaWxsOiAjMzA3ZmUyOyYjeGE7ICAgICAgfSYjeGE7ICAgIDwvc3R5bGU+JiN4YTsgIDwvZGVmcz4mI3hhOyAgPGc+JiN4YTsgICAgPGc+JiN4YTsgICAgICA8cGF0aCBkPSJtNTUuMTEsMTI1LjM5djM5LjFoLTI5Ljc2Yy02LjE1LDAtMTEuMTQtNC45OC0xMS4xNC0xMS4xNHYtMzQuNTFoMzcuMDNjMS4xMiwyLjI4LDIuNDIsNC40NywzLjg3LDYuNTRaIiBjbGFzcz0iY2xzLTMiLz4mI3hhOyAgICAgIDxwYXRoIGQ9Im01NS4xMSwxNjYuNDloLTI5Ljc2Yy03LjI1LDAtMTMuMTUtNS44OS0xMy4xNS0xMy4xNHYtMzQuNTFjMC0xLjEuOS0yLDItMmgzNy4wM2MuNzYsMCwxLjQ2LjQzLDEuNzksMS4xMiwxLjA3LDIuMTcsMi4zMiw0LjI4LDMuNzEsNi4yNy4yNC4zNC4zNi43NC4zNiwxLjE1djM5LjFjMCwxLjEtLjksMi0yLDJabS0zOC45LTQ1LjY0djMyLjUxYzAsNS4wNCw0LjEsOS4xNCw5LjE1LDkuMTRoMjcuNzZ2LTM2LjQ4Yy0xLjEzLTEuNjYtMi4xNy0zLjM5LTMuMS01LjE2SDE2LjIxWiIgY2xhc3M9ImNscy0yIi8+JiN4YTsgICAgPC9nPiYjeGE7ICAgIDxnPiYjeGE7ICAgICAgPHBhdGggZD0ibTE3Ny43OSwxMTguODV2MzQuNTFjMCw2LjE1LTQuOTgsMTEuMTQtMTEuMTQsMTEuMTRoLTI5LjYxdi0zNS44NWMyLjQ3LTMsNC42LTYuMjgsNi4zMy05Ljc5aDM0LjQyWiIgY2xhc3M9ImNscy0zIi8+JiN4YTsgICAgICA8cGF0aCBkPSJtMTY2LjY2LDE2Ni40OWgtMjkuNjFjLTEuMSwwLTItLjktMi0ydi0zNS44NWMwLS40Ni4xNi0uOTEuNDYtMS4yNywyLjM5LTIuOSw0LjQzLTYuMDYsNi4wOC05LjQuMzQtLjY4LDEuMDMtMS4xMiwxLjc5LTEuMTJoMzQuNDJjMS4xLDAsMiwuOSwyLDJ2MzQuNTFjMCw3LjI0LTUuODksMTMuMTQtMTMuMTQsMTMuMTRabS0yNy42MS00aDI3LjYxYzUuMDQsMCw5LjE0LTQuMSw5LjE0LTkuMTR2LTMyLjUxaC0zMS4xOWMtMS41NywyLjk5LTMuNDMsNS44NS01LjU1LDguNXYzMy4xNFoiIGNsYXNzPSJjbHMtMiIvPiYjeGE7ICAgIDwvZz4mI3hhOyAgICA8Zz4mI3hhOyAgICAgIDxwYXRoIGQ9Im0xMzcuMDUsMTI4LjYzdjM1Ljg1SDU1LjEydi0zOS4wOWMuOTUsMS4zNiwxLjk3LDIuNjcsMy4wNCwzLjkzLDcuNTcsOC45LDE4LjEyLDE1LjE3LDMwLjA5LDE3LjMxLDIuOTMuNTMsNS45OC44LDkuMDcuOCwyLjQ1LDAsNC44Ny0uMTcsNy4yNC0uNTIsMTIuNDEtMS43NSwyMy4zOS03LjkxLDMxLjI5LTE2Ljg3LjQxLS40NS44MS0uOTIsMS4yLTEuNFoiIGNsYXNzPSJjbHMtMyIvPiYjeGE7ICAgICAgPHBhdGggZD0ibTEzNy4wNSwxNjYuNDhINTUuMTJjLTEuMSwwLTItLjktMi0ydi0zOS4wOWMwLS44Ny41Ny0xLjY0LDEuNC0xLjkxLjgzLS4yNiwxLjc0LjA0LDIuMjQuNzYuOTEsMS4zLDEuOSwyLjU4LDIuOTMsMy43OCw3LjQyLDguNzIsMTcuNjksMTQuNjMsMjguOTIsMTYuNjQsNS4wMi45MSwxMC41MywxLjAxLDE1LjY3LjI3LDExLjYyLTEuNjQsMjIuMy03LjQsMzAuMDgtMTYuMjEuMzktLjQ0Ljc4LS44OCwxLjE1LTEuMzQuNTMtLjY2LDEuNDItLjkxLDIuMjItLjYzLjguMjgsMS4zMywxLjA0LDEuMzMsMS44OXYzNS44NWMwLDEuMS0uOSwyLTIsMlptLTc5LjkzLTRoNzcuOTN2LTI4LjY3Yy04LjE1LDguMTUtMTguNzYsMTMuNDctMzAuMjEsMTUuMDgtNS41NS44LTExLjUuNjktMTYuOTQtLjI5LTExLjg5LTIuMTItMjIuOC04LjMtMzAuNzgtMTcuNDJ2MzEuMzFaIiBjbGFzcz0iY2xzLTIiLz4mI3hhOyAgICA8L2c+JiN4YTsgICAgPGc+JiN4YTsgICAgICA8cGF0aCBkPSJtNTUuMTEsMjcuNTN2MzkuMTFjLTEuNDUsMi4wNy0yLjc1LDQuMjYtMy44Nyw2LjU0SDE0LjIxdi0zNC41MmMwLTYuMTUsNC45OS0xMS4xMywxMS4xNC0xMS4xM2gyOS43NloiIGNsYXNzPSJjbHMtMyIvPiYjeGE7ICAgICAgPHBhdGggZD0ibTUxLjI0LDc1LjE4SDE0LjIxYy0xLjEsMC0yLS45LTItMnYtMzQuNTJjMC03LjI0LDUuOS0xMy4xMywxMy4xNS0xMy4xM2gyOS43NmMxLjEsMCwyLC45LDIsMnYzOS4xMWMwLC40MS0uMTMuODEtLjM2LDEuMTUtMS40LDEuOTktMi42NSw0LjEtMy43MSw2LjI3LS4zNC42OC0xLjAzLDEuMTItMS43OSwxLjEyWm0tMzUuMDMtNGgzMy44Yy45My0xLjc3LDEuOTctMy41MSwzLjEtNS4xNlYyOS41M2gtMjcuNzZjLTUuMDQsMC05LjE1LDQuMS05LjE1LDkuMTN2MzIuNTJaIiBjbGFzcz0iY2xzLTIiLz4mI3hhOyAgICA8L2c+JiN4YTsgICAgPGc+JiN4YTsgICAgICA8cGF0aCBkPSJtMTc3LjcyLDM4LjY3djM0LjUyaC0zNC4zNWMtMS43My0zLjUxLTMuODYtNi43OS02LjMzLTkuNzlWMjcuNTNoMjkuNTVjNi4xNSwwLDExLjE0LDQuOTgsMTEuMTQsMTEuMTNaIiBjbGFzcz0iY2xzLTMiLz4mI3hhOyAgICAgIDxwYXRoIGQ9Im0xNzcuNzIsNzUuMThoLTM0LjM1Yy0uNzYsMC0xLjQ2LS40My0xLjc5LTEuMTItMS42NS0zLjM0LTMuNjktNi41LTYuMDgtOS40LS4yOS0uMzYtLjQ2LS44MS0uNDYtMS4yN1YyNy41M2MwLTEuMS45LTIsMi0yaDI5LjU1YzcuMjQsMCwxMy4xNCw1Ljg5LDEzLjE0LDEzLjEzdjM0LjUyYzAsMS4xLS45LDItMiwyWm0tMzMuMTMtNGgzMS4xM3YtMzIuNTJjMC01LjA0LTQuMS05LjEzLTkuMTQtOS4xM2gtMjcuNTV2MzMuMTVjMi4xMiwyLjY1LDMuOTksNS41MSw1LjU1LDguNVoiIGNsYXNzPSJjbHMtMiIvPiYjeGE7ICAgIDwvZz4mI3hhOyAgICA8Zz4mI3hhOyAgICAgIDxwYXRoIGQ9Im0xMzcuMDQsMjcuNTN2MzUuODZjLTkuNDItMTEuNDctMjMuNzItMTguNzktMzkuNzMtMTguNzktMTcuNDcsMC0zMi45MSw4LjcyLTQyLjIsMjIuMDRWMjcuNTNoODEuOTNaIiBjbGFzcz0iY2xzLTMiLz4mI3hhOyAgICAgIDxwYXRoIGQ9Im01NS4xMSw2OC42NGMtLjIsMC0uNC0uMDMtLjYtLjA5LS44My0uMjYtMS40LTEuMDMtMS40LTEuOTFWMjcuNTNjMC0xLjEuOS0yLDItMmg4MS45M2MxLjEsMCwyLC45LDIsMnYzNS44NmMwLC44NC0uNTMsMS42LTEuMzMsMS44OC0uOC4yOS0xLjY4LjA0LTIuMjItLjYxLTkuNDItMTEuNDgtMjMuMzQtMTguMDYtMzguMTktMTguMDYtMTYuMTUsMC0zMS4zMSw3LjkyLTQwLjU2LDIxLjE4LS4zOC41NS0xLC44Ni0xLjY0Ljg2Wm0yLTM5LjExdjMxLjMyYzEwLjA5LTExLjUxLDI0LjcyLTE4LjI0LDQwLjItMTguMjQsMTQuMjgsMCwyNy43Niw1LjYzLDM3LjczLDE1LjYxdi0yOC42OEg1Ny4xMVoiIGNsYXNzPSJjbHMtMiIvPiYjeGE7ICAgIDwvZz4mI3hhOyAgICA8Zz4mI3hhOyAgICAgIDxwYXRoIGQ9Im01MS4yMyw3My4xOWMtMy40Miw2Ljg4LTUuMzMsMTQuNjItNS4zMywyMi44MnMxLjkyLDE1Ljk0LDUuMzMsMjIuODJIMTQuMjF2LTQ1LjY0aDM3LjAyWiIgY2xhc3M9ImNscy0zIi8+JiN4YTsgICAgICA8cGF0aCBkPSJtNTEuMjMsMTIwLjg0SDE0LjIxYy0xLjEsMC0yLS45LTItMnYtNDUuNjRjMC0xLjEuOS0yLDItMmgzNy4wMmMuNjksMCwxLjMzLjM2LDEuNy45NXMuNCwxLjMyLjA5LDEuOTRjLTMuNCw2Ljg1LTUuMTIsMTQuMjItNS4xMiwyMS45M3MxLjcyLDE1LjA5LDUuMTIsMjEuOTNjLjMxLjYyLjI3LDEuMzUtLjA5LDEuOTQtLjM2LjU5LTEuMDEuOTUtMS43Ljk1Wm0tMzUuMDItNGgzMS45Yy0yLjc5LTYuNTgtNC4yMS0xMy41Ni00LjIxLTIwLjgyczEuNDEtMTQuMjUsNC4yMS0yMC44MmgtMzEuOXY0MS42NFoiIGNsYXNzPSJjbHMtMiIvPiYjeGE7ICAgIDwvZz4mI3hhOyAgICA8Zz4mI3hhOyAgICAgIDxwYXRoIGQ9Im0xNzcuNzIsNzMuMTl2NDUuNjRoLTM0LjM0YzMuNDEtNi44OCw1LjMzLTE0LjYyLDUuMzMtMjIuODJzLTEuOTItMTUuOTQtNS4zMy0yMi44MmgzNC4zNFoiIGNsYXNzPSJjbHMtMyIvPiYjeGE7ICAgICAgPHBhdGggZD0ibTE3Ny43MiwxMjAuODRoLTM0LjM0Yy0uNjksMC0xLjMzLS4zNi0xLjctLjk1LS4zNi0uNTktLjQtMS4zMi0uMDktMS45NCwzLjQtNi44NSw1LjEyLTE0LjIzLDUuMTItMjEuOTNzLTEuNzItMTUuMDktNS4xMi0yMS45M2MtLjMxLS42Mi0uMjctMS4zNS4wOS0xLjk0LjM2LS41OSwxLjAxLS45NSwxLjctLjk1aDM0LjM0YzEuMSwwLDIsLjksMiwydjQ1LjY0YzAsMS4xLS45LDItMiwyWm0tMzEuMjItNGgyOS4yMnYtNDEuNjRoLTI5LjIyYzIuNzksNi41OCw0LjIxLDEzLjU2LDQuMjEsMjAuODJzLTEuNDEsMTQuMjUtNC4yMSwyMC44MloiIGNsYXNzPSJjbHMtMiIvPiYjeGE7ICAgIDwvZz4mI3hhOyAgPC9nPiYjeGE7ICA8Zz4mI3hhOyAgICA8cGF0aCBkPSJtOTYuMDYsMTEwLjMxYzExLjQ2LDAsMjIuNTQsMS42NSwzMyw0LjczIiBjbGFzcz0iY2xzLTEiLz4mI3hhOyAgICA8cGF0aCBkPSJtMTM0LjA2LDk2LjAxYzAsNi45Mi0xLjg1LDEzLjQxLTUuMDgsMTktNi41NywxMS4zNC0xOC44MywxOC45Ny0zMi44OSwxOC45N1Y1OC4wNWMxNC4yMiwwLDI2LjYxLDcuODIsMzMuMTIsMTkuMzksMy4wNSw1LjQyLDQuODEsMTEuNjYsNC44NSwxOC4zMSwwLC4wOSwwLC4xOCwwLC4yN1oiIGNsYXNzPSJjbHMtMSIvPiYjeGE7ICAgIDxwYXRoIGQ9Im05Ni4wNiw1OC4xYzEyLjk5LDcuNjQsMjEuNzEsMjEuNzYsMjEuNzEsMzcuOTJzLTguNzIsMzAuMjgtMjEuNzEsMzcuOTIiIGNsYXNzPSJjbHMtMSIvPiYjeGE7ICAgIDxwYXRoIGQ9Im0xMjkuMjUsNzcuNDJjLTEwLjUxLDMuMS0yMS42NCw0Ljc3LTMzLjE2LDQuNzciIGNsYXNzPSJjbHMtMSIvPiYjeGE7ICAgIDxwYXRoIGQ9Im05Ni4xLDExMC4zMWMtMTEuNDYsMC0yMi41NCwxLjY1LTMzLDQuNzMiIGNsYXNzPSJjbHMtMSIvPiYjeGE7ICAgIDxwYXRoIGQ9Im01OC4xLDk2LjAxYzAsNi45MiwxLjg1LDEzLjQxLDUuMDgsMTksNi41NywxMS4zNCwxOC44MywxOC45NywzMi44OSwxOC45N1Y1OC4wNWMtMTQuMjIsMC0yNi42MSw3LjgyLTMzLjEyLDE5LjM5LTMuMDUsNS40Mi00LjgxLDExLjY2LTQuODUsMTguMzEsMCwuMDksMCwuMTgsMCwuMjdaIiBjbGFzcz0iY2xzLTEiLz4mI3hhOyAgICA8cGF0aCBkPSJtOTYuMSw1OC4xYy0xMi45OSw3LjY0LTIxLjcxLDIxLjc2LTIxLjcxLDM3LjkyczguNzIsMzAuMjgsMjEuNzEsMzcuOTIiIGNsYXNzPSJjbHMtMSIvPiYjeGE7ICAgIDxwYXRoIGQ9Im02Mi45MSw3Ny40MmMxMC41MSwzLjEsMjEuNjQsNC43NywzMy4xNiw0Ljc3IiBjbGFzcz0iY2xzLTEiLz4mI3hhOyAgICA8bGluZSB5Mj0iOTUuNzUiIHgyPSIxMzQuMDUiIHkxPSI5NS43NSIgeDE9IjU4LjExIiBjbGFzcz0iY2xzLTEiLz4mI3hhOyAgPC9nPiYjeGE7PC9zdmc+" vertex="1" parent="igetMSzc9jm7YL5A2QUc-1">
          <mxGeometry x="411.18" y="289.25" width="93.53" height="78.5" as="geometry" />
        </mxCell>
      </root>
    </mxGraphModel>
  </diagram>
  <diagram name="fgt-single-vm-x" id="vrH0O__II0ArrIJXWuXJ">
    <mxGraphModel dx="1306" dy="929" grid="1" gridSize="10" guides="1" tooltips="1" connect="1" arrows="1" fold="1" page="1" pageScale="1" pageWidth="1169" pageHeight="827" math="0" shadow="0">
      <root>
        <mxCell id="zNKvcdYB46odwFU9yiKE-0" />
        <mxCell id="zNKvcdYB46odwFU9yiKE-1" parent="zNKvcdYB46odwFU9yiKE-0" />
        <mxCell id="zNKvcdYB46odwFU9yiKE-4" style="vsdxID=7;fillColor=#ffffff;gradientColor=none;fillOpacity=0;strokeOpacity=0;shape=stencil(pZPRDoIgFIafhlt35Cy1y2b2Hi4xWSYOteztg7EMNXVMrg7w/4fv3zgE46ZIa0YoNK0Ud/biWVsQPBNKeVUwyVtVEUwIxrmQ7CZFV2VmX6daqauHeOoOvfGBdlB427uLEZa8soToReGy9tpJ09Uf1MHRXl+vP3q2pxtyOpbjjAVnMHDaZj94QbQHX/lD+xrd4izZF+ONef8kBKd44JQGnOBhF/nqp5pgwyomrGJN/4uqfxOS87I0AzagqGI6UerITCMmHw==);spacingTop=-3;spacingBottom=-3;spacingLeft=-3;spacingRight=-3;labelBackgroundColor=none;rounded=0;html=1;whiteSpace=wrap;" parent="zNKvcdYB46odwFU9yiKE-1" vertex="1">
          <mxGeometry x="193" y="101" width="918" height="626" as="geometry" />
        </mxCell>
        <mxCell id="nRu2HabfHEAYrLRmVfNJ-2" value="" style="rounded=1;whiteSpace=wrap;html=1;sketch=0;fontSize=10;strokeColor=#007fff;fillColor=#FFFFFF;gradientColor=none;gradientDirection=south;absoluteArcSize=1;arcSize=4;fontFamily=Helvetica;" parent="zNKvcdYB46odwFU9yiKE-1" vertex="1">
          <mxGeometry x="171" y="300" width="860" height="320" as="geometry" />
        </mxCell>
        <mxCell id="nRu2HabfHEAYrLRmVfNJ-3" value="" style="vsdxID=12;fillColor=#f0f0f0;gradientColor=none;shape=stencil(hZNRcoMgEIZPwysDrJjw2EmTC/QETqSVqdUMMa3p6UtcNIAk9Qn+/Ve+XVgCu3NTnTQR7DzY/lP/mHpoCLwSIUzXaGsGtyKwJ7B7763+sP2lq3F/qpxTsEnRNebwm1uwyh7fzK9GjVHgG4kBzPzqv28njj6OoevsVsUkHNB7vFg089g9b2nBVPCVJcZHMcfLjc8Q0Q9G8MRUFt4AoWE6nr04gtZ0Aa3a0kLGxM9wlaIgEuSY0DmUShAfFQXrFMi1Lccd5CwKk/+wLyl3SW5X/EuFXuIsaXLYNIg9j3iDe8kkZN7F/aJ5ShHf/FWsa4HYAdkOZSifv123mIYEx8e0Lc5YGE+Hykk4kLD/Aw==);strokeColor=#bfbfbf;spacingTop=-3;spacingBottom=-3;spacingLeft=-3;spacingRight=-3;labelBackgroundColor=none;rounded=1;html=1;whiteSpace=wrap;arcSize=17;" parent="zNKvcdYB46odwFU9yiKE-1" vertex="1">
          <mxGeometry x="512" y="340" width="206" height="210" as="geometry" />
        </mxCell>
        <mxCell id="nRu2HabfHEAYrLRmVfNJ-4" value="&lt;p style=&quot;align:center;margin-left:0;margin-right:0;margin-top:0px;margin-bottom:0px;text-indent:0;valign:middle;direction:ltr;&quot;&gt;&lt;font style=&quot;font-size:9px;font-family:Arial;color:#000000;direction:ltr;letter-spacing:0px;line-height:100%;opacity:1&quot;&gt;Internal&lt;/font&gt;&lt;/p&gt;" style="text;vsdxID=11;fillColor=none;gradientColor=none;strokeColor=none;spacingTop=-3;spacingBottom=-3;spacingLeft=-3;spacingRight=-3;labelBackgroundColor=none;rounded=1;html=1;whiteSpace=wrap;verticalAlign=middle;align=center;;html=1;" parent="zNKvcdYB46odwFU9yiKE-1" vertex="1">
          <mxGeometry x="523.9466019417475" y="357.8886567164179" width="184.49417475728154" height="18.576119402985075" as="geometry" />
        </mxCell>
        <mxCell id="nRu2HabfHEAYrLRmVfNJ-5" value="&lt;span style=&quot;&quot;&gt;172.16.136.64/26&amp;nbsp;&lt;/span&gt;" style="text;html=1;strokeColor=none;fillColor=none;align=right;verticalAlign=middle;whiteSpace=wrap;rounded=0;fontFamily=Helvetica;fontSize=10;" parent="zNKvcdYB46odwFU9yiKE-1" vertex="1">
          <mxGeometry x="626.252427184466" y="522.2089552238806" width="91.74757281553397" height="27.791044776119403" as="geometry" />
        </mxCell>
        <mxCell id="nRu2HabfHEAYrLRmVfNJ-6" value="&lt;font color=&quot;#000000&quot;&gt;Public IP Address&lt;/font&gt;" style="aspect=fixed;html=1;points=[];align=center;image;fontSize=12;image=img/lib/azure2/networking/Public_IP_Addresses.svg;rounded=1;sketch=0;strokeColor=#007fff;fillColor=#FFFFFF;gradientColor=none;gradientDirection=south;fontFamily=Helvetica;fontColor=#999999;" parent="zNKvcdYB46odwFU9yiKE-1" vertex="1">
          <mxGeometry x="138" y="357.89000000000004" width="65" height="52" as="geometry" />
        </mxCell>
        <mxCell id="nRu2HabfHEAYrLRmVfNJ-7" value="&lt;span style=&quot;font-size: 13px;&quot;&gt;Virtual Network&amp;nbsp;&lt;/span&gt;&lt;br style=&quot;font-size: 13px;&quot;&gt;&lt;span style=&quot;font-size: 13px;&quot;&gt;172.16.136.0/22&amp;nbsp;&lt;/span&gt;" style="text;html=1;strokeColor=none;fillColor=none;align=right;verticalAlign=middle;whiteSpace=wrap;rounded=0;sketch=0;fontSize=4;labelPosition=center;verticalLabelPosition=middle;horizontal=1;fontFamily=Helvetica;" parent="zNKvcdYB46odwFU9yiKE-1" vertex="1">
          <mxGeometry x="192.5" y="559" width="766.83" height="50" as="geometry" />
        </mxCell>
        <mxCell id="nRu2HabfHEAYrLRmVfNJ-8" value="" style="aspect=fixed;html=1;points=[];align=center;image;fontSize=12;image=img/lib/azure2/networking/Virtual_Networks.svg;rounded=1;sketch=0;strokeColor=#007fff;fillColor=#FFFFFF;gradientColor=none;gradientDirection=south;fontFamily=Helvetica;" parent="zNKvcdYB46odwFU9yiKE-1" vertex="1">
          <mxGeometry x="959.3333333333333" y="566.8399999999999" width="57.548333333333325" height="34.32833333333333" as="geometry" />
        </mxCell>
        <mxCell id="nRu2HabfHEAYrLRmVfNJ-9" style="vsdxID=113;fillColor=none;gradientColor=none;strokeColor=none;spacingTop=-3;spacingBottom=-3;spacingLeft=-3;spacingRight=-3;labelBackgroundColor=none;rounded=1;html=1;whiteSpace=wrap;" parent="zNKvcdYB46odwFU9yiKE-1" vertex="1">
          <mxGeometry x="761" y="340" width="207" height="210" as="geometry" />
        </mxCell>
        <mxCell id="nRu2HabfHEAYrLRmVfNJ-10" style="vsdxID=114;fillColor=#f0f0f0;gradientColor=none;shape=stencil(fZPdcoMgEIWfhlsHWDXhspMmL9AncJRUplYzxDSapw9xpfyExCvcPQe+XVgCu3NbnSTh9Dzq4UdeVTO2BD4J56pvpVajWRHYE9gdBy2/9XDpG/w/VUbJ6RKRDXrYQ81ppesvdZMYoxmwTYEJdP4Of48TpzWPqXndIcvFEjigtr5oFLNQbX+zQlDvgxzzE7f5crM6eLDBBPa8AlYBWAsrHAH9MBCd6j1gsc3ybQAdWp6hhTA9iMBDTkZphPmqMIgNkGpcAts5/ssoy3fUzuDKyFnI7VcWl2JR/X5F9C9Z3a0kDIlX4a45hp/Ce5/5cy0QKiDZnwTl+5drFsuI4PCorsMJ8/PxSJkQjiPs7w==);strokeColor=#bfbfbf;spacingTop=-3;spacingBottom=-3;spacingLeft=-3;spacingRight=-3;labelBackgroundColor=none;rounded=1;html=1;whiteSpace=wrap;" parent="nRu2HabfHEAYrLRmVfNJ-9" vertex="1">
          <mxGeometry width="207" height="210" as="geometry" />
        </mxCell>
        <mxCell id="nRu2HabfHEAYrLRmVfNJ-11" value="&lt;p style=&quot;align:center;margin-left:0;margin-right:0;margin-top:0px;margin-bottom:0px;text-indent:0;valign:middle;direction:ltr;&quot;&gt;&lt;font style=&quot;font-size:9px;font-family:Arial;color:#000000;direction:ltr;letter-spacing:0px;line-height:100%;opacity:1&quot;&gt;Protected A&lt;br/&gt;&lt;/font&gt;&lt;/p&gt;" style="text;vsdxID=113;fillColor=none;gradientColor=none;strokeColor=none;spacingTop=-3;spacingBottom=-3;spacingLeft=-3;spacingRight=-3;labelBackgroundColor=none;rounded=1;html=1;whiteSpace=wrap;verticalAlign=middle;align=center;;html=1;" parent="nRu2HabfHEAYrLRmVfNJ-9" vertex="1">
          <mxGeometry x="12.7" y="10.482278481012658" width="182.88" height="11.253164556962025" as="geometry" />
        </mxCell>
        <mxCell id="nRu2HabfHEAYrLRmVfNJ-12" style="vsdxID=117;fillColor=none;gradientColor=none;fillOpacity=0;strokeOpacity=0;spacingTop=-3;spacingBottom=-3;spacingLeft=-3;spacingRight=-3;labelBackgroundColor=none;rounded=1;strokeColor=none;html=1;whiteSpace=wrap;" parent="nRu2HabfHEAYrLRmVfNJ-9" vertex="1">
          <mxGeometry x="96" y="186.07594936708858" width="111" height="23.924050632911392" as="geometry" />
        </mxCell>
        <mxCell id="nRu2HabfHEAYrLRmVfNJ-13" style="vsdxID=118;fillColor=#ffffff;gradientColor=none;fillOpacity=0;strokeOpacity=0;shape=stencil(hZNNcsMgDIVPw5YRkn+XnTS5QE/giWnN1LUzxGmdnr6ORaYoJSkrkN6DT4AUbY5dc7AK4Tj58d1+uXbqFD0rRDd01rtpmSnaKtq8jt6++fE0tLw+NIsSYY3Ylj3mokZo/P7FfVuOgSZT5pxg58f4eTlxDnlOncMORufFGtmxeH/yrDZSHpa5hrKORsXpGcN2GsPRZxT+mXiJuiqCgGLBejo8LQC9GyLautSmEMTwiLaudCmB4QYQQANKxHs1UcJCyWtLgAsXh6pKZ9kjeuG5VpTpGmUNUZFxVZnEjm+O/sjuYUfvk/YkqH/f3CRw5D+4EsdlkVRQ8rYSrP/85GWy9gx3k+t7brk4f9tjS4j7k7Y/);spacingTop=-3;spacingBottom=-3;spacingLeft=-3;spacingRight=-3;labelBackgroundColor=none;rounded=1;html=1;whiteSpace=wrap;" parent="nRu2HabfHEAYrLRmVfNJ-12" vertex="1">
          <mxGeometry width="111" height="23.924050632911392" as="geometry" />
        </mxCell>
        <mxCell id="nRu2HabfHEAYrLRmVfNJ-14" value="&lt;p style=&quot;align:right;margin-left:0;margin-right:0;margin-top:0px;margin-bottom:0px;text-indent:0;valign:middle;direction:ltr;&quot;&gt;&lt;font style=&quot;font-family: Arial; color: rgb(0, 0, 0); direction: ltr; letter-spacing: 0px; line-height: 100%; opacity: 1; font-size: 13px;&quot;&gt;172.16.137.0/24&amp;nbsp;&lt;/font&gt;&lt;/p&gt;" style="text;vsdxID=117;fillColor=none;gradientColor=none;fillOpacity=0;strokeOpacity=0;spacingTop=-3;spacingBottom=-3;spacingLeft=-3;spacingRight=-3;labelBackgroundColor=none;rounded=1;strokeColor=none;html=1;whiteSpace=wrap;verticalAlign=middle;align=right;;html=1;" parent="nRu2HabfHEAYrLRmVfNJ-12" vertex="1">
          <mxGeometry y="-0.3721518987341772" width="111.13" height="24.756962025316454" as="geometry" />
        </mxCell>
        <mxCell id="nRu2HabfHEAYrLRmVfNJ-15" value="" style="aspect=fixed;html=1;points=[];align=center;image;fontSize=12;image=img/lib/azure2/networking/Route_Tables.svg;rounded=1;sketch=0;strokeColor=#007fff;fillColor=#FFFFFF;gradientColor=none;gradientDirection=south;fontFamily=Helvetica;" parent="nRu2HabfHEAYrLRmVfNJ-9" vertex="1">
          <mxGeometry x="4" y="177.2151898734177" width="29.267088607594935" height="28.354430379746834" as="geometry" />
        </mxCell>
        <mxCell id="nRu2HabfHEAYrLRmVfNJ-16" value="" style="vsdxID=12;fillColor=#f0f0f0;gradientColor=none;shape=stencil(hZNRcoMgEIZPwysDrJjw2EmTC/QETqSVqdUMMa3p6UtcNIAk9Qn+/Ve+XVgCu3NTnTQR7DzY/lP/mHpoCLwSIUzXaGsGtyKwJ7B7763+sP2lq3F/qpxTsEnRNebwm1uwyh7fzK9GjVHgG4kBzPzqv28njj6OoevsVsUkHNB7vFg089g9b2nBVPCVJcZHMcfLjc8Q0Q9G8MRUFt4AoWE6nr04gtZ0Aa3a0kLGxM9wlaIgEuSY0DmUShAfFQXrFMi1Lccd5CwKk/+wLyl3SW5X/EuFXuIsaXLYNIg9j3iDe8kkZN7F/aJ5ShHf/FWsa4HYAdkOZSifv123mIYEx8e0Lc5YGE+Hykk4kLD/Aw==);strokeColor=#bfbfbf;spacingTop=-3;spacingBottom=-3;spacingLeft=-3;spacingRight=-3;labelBackgroundColor=none;rounded=1;html=1;whiteSpace=wrap;" parent="zNKvcdYB46odwFU9yiKE-1" vertex="1">
          <mxGeometry x="221" y="339" width="206" height="211" as="geometry" />
        </mxCell>
        <mxCell id="nRu2HabfHEAYrLRmVfNJ-17" value="" style="group" parent="zNKvcdYB46odwFU9yiKE-1" vertex="1" connectable="0">
          <mxGeometry x="221" y="340" width="206" height="210" as="geometry" />
        </mxCell>
        <mxCell id="nRu2HabfHEAYrLRmVfNJ-18" value="&lt;p style=&quot;align:center;margin-left:0;margin-right:0;margin-top:0px;margin-bottom:0px;text-indent:0;valign:middle;direction:ltr;&quot;&gt;&lt;font style=&quot;font-size:9px;font-family:Arial;color:#000000;direction:ltr;letter-spacing:0px;line-height:100%;opacity:1&quot;&gt;External&lt;/font&gt;&lt;/p&gt;" style="text;vsdxID=11;fillColor=none;gradientColor=none;strokeColor=none;spacingTop=-3;spacingBottom=-3;spacingLeft=-3;spacingRight=-3;labelBackgroundColor=none;rounded=1;html=1;whiteSpace=wrap;verticalAlign=middle;align=center;;html=1;" parent="nRu2HabfHEAYrLRmVfNJ-17" vertex="1">
          <mxGeometry x="12.699999999999989" y="7.666567164179098" width="180.98" height="7.961194029850745" as="geometry" />
        </mxCell>
        <mxCell id="nRu2HabfHEAYrLRmVfNJ-19" value="&lt;span style=&quot;&quot;&gt;&amp;nbsp;172.16.136.0/26&lt;/span&gt;" style="text;html=1;strokeColor=none;fillColor=none;align=left;verticalAlign=middle;whiteSpace=wrap;rounded=0;fontFamily=Helvetica;fontSize=10;" parent="nRu2HabfHEAYrLRmVfNJ-17" vertex="1">
          <mxGeometry y="180" width="90" height="30" as="geometry" />
        </mxCell>
        <mxCell id="nRu2HabfHEAYrLRmVfNJ-20" style="vsdxID=156;edgeStyle=orthogonalEdgeStyle;startArrow=none;endArrow=none;startSize=5;endSize=5;strokeColor=#000000;spacingTop=-3;spacingBottom=-3;spacingLeft=-3;spacingRight=-3;verticalAlign=middle;html=1;labelBackgroundColor=none;rounded=1;curved=1;exitX=0.977;exitY=0.538;exitDx=0;exitDy=0;exitPerimeter=0;" parent="zNKvcdYB46odwFU9yiKE-1" source="nRu2HabfHEAYrLRmVfNJ-6" target="nRu2HabfHEAYrLRmVfNJ-25" edge="1">
          <mxGeometry relative="1" as="geometry">
            <Array as="points">
              <mxPoint x="261" y="386" />
              <mxPoint x="261" y="440" />
            </Array>
            <mxPoint x="101" y="439.5000000000001" as="sourcePoint" />
            <mxPoint x="255" y="517" as="targetPoint" />
          </mxGeometry>
        </mxCell>
        <mxCell id="nRu2HabfHEAYrLRmVfNJ-21" value="" style="group" parent="zNKvcdYB46odwFU9yiKE-1" vertex="1" connectable="0">
          <mxGeometry x="390.99999999999994" y="400" width="156.13000000000005" height="95" as="geometry" />
        </mxCell>
        <mxCell id="nRu2HabfHEAYrLRmVfNJ-22" value=".4" style="text;html=1;strokeColor=none;fillColor=none;align=center;verticalAlign=middle;whiteSpace=wrap;rounded=0;fontSize=13;movable=1;resizable=1;rotatable=1;deletable=1;editable=1;connectable=1;direction=east;container=0;" parent="nRu2HabfHEAYrLRmVfNJ-21" vertex="1">
          <mxGeometry x="5.680000000000064" y="62" width="24" height="30" as="geometry" />
        </mxCell>
        <mxCell id="nRu2HabfHEAYrLRmVfNJ-23" value=".68" style="text;html=1;strokeColor=none;fillColor=none;align=center;verticalAlign=middle;whiteSpace=wrap;rounded=0;fontSize=13;movable=1;resizable=1;rotatable=1;deletable=1;editable=1;connectable=1;direction=east;container=0;" parent="nRu2HabfHEAYrLRmVfNJ-21" vertex="1">
          <mxGeometry x="127.57" y="62" width="24" height="30" as="geometry" />
        </mxCell>
        <mxCell id="nRu2HabfHEAYrLRmVfNJ-25" value="" style="aspect=fixed;html=1;points=[];align=center;image;fontSize=12;image=img/lib/azure2/networking/Network_Interfaces.svg;strokeWidth=2;rotation=-180;movable=1;resizable=1;rotatable=1;deletable=1;editable=1;connectable=1;direction=east;container=0;" parent="nRu2HabfHEAYrLRmVfNJ-21" vertex="1">
          <mxGeometry y="32" width="35.13" height="31" as="geometry" />
        </mxCell>
        <mxCell id="nRu2HabfHEAYrLRmVfNJ-26" value="" style="aspect=fixed;html=1;points=[];align=center;image;fontSize=12;image=img/lib/azure2/networking/Network_Interfaces.svg;strokeWidth=2;movable=1;resizable=1;rotatable=1;deletable=1;editable=1;connectable=1;direction=east;container=0;" parent="nRu2HabfHEAYrLRmVfNJ-21" vertex="1">
          <mxGeometry x="121.00000000000006" y="32" width="35.13" height="31" as="geometry" />
        </mxCell>
        <mxCell id="bsDWvKwtRBX4utnfJTo4-0" value="" style="shape=image;verticalLabelPosition=bottom;verticalAlign=top;imageAspect=0;aspect=fixed;image=data:image/svg+xml,PHN2ZyB4bWxucz0iaHR0cDovL3d3dy53My5vcmcvMjAwMC9zdmciIHZpZXdCb3g9IjEyLjIwMDAwMDc2MjkzOTQ1MyAyNS41Mjk5OTg3NzkyOTY4NzUgMTY3LjYwMDAwNjEwMzUxNTYyIDE0MC45NzAwMTY0Nzk0OTIyIiBkYXRhLW5hbWU9IlNlY3VyaXR5IE5ldHdvcmtpbmciIGlkPSJTZWN1cml0eV9OZXR3b3JraW5nIiB3aWR0aD0iMTY3LjYwMDAwNjEwMzUxNTYyIiBoZWlnaHQ9IjE0MC45NzAwMTY0Nzk0OTIyIj4mI3hhOyAgPGRlZnM+JiN4YTsgICAgPHN0eWxlPiYjeGE7ICAgICAgLmNscy0xIHsmI3hhOyAgICAgICAgZmlsbDogbm9uZTsmI3hhOyAgICAgICAgc3Ryb2tlOiAjNDY0NjQ2OyYjeGE7ICAgICAgICBzdHJva2UtbGluZWNhcDogcm91bmQ7JiN4YTsgICAgICAgIHN0cm9rZS1saW5lam9pbjogcm91bmQ7JiN4YTsgICAgICAgIHN0cm9rZS13aWR0aDogNHB4OyYjeGE7ICAgICAgfSYjeGE7JiN4YTsgICAgICAuY2xzLTIgeyYjeGE7ICAgICAgICBmaWxsOiAjNDY0NjQ2OyYjeGE7ICAgICAgfSYjeGE7JiN4YTsgICAgICAuY2xzLTIsIC5jbHMtMyB7JiN4YTsgICAgICAgIHN0cm9rZS13aWR0aDogMHB4OyYjeGE7ICAgICAgfSYjeGE7JiN4YTsgICAgICAuY2xzLTMgeyYjeGE7ICAgICAgICBmaWxsOiAjMzA3ZmUyOyYjeGE7ICAgICAgfSYjeGE7ICAgIDwvc3R5bGU+JiN4YTsgIDwvZGVmcz4mI3hhOyAgPGc+JiN4YTsgICAgPGc+JiN4YTsgICAgICA8cGF0aCBkPSJtNTUuMTEsMTI1LjM5djM5LjFoLTI5Ljc2Yy02LjE1LDAtMTEuMTQtNC45OC0xMS4xNC0xMS4xNHYtMzQuNTFoMzcuMDNjMS4xMiwyLjI4LDIuNDIsNC40NywzLjg3LDYuNTRaIiBjbGFzcz0iY2xzLTMiLz4mI3hhOyAgICAgIDxwYXRoIGQ9Im01NS4xMSwxNjYuNDloLTI5Ljc2Yy03LjI1LDAtMTMuMTUtNS44OS0xMy4xNS0xMy4xNHYtMzQuNTFjMC0xLjEuOS0yLDItMmgzNy4wM2MuNzYsMCwxLjQ2LjQzLDEuNzksMS4xMiwxLjA3LDIuMTcsMi4zMiw0LjI4LDMuNzEsNi4yNy4yNC4zNC4zNi43NC4zNiwxLjE1djM5LjFjMCwxLjEtLjksMi0yLDJabS0zOC45LTQ1LjY0djMyLjUxYzAsNS4wNCw0LjEsOS4xNCw5LjE1LDkuMTRoMjcuNzZ2LTM2LjQ4Yy0xLjEzLTEuNjYtMi4xNy0zLjM5LTMuMS01LjE2SDE2LjIxWiIgY2xhc3M9ImNscy0yIi8+JiN4YTsgICAgPC9nPiYjeGE7ICAgIDxnPiYjeGE7ICAgICAgPHBhdGggZD0ibTE3Ny43OSwxMTguODV2MzQuNTFjMCw2LjE1LTQuOTgsMTEuMTQtMTEuMTQsMTEuMTRoLTI5LjYxdi0zNS44NWMyLjQ3LTMsNC42LTYuMjgsNi4zMy05Ljc5aDM0LjQyWiIgY2xhc3M9ImNscy0zIi8+JiN4YTsgICAgICA8cGF0aCBkPSJtMTY2LjY2LDE2Ni40OWgtMjkuNjFjLTEuMSwwLTItLjktMi0ydi0zNS44NWMwLS40Ni4xNi0uOTEuNDYtMS4yNywyLjM5LTIuOSw0LjQzLTYuMDYsNi4wOC05LjQuMzQtLjY4LDEuMDMtMS4xMiwxLjc5LTEuMTJoMzQuNDJjMS4xLDAsMiwuOSwyLDJ2MzQuNTFjMCw3LjI0LTUuODksMTMuMTQtMTMuMTQsMTMuMTRabS0yNy42MS00aDI3LjYxYzUuMDQsMCw5LjE0LTQuMSw5LjE0LTkuMTR2LTMyLjUxaC0zMS4xOWMtMS41NywyLjk5LTMuNDMsNS44NS01LjU1LDguNXYzMy4xNFoiIGNsYXNzPSJjbHMtMiIvPiYjeGE7ICAgIDwvZz4mI3hhOyAgICA8Zz4mI3hhOyAgICAgIDxwYXRoIGQ9Im0xMzcuMDUsMTI4LjYzdjM1Ljg1SDU1LjEydi0zOS4wOWMuOTUsMS4zNiwxLjk3LDIuNjcsMy4wNCwzLjkzLDcuNTcsOC45LDE4LjEyLDE1LjE3LDMwLjA5LDE3LjMxLDIuOTMuNTMsNS45OC44LDkuMDcuOCwyLjQ1LDAsNC44Ny0uMTcsNy4yNC0uNTIsMTIuNDEtMS43NSwyMy4zOS03LjkxLDMxLjI5LTE2Ljg3LjQxLS40NS44MS0uOTIsMS4yLTEuNFoiIGNsYXNzPSJjbHMtMyIvPiYjeGE7ICAgICAgPHBhdGggZD0ibTEzNy4wNSwxNjYuNDhINTUuMTJjLTEuMSwwLTItLjktMi0ydi0zOS4wOWMwLS44Ny41Ny0xLjY0LDEuNC0xLjkxLjgzLS4yNiwxLjc0LjA0LDIuMjQuNzYuOTEsMS4zLDEuOSwyLjU4LDIuOTMsMy43OCw3LjQyLDguNzIsMTcuNjksMTQuNjMsMjguOTIsMTYuNjQsNS4wMi45MSwxMC41MywxLjAxLDE1LjY3LjI3LDExLjYyLTEuNjQsMjIuMy03LjQsMzAuMDgtMTYuMjEuMzktLjQ0Ljc4LS44OCwxLjE1LTEuMzQuNTMtLjY2LDEuNDItLjkxLDIuMjItLjYzLjguMjgsMS4zMywxLjA0LDEuMzMsMS44OXYzNS44NWMwLDEuMS0uOSwyLTIsMlptLTc5LjkzLTRoNzcuOTN2LTI4LjY3Yy04LjE1LDguMTUtMTguNzYsMTMuNDctMzAuMjEsMTUuMDgtNS41NS44LTExLjUuNjktMTYuOTQtLjI5LTExLjg5LTIuMTItMjIuOC04LjMtMzAuNzgtMTcuNDJ2MzEuMzFaIiBjbGFzcz0iY2xzLTIiLz4mI3hhOyAgICA8L2c+JiN4YTsgICAgPGc+JiN4YTsgICAgICA8cGF0aCBkPSJtNTUuMTEsMjcuNTN2MzkuMTFjLTEuNDUsMi4wNy0yLjc1LDQuMjYtMy44Nyw2LjU0SDE0LjIxdi0zNC41MmMwLTYuMTUsNC45OS0xMS4xMywxMS4xNC0xMS4xM2gyOS43NloiIGNsYXNzPSJjbHMtMyIvPiYjeGE7ICAgICAgPHBhdGggZD0ibTUxLjI0LDc1LjE4SDE0LjIxYy0xLjEsMC0yLS45LTItMnYtMzQuNTJjMC03LjI0LDUuOS0xMy4xMywxMy4xNS0xMy4xM2gyOS43NmMxLjEsMCwyLC45LDIsMnYzOS4xMWMwLC40MS0uMTMuODEtLjM2LDEuMTUtMS40LDEuOTktMi42NSw0LjEtMy43MSw2LjI3LS4zNC42OC0xLjAzLDEuMTItMS43OSwxLjEyWm0tMzUuMDMtNGgzMy44Yy45My0xLjc3LDEuOTctMy41MSwzLjEtNS4xNlYyOS41M2gtMjcuNzZjLTUuMDQsMC05LjE1LDQuMS05LjE1LDkuMTN2MzIuNTJaIiBjbGFzcz0iY2xzLTIiLz4mI3hhOyAgICA8L2c+JiN4YTsgICAgPGc+JiN4YTsgICAgICA8cGF0aCBkPSJtMTc3LjcyLDM4LjY3djM0LjUyaC0zNC4zNWMtMS43My0zLjUxLTMuODYtNi43OS02LjMzLTkuNzlWMjcuNTNoMjkuNTVjNi4xNSwwLDExLjE0LDQuOTgsMTEuMTQsMTEuMTNaIiBjbGFzcz0iY2xzLTMiLz4mI3hhOyAgICAgIDxwYXRoIGQ9Im0xNzcuNzIsNzUuMThoLTM0LjM1Yy0uNzYsMC0xLjQ2LS40My0xLjc5LTEuMTItMS42NS0zLjM0LTMuNjktNi41LTYuMDgtOS40LS4yOS0uMzYtLjQ2LS44MS0uNDYtMS4yN1YyNy41M2MwLTEuMS45LTIsMi0yaDI5LjU1YzcuMjQsMCwxMy4xNCw1Ljg5LDEzLjE0LDEzLjEzdjM0LjUyYzAsMS4xLS45LDItMiwyWm0tMzMuMTMtNGgzMS4xM3YtMzIuNTJjMC01LjA0LTQuMS05LjEzLTkuMTQtOS4xM2gtMjcuNTV2MzMuMTVjMi4xMiwyLjY1LDMuOTksNS41MSw1LjU1LDguNVoiIGNsYXNzPSJjbHMtMiIvPiYjeGE7ICAgIDwvZz4mI3hhOyAgICA8Zz4mI3hhOyAgICAgIDxwYXRoIGQ9Im0xMzcuMDQsMjcuNTN2MzUuODZjLTkuNDItMTEuNDctMjMuNzItMTguNzktMzkuNzMtMTguNzktMTcuNDcsMC0zMi45MSw4LjcyLTQyLjIsMjIuMDRWMjcuNTNoODEuOTNaIiBjbGFzcz0iY2xzLTMiLz4mI3hhOyAgICAgIDxwYXRoIGQ9Im01NS4xMSw2OC42NGMtLjIsMC0uNC0uMDMtLjYtLjA5LS44My0uMjYtMS40LTEuMDMtMS40LTEuOTFWMjcuNTNjMC0xLjEuOS0yLDItMmg4MS45M2MxLjEsMCwyLC45LDIsMnYzNS44NmMwLC44NC0uNTMsMS42LTEuMzMsMS44OC0uOC4yOS0xLjY4LjA0LTIuMjItLjYxLTkuNDItMTEuNDgtMjMuMzQtMTguMDYtMzguMTktMTguMDYtMTYuMTUsMC0zMS4zMSw3LjkyLTQwLjU2LDIxLjE4LS4zOC41NS0xLC44Ni0xLjY0Ljg2Wm0yLTM5LjExdjMxLjMyYzEwLjA5LTExLjUxLDI0LjcyLTE4LjI0LDQwLjItMTguMjQsMTQuMjgsMCwyNy43Niw1LjYzLDM3LjczLDE1LjYxdi0yOC42OEg1Ny4xMVoiIGNsYXNzPSJjbHMtMiIvPiYjeGE7ICAgIDwvZz4mI3hhOyAgICA8Zz4mI3hhOyAgICAgIDxwYXRoIGQ9Im01MS4yMyw3My4xOWMtMy40Miw2Ljg4LTUuMzMsMTQuNjItNS4zMywyMi44MnMxLjkyLDE1Ljk0LDUuMzMsMjIuODJIMTQuMjF2LTQ1LjY0aDM3LjAyWiIgY2xhc3M9ImNscy0zIi8+JiN4YTsgICAgICA8cGF0aCBkPSJtNTEuMjMsMTIwLjg0SDE0LjIxYy0xLjEsMC0yLS45LTItMnYtNDUuNjRjMC0xLjEuOS0yLDItMmgzNy4wMmMuNjksMCwxLjMzLjM2LDEuNy45NXMuNCwxLjMyLjA5LDEuOTRjLTMuNCw2Ljg1LTUuMTIsMTQuMjItNS4xMiwyMS45M3MxLjcyLDE1LjA5LDUuMTIsMjEuOTNjLjMxLjYyLjI3LDEuMzUtLjA5LDEuOTQtLjM2LjU5LTEuMDEuOTUtMS43Ljk1Wm0tMzUuMDItNGgzMS45Yy0yLjc5LTYuNTgtNC4yMS0xMy41Ni00LjIxLTIwLjgyczEuNDEtMTQuMjUsNC4yMS0yMC44MmgtMzEuOXY0MS42NFoiIGNsYXNzPSJjbHMtMiIvPiYjeGE7ICAgIDwvZz4mI3hhOyAgICA8Zz4mI3hhOyAgICAgIDxwYXRoIGQ9Im0xNzcuNzIsNzMuMTl2NDUuNjRoLTM0LjM0YzMuNDEtNi44OCw1LjMzLTE0LjYyLDUuMzMtMjIuODJzLTEuOTItMTUuOTQtNS4zMy0yMi44MmgzNC4zNFoiIGNsYXNzPSJjbHMtMyIvPiYjeGE7ICAgICAgPHBhdGggZD0ibTE3Ny43MiwxMjAuODRoLTM0LjM0Yy0uNjksMC0xLjMzLS4zNi0xLjctLjk1LS4zNi0uNTktLjQtMS4zMi0uMDktMS45NCwzLjQtNi44NSw1LjEyLTE0LjIzLDUuMTItMjEuOTNzLTEuNzItMTUuMDktNS4xMi0yMS45M2MtLjMxLS42Mi0uMjctMS4zNS4wOS0xLjk0LjM2LS41OSwxLjAxLS45NSwxLjctLjk1aDM0LjM0YzEuMSwwLDIsLjksMiwydjQ1LjY0YzAsMS4xLS45LDItMiwyWm0tMzEuMjItNGgyOS4yMnYtNDEuNjRoLTI5LjIyYzIuNzksNi41OCw0LjIxLDEzLjU2LDQuMjEsMjAuODJzLTEuNDEsMTQuMjUtNC4yMSwyMC44MloiIGNsYXNzPSJjbHMtMiIvPiYjeGE7ICAgIDwvZz4mI3hhOyAgPC9nPiYjeGE7ICA8Zz4mI3hhOyAgICA8cGF0aCBkPSJtOTYuMDYsMTEwLjMxYzExLjQ2LDAsMjIuNTQsMS42NSwzMyw0LjczIiBjbGFzcz0iY2xzLTEiLz4mI3hhOyAgICA8cGF0aCBkPSJtMTM0LjA2LDk2LjAxYzAsNi45Mi0xLjg1LDEzLjQxLTUuMDgsMTktNi41NywxMS4zNC0xOC44MywxOC45Ny0zMi44OSwxOC45N1Y1OC4wNWMxNC4yMiwwLDI2LjYxLDcuODIsMzMuMTIsMTkuMzksMy4wNSw1LjQyLDQuODEsMTEuNjYsNC44NSwxOC4zMSwwLC4wOSwwLC4xOCwwLC4yN1oiIGNsYXNzPSJjbHMtMSIvPiYjeGE7ICAgIDxwYXRoIGQ9Im05Ni4wNiw1OC4xYzEyLjk5LDcuNjQsMjEuNzEsMjEuNzYsMjEuNzEsMzcuOTJzLTguNzIsMzAuMjgtMjEuNzEsMzcuOTIiIGNsYXNzPSJjbHMtMSIvPiYjeGE7ICAgIDxwYXRoIGQ9Im0xMjkuMjUsNzcuNDJjLTEwLjUxLDMuMS0yMS42NCw0Ljc3LTMzLjE2LDQuNzciIGNsYXNzPSJjbHMtMSIvPiYjeGE7ICAgIDxwYXRoIGQ9Im05Ni4xLDExMC4zMWMtMTEuNDYsMC0yMi41NCwxLjY1LTMzLDQuNzMiIGNsYXNzPSJjbHMtMSIvPiYjeGE7ICAgIDxwYXRoIGQ9Im01OC4xLDk2LjAxYzAsNi45MiwxLjg1LDEzLjQxLDUuMDgsMTksNi41NywxMS4zNCwxOC44MywxOC45NywzMi44OSwxOC45N1Y1OC4wNWMtMTQuMjIsMC0yNi42MSw3LjgyLTMzLjEyLDE5LjM5LTMuMDUsNS40Mi00LjgxLDExLjY2LTQuODUsMTguMzEsMCwuMDksMCwuMTgsMCwuMjdaIiBjbGFzcz0iY2xzLTEiLz4mI3hhOyAgICA8cGF0aCBkPSJtOTYuMSw1OC4xYy0xMi45OSw3LjY0LTIxLjcxLDIxLjc2LTIxLjcxLDM3LjkyczguNzIsMzAuMjgsMjEuNzEsMzcuOTIiIGNsYXNzPSJjbHMtMSIvPiYjeGE7ICAgIDxwYXRoIGQ9Im02Mi45MSw3Ny40MmMxMC41MSwzLjEsMjEuNjQsNC43NywzMy4xNiw0Ljc3IiBjbGFzcz0iY2xzLTEiLz4mI3hhOyAgICA8bGluZSB5Mj0iOTUuNzUiIHgyPSIxMzQuMDUiIHkxPSI5NS43NSIgeDE9IjU4LjExIiBjbGFzcz0iY2xzLTEiLz4mI3hhOyAgPC9nPiYjeGE7PC9zdmc+" vertex="1" parent="zNKvcdYB46odwFU9yiKE-1">
          <mxGeometry x="422.3" y="408.25" width="93.53" height="78.5" as="geometry" />
        </mxCell>
      </root>
    </mxGraphModel>
  </diagram>
  <diagram name="fgt-single-vm-vnet-peering" id="WVyh5MvKGmN8RQsnId8P">
    <mxGraphModel dx="1306" dy="929" grid="1" gridSize="10" guides="1" tooltips="1" connect="1" arrows="1" fold="1" page="1" pageScale="1" pageWidth="1169" pageHeight="827" math="0" shadow="0">
      <root>
        <mxCell id="-i5Seh6Ps2-eGDYUu5fO-0" />
        <mxCell id="-i5Seh6Ps2-eGDYUu5fO-1" parent="-i5Seh6Ps2-eGDYUu5fO-0" />
        <mxCell id="-i5Seh6Ps2-eGDYUu5fO-2" style="vsdxID=7;fillColor=#ffffff;gradientColor=none;fillOpacity=0;strokeOpacity=0;shape=stencil(pZPRDoIgFIafhlt35Cy1y2b2Hi4xWSYOteztg7EMNXVMrg7w/4fv3zgE46ZIa0YoNK0Ud/biWVsQPBNKeVUwyVtVEUwIxrmQ7CZFV2VmX6daqauHeOoOvfGBdlB427uLEZa8soToReGy9tpJ09Uf1MHRXl+vP3q2pxtyOpbjjAVnMHDaZj94QbQHX/lD+xrd4izZF+ONef8kBKd44JQGnOBhF/nqp5pgwyomrGJN/4uqfxOS87I0AzagqGI6UerITCMmHw==);spacingTop=-3;spacingBottom=-3;spacingLeft=-3;spacingRight=-3;labelBackgroundColor=none;rounded=0;html=1;whiteSpace=wrap;" parent="-i5Seh6Ps2-eGDYUu5fO-1" vertex="1">
          <mxGeometry x="193" y="101" width="918" height="626" as="geometry" />
        </mxCell>
        <mxCell id="-i5Seh6Ps2-eGDYUu5fO-29" value="" style="rounded=1;whiteSpace=wrap;html=1;sketch=0;fontSize=10;strokeColor=#007fff;fillColor=#FFFFFF;gradientColor=none;gradientDirection=south;absoluteArcSize=1;arcSize=4;fontFamily=Helvetica;" parent="-i5Seh6Ps2-eGDYUu5fO-1" vertex="1">
          <mxGeometry x="820" y="150" width="250" height="320" as="geometry" />
        </mxCell>
        <mxCell id="-i5Seh6Ps2-eGDYUu5fO-30" style="vsdxID=114;fillColor=#f0f0f0;gradientColor=none;shape=stencil(fZPdcoMgEIWfhlsHWDXhspMmL9AncJRUplYzxDSapw9xpfyExCvcPQe+XVgCu3NbnSTh9Dzq4UdeVTO2BD4J56pvpVajWRHYE9gdBy2/9XDpG/w/VUbJ6RKRDXrYQ81ppesvdZMYoxmwTYEJdP4Of48TpzWPqXndIcvFEjigtr5oFLNQbX+zQlDvgxzzE7f5crM6eLDBBPa8AlYBWAsrHAH9MBCd6j1gsc3ybQAdWp6hhTA9iMBDTkZphPmqMIgNkGpcAts5/ssoy3fUzuDKyFnI7VcWl2JR/X5F9C9Z3a0kDIlX4a45hp/Ce5/5cy0QKiDZnwTl+5drFsuI4PCorsMJ8/PxSJkQjiPs7w==);strokeColor=#bfbfbf;spacingTop=-3;spacingBottom=-3;spacingLeft=-3;spacingRight=-3;labelBackgroundColor=none;rounded=1;html=1;whiteSpace=wrap;" parent="-i5Seh6Ps2-eGDYUu5fO-1" vertex="1">
          <mxGeometry x="844.33" y="192.5" width="207" height="210" as="geometry" />
        </mxCell>
        <mxCell id="-i5Seh6Ps2-eGDYUu5fO-31" value="w" style="rounded=1;whiteSpace=wrap;html=1;sketch=0;fontSize=10;strokeColor=#007fff;fillColor=#FFFFFF;gradientColor=none;gradientDirection=south;absoluteArcSize=1;arcSize=4;fontFamily=Helvetica;" parent="-i5Seh6Ps2-eGDYUu5fO-1" vertex="1">
          <mxGeometry x="133" y="150" width="597" height="320" as="geometry" />
        </mxCell>
        <mxCell id="-i5Seh6Ps2-eGDYUu5fO-32" value="" style="vsdxID=12;fillColor=#f0f0f0;gradientColor=none;shape=stencil(hZNRcoMgEIZPwysDrJjw2EmTC/QETqSVqdUMMa3p6UtcNIAk9Qn+/Ve+XVgCu3NTnTQR7DzY/lP/mHpoCLwSIUzXaGsGtyKwJ7B7763+sP2lq3F/qpxTsEnRNebwm1uwyh7fzK9GjVHgG4kBzPzqv28njj6OoevsVsUkHNB7vFg089g9b2nBVPCVJcZHMcfLjc8Q0Q9G8MRUFt4AoWE6nr04gtZ0Aa3a0kLGxM9wlaIgEuSY0DmUShAfFQXrFMi1Lccd5CwKk/+wLyl3SW5X/EuFXuIsaXLYNIg9j3iDe8kkZN7F/aJ5ShHf/FWsa4HYAdkOZSifv123mIYEx8e0Lc5YGE+Hykk4kLD/Aw==);strokeColor=#bfbfbf;spacingTop=-3;spacingBottom=-3;spacingLeft=-3;spacingRight=-3;labelBackgroundColor=none;rounded=1;html=1;whiteSpace=wrap;arcSize=17;" parent="-i5Seh6Ps2-eGDYUu5fO-1" vertex="1">
          <mxGeometry x="474" y="190" width="206" height="210" as="geometry" />
        </mxCell>
        <mxCell id="-i5Seh6Ps2-eGDYUu5fO-33" value="&lt;p style=&quot;align:center;margin-left:0;margin-right:0;margin-top:0px;margin-bottom:0px;text-indent:0;valign:middle;direction:ltr;&quot;&gt;&lt;font style=&quot;font-size:9px;font-family:Arial;color:#000000;direction:ltr;letter-spacing:0px;line-height:100%;opacity:1&quot;&gt;Internal&lt;/font&gt;&lt;/p&gt;" style="text;vsdxID=11;fillColor=none;gradientColor=none;strokeColor=none;spacingTop=-3;spacingBottom=-3;spacingLeft=-3;spacingRight=-3;labelBackgroundColor=none;rounded=1;html=1;whiteSpace=wrap;verticalAlign=middle;align=center;;html=1;" parent="-i5Seh6Ps2-eGDYUu5fO-1" vertex="1">
          <mxGeometry x="485.94660194174753" y="207.88865671641793" width="184.49417475728154" height="18.576119402985075" as="geometry" />
        </mxCell>
        <mxCell id="-i5Seh6Ps2-eGDYUu5fO-34" value="&lt;span style=&quot;&quot;&gt;172.16.136.64/26&amp;nbsp;&lt;/span&gt;" style="text;html=1;strokeColor=none;fillColor=none;align=right;verticalAlign=middle;whiteSpace=wrap;rounded=0;fontFamily=Helvetica;fontSize=10;" parent="-i5Seh6Ps2-eGDYUu5fO-1" vertex="1">
          <mxGeometry x="588.252427184466" y="372.2089552238806" width="91.74757281553397" height="27.791044776119403" as="geometry" />
        </mxCell>
        <mxCell id="-i5Seh6Ps2-eGDYUu5fO-35" value="&lt;font color=&quot;#000000&quot;&gt;Public IP Address&lt;/font&gt;" style="aspect=fixed;html=1;points=[];align=center;image;fontSize=12;image=img/lib/azure2/networking/Public_IP_Addresses.svg;rounded=1;sketch=0;strokeColor=#007fff;fillColor=#FFFFFF;gradientColor=none;gradientDirection=south;fontFamily=Helvetica;fontColor=#999999;" parent="-i5Seh6Ps2-eGDYUu5fO-1" vertex="1">
          <mxGeometry x="100" y="207.8900000000001" width="65" height="52" as="geometry" />
        </mxCell>
        <mxCell id="-i5Seh6Ps2-eGDYUu5fO-36" value="&lt;span style=&quot;font-size: 13px;&quot;&gt;HUB - Virtual Network&amp;nbsp;&lt;/span&gt;&lt;br style=&quot;font-size: 13px;&quot;&gt;&lt;span style=&quot;font-size: 13px;&quot;&gt;172.16.136.0/24&amp;nbsp;&lt;/span&gt;" style="text;html=1;strokeColor=none;fillColor=none;align=right;verticalAlign=middle;whiteSpace=wrap;rounded=0;sketch=0;fontSize=4;labelPosition=center;verticalLabelPosition=middle;horizontal=1;fontFamily=Helvetica;" parent="-i5Seh6Ps2-eGDYUu5fO-1" vertex="1">
          <mxGeometry x="154.5" y="409" width="495.5" height="50" as="geometry" />
        </mxCell>
        <mxCell id="-i5Seh6Ps2-eGDYUu5fO-37" value="" style="aspect=fixed;html=1;points=[];align=center;image;fontSize=12;image=img/lib/azure2/networking/Virtual_Networks.svg;rounded=1;sketch=0;strokeColor=#007fff;fillColor=#FFFFFF;gradientColor=none;gradientDirection=south;fontFamily=Helvetica;" parent="-i5Seh6Ps2-eGDYUu5fO-1" vertex="1">
          <mxGeometry x="660.7033333333331" y="416.8399999999999" width="57.548333333333325" height="34.32833333333333" as="geometry" />
        </mxCell>
        <mxCell id="-i5Seh6Ps2-eGDYUu5fO-38" value="" style="vsdxID=12;fillColor=#f0f0f0;gradientColor=none;shape=stencil(hZNRcoMgEIZPwysDrJjw2EmTC/QETqSVqdUMMa3p6UtcNIAk9Qn+/Ve+XVgCu3NTnTQR7DzY/lP/mHpoCLwSIUzXaGsGtyKwJ7B7763+sP2lq3F/qpxTsEnRNebwm1uwyh7fzK9GjVHgG4kBzPzqv28njj6OoevsVsUkHNB7vFg089g9b2nBVPCVJcZHMcfLjc8Q0Q9G8MRUFt4AoWE6nr04gtZ0Aa3a0kLGxM9wlaIgEuSY0DmUShAfFQXrFMi1Lccd5CwKk/+wLyl3SW5X/EuFXuIsaXLYNIg9j3iDe8kkZN7F/aJ5ShHf/FWsa4HYAdkOZSifv123mIYEx8e0Lc5YGE+Hykk4kLD/Aw==);strokeColor=#bfbfbf;spacingTop=-3;spacingBottom=-3;spacingLeft=-3;spacingRight=-3;labelBackgroundColor=none;rounded=1;html=1;whiteSpace=wrap;" parent="-i5Seh6Ps2-eGDYUu5fO-1" vertex="1">
          <mxGeometry x="183" y="189" width="206" height="211" as="geometry" />
        </mxCell>
        <mxCell id="-i5Seh6Ps2-eGDYUu5fO-39" value="" style="group" parent="-i5Seh6Ps2-eGDYUu5fO-1" vertex="1" connectable="0">
          <mxGeometry x="183" y="190" width="206" height="210" as="geometry" />
        </mxCell>
        <mxCell id="-i5Seh6Ps2-eGDYUu5fO-40" value="&lt;p style=&quot;align:center;margin-left:0;margin-right:0;margin-top:0px;margin-bottom:0px;text-indent:0;valign:middle;direction:ltr;&quot;&gt;&lt;font style=&quot;font-size:9px;font-family:Arial;color:#000000;direction:ltr;letter-spacing:0px;line-height:100%;opacity:1&quot;&gt;External&lt;/font&gt;&lt;/p&gt;" style="text;vsdxID=11;fillColor=none;gradientColor=none;strokeColor=none;spacingTop=-3;spacingBottom=-3;spacingLeft=-3;spacingRight=-3;labelBackgroundColor=none;rounded=1;html=1;whiteSpace=wrap;verticalAlign=middle;align=center;;html=1;" parent="-i5Seh6Ps2-eGDYUu5fO-39" vertex="1">
          <mxGeometry x="12.699999999999989" y="7.666567164179098" width="180.98" height="7.961194029850745" as="geometry" />
        </mxCell>
        <mxCell id="-i5Seh6Ps2-eGDYUu5fO-41" value="&lt;span style=&quot;&quot;&gt;&amp;nbsp;172.16.136.0/26&lt;/span&gt;" style="text;html=1;strokeColor=none;fillColor=none;align=left;verticalAlign=middle;whiteSpace=wrap;rounded=0;fontFamily=Helvetica;fontSize=10;" parent="-i5Seh6Ps2-eGDYUu5fO-39" vertex="1">
          <mxGeometry y="180" width="90" height="30" as="geometry" />
        </mxCell>
        <mxCell id="-i5Seh6Ps2-eGDYUu5fO-42" style="vsdxID=156;edgeStyle=orthogonalEdgeStyle;startArrow=none;endArrow=none;startSize=5;endSize=5;strokeColor=#000000;spacingTop=-3;spacingBottom=-3;spacingLeft=-3;spacingRight=-3;verticalAlign=middle;html=1;labelBackgroundColor=none;rounded=1;curved=1;exitX=0.977;exitY=0.538;exitDx=0;exitDy=0;exitPerimeter=0;" parent="-i5Seh6Ps2-eGDYUu5fO-1" source="-i5Seh6Ps2-eGDYUu5fO-35" target="-i5Seh6Ps2-eGDYUu5fO-47" edge="1">
          <mxGeometry relative="1" as="geometry">
            <Array as="points">
              <mxPoint x="223" y="236" />
              <mxPoint x="223" y="290" />
            </Array>
            <mxPoint x="63" y="289.5000000000001" as="sourcePoint" />
            <mxPoint x="217" y="367" as="targetPoint" />
          </mxGeometry>
        </mxCell>
        <mxCell id="-i5Seh6Ps2-eGDYUu5fO-50" style="vsdxID=113;fillColor=none;gradientColor=none;strokeColor=none;spacingTop=-3;spacingBottom=-3;spacingLeft=-3;spacingRight=-3;labelBackgroundColor=none;rounded=1;html=1;whiteSpace=wrap;" parent="-i5Seh6Ps2-eGDYUu5fO-1" vertex="1">
          <mxGeometry x="844.33" y="192.5" width="207" height="210" as="geometry" />
        </mxCell>
        <mxCell id="-i5Seh6Ps2-eGDYUu5fO-51" value="&lt;p style=&quot;align:center;margin-left:0;margin-right:0;margin-top:0px;margin-bottom:0px;text-indent:0;valign:middle;direction:ltr;&quot;&gt;&lt;font style=&quot;font-size:9px;font-family:Arial;color:#000000;direction:ltr;letter-spacing:0px;line-height:100%;opacity:1&quot;&gt;Protected A&lt;br/&gt;&lt;/font&gt;&lt;/p&gt;" style="text;vsdxID=113;fillColor=none;gradientColor=none;strokeColor=none;spacingTop=-3;spacingBottom=-3;spacingLeft=-3;spacingRight=-3;labelBackgroundColor=none;rounded=1;html=1;whiteSpace=wrap;verticalAlign=middle;align=center;;html=1;" parent="-i5Seh6Ps2-eGDYUu5fO-50" vertex="1">
          <mxGeometry x="12.7" y="10.482278481012658" width="182.88" height="11.253164556962025" as="geometry" />
        </mxCell>
        <mxCell id="-i5Seh6Ps2-eGDYUu5fO-52" style="vsdxID=117;fillColor=none;gradientColor=none;fillOpacity=0;strokeOpacity=0;spacingTop=-3;spacingBottom=-3;spacingLeft=-3;spacingRight=-3;labelBackgroundColor=none;rounded=1;strokeColor=none;html=1;whiteSpace=wrap;" parent="-i5Seh6Ps2-eGDYUu5fO-50" vertex="1">
          <mxGeometry x="96" y="186.07594936708858" width="111" height="23.924050632911392" as="geometry" />
        </mxCell>
        <mxCell id="-i5Seh6Ps2-eGDYUu5fO-53" style="vsdxID=118;fillColor=#ffffff;gradientColor=none;fillOpacity=0;strokeOpacity=0;shape=stencil(hZNNcsMgDIVPw5YRkn+XnTS5QE/giWnN1LUzxGmdnr6ORaYoJSkrkN6DT4AUbY5dc7AK4Tj58d1+uXbqFD0rRDd01rtpmSnaKtq8jt6++fE0tLw+NIsSYY3Ylj3mokZo/P7FfVuOgSZT5pxg58f4eTlxDnlOncMORufFGtmxeH/yrDZSHpa5hrKORsXpGcN2GsPRZxT+mXiJuiqCgGLBejo8LQC9GyLautSmEMTwiLaudCmB4QYQQANKxHs1UcJCyWtLgAsXh6pKZ9kjeuG5VpTpGmUNUZFxVZnEjm+O/sjuYUfvk/YkqH/f3CRw5D+4EsdlkVRQ8rYSrP/85GWy9gx3k+t7brk4f9tjS4j7k7Y/);spacingTop=-3;spacingBottom=-3;spacingLeft=-3;spacingRight=-3;labelBackgroundColor=none;rounded=1;html=1;whiteSpace=wrap;" parent="-i5Seh6Ps2-eGDYUu5fO-52" vertex="1">
          <mxGeometry width="111" height="23.924050632911392" as="geometry" />
        </mxCell>
        <mxCell id="-i5Seh6Ps2-eGDYUu5fO-54" value="&lt;p style=&quot;align:right;margin-left:0;margin-right:0;margin-top:0px;margin-bottom:0px;text-indent:0;valign:middle;direction:ltr;&quot;&gt;&lt;font style=&quot;font-family: Arial; color: rgb(0, 0, 0); direction: ltr; letter-spacing: 0px; line-height: 100%; opacity: 1; font-size: 13px;&quot;&gt;172.16.137.0/26&amp;nbsp;&lt;/font&gt;&lt;/p&gt;" style="text;vsdxID=117;fillColor=none;gradientColor=none;fillOpacity=0;strokeOpacity=0;spacingTop=-3;spacingBottom=-3;spacingLeft=-3;spacingRight=-3;labelBackgroundColor=none;rounded=1;strokeColor=none;html=1;whiteSpace=wrap;verticalAlign=middle;align=right;;html=1;" parent="-i5Seh6Ps2-eGDYUu5fO-52" vertex="1">
          <mxGeometry y="-0.3721518987341772" width="111.13" height="24.756962025316454" as="geometry" />
        </mxCell>
        <mxCell id="-i5Seh6Ps2-eGDYUu5fO-55" value="" style="aspect=fixed;html=1;points=[];align=center;image;fontSize=12;image=img/lib/azure2/networking/Route_Tables.svg;rounded=1;sketch=0;strokeColor=#007fff;fillColor=#FFFFFF;gradientColor=none;gradientDirection=south;fontFamily=Helvetica;" parent="-i5Seh6Ps2-eGDYUu5fO-50" vertex="1">
          <mxGeometry x="4" y="177.2151898734177" width="29.267088607594935" height="28.354430379746834" as="geometry" />
        </mxCell>
        <mxCell id="-i5Seh6Ps2-eGDYUu5fO-56" value="" style="aspect=fixed;html=1;points=[];align=center;image;fontSize=12;image=img/lib/azure2/networking/Virtual_Networks.svg;rounded=1;sketch=0;strokeColor=#007fff;fillColor=#FFFFFF;gradientColor=none;gradientDirection=south;fontFamily=Helvetica;" parent="-i5Seh6Ps2-eGDYUu5fO-1" vertex="1">
          <mxGeometry x="1002.4533333333331" y="424.66999999999996" width="57.548333333333325" height="34.32833333333333" as="geometry" />
        </mxCell>
        <mxCell id="-i5Seh6Ps2-eGDYUu5fO-57" value="&lt;span style=&quot;font-size: 13px;&quot;&gt;Spoke 1 - Virtual Network&amp;nbsp;&lt;/span&gt;&lt;br style=&quot;font-size: 13px;&quot;&gt;&lt;span style=&quot;font-size: 13px;&quot;&gt;172.16.137.0/24&amp;nbsp;&lt;/span&gt;" style="text;html=1;strokeColor=none;fillColor=none;align=right;verticalAlign=middle;whiteSpace=wrap;rounded=0;sketch=0;fontSize=4;labelPosition=center;verticalLabelPosition=middle;horizontal=1;fontFamily=Helvetica;" parent="-i5Seh6Ps2-eGDYUu5fO-1" vertex="1">
          <mxGeometry x="830" y="416.8299999999999" width="172.45" height="50" as="geometry" />
        </mxCell>
        <mxCell id="-i5Seh6Ps2-eGDYUu5fO-58" value="" style="endArrow=none;html=1;rounded=0;entryX=0;entryY=0.5;entryDx=0;entryDy=0;exitX=1;exitY=0.5;exitDx=0;exitDy=0;" parent="-i5Seh6Ps2-eGDYUu5fO-1" source="-i5Seh6Ps2-eGDYUu5fO-31" target="-i5Seh6Ps2-eGDYUu5fO-29" edge="1">
          <mxGeometry width="50" height="50" relative="1" as="geometry">
            <mxPoint x="730" y="320" as="sourcePoint" />
            <mxPoint x="780" y="270" as="targetPoint" />
          </mxGeometry>
        </mxCell>
        <mxCell id="-i5Seh6Ps2-eGDYUu5fO-59" value="VNET&lt;div&gt;Peering&lt;/div&gt;" style="edgeLabel;html=1;align=center;verticalAlign=middle;resizable=0;points=[];" parent="-i5Seh6Ps2-eGDYUu5fO-58" vertex="1" connectable="0">
          <mxGeometry x="0.1333" y="-3" relative="1" as="geometry">
            <mxPoint as="offset" />
          </mxGeometry>
        </mxCell>
        <mxCell id="-i5Seh6Ps2-eGDYUu5fO-44" value=".4" style="text;html=1;strokeColor=none;fillColor=none;align=center;verticalAlign=middle;whiteSpace=wrap;rounded=0;fontSize=13;movable=1;resizable=1;rotatable=1;deletable=1;editable=1;connectable=1;direction=east;container=0;" parent="-i5Seh6Ps2-eGDYUu5fO-1" vertex="1">
          <mxGeometry x="358.68" y="312" width="24" height="30" as="geometry" />
        </mxCell>
        <mxCell id="-i5Seh6Ps2-eGDYUu5fO-45" value=".68" style="text;html=1;strokeColor=none;fillColor=none;align=center;verticalAlign=middle;whiteSpace=wrap;rounded=0;fontSize=13;movable=1;resizable=1;rotatable=1;deletable=1;editable=1;connectable=1;direction=east;container=0;" parent="-i5Seh6Ps2-eGDYUu5fO-1" vertex="1">
          <mxGeometry x="480.56999999999994" y="312" width="24" height="30" as="geometry" />
        </mxCell>
        <mxCell id="-i5Seh6Ps2-eGDYUu5fO-46" value="" style="group" parent="-i5Seh6Ps2-eGDYUu5fO-1" vertex="1" connectable="0">
          <mxGeometry x="352.99999999999994" y="250" width="156.13000000000005" height="95" as="geometry" />
        </mxCell>
        <mxCell id="-i5Seh6Ps2-eGDYUu5fO-47" value="" style="aspect=fixed;html=1;points=[];align=center;image;fontSize=12;image=img/lib/azure2/networking/Network_Interfaces.svg;strokeWidth=2;rotation=-180;movable=1;resizable=1;rotatable=1;deletable=1;editable=1;connectable=1;direction=east;container=0;" parent="-i5Seh6Ps2-eGDYUu5fO-46" vertex="1">
          <mxGeometry y="32" width="35.13" height="31" as="geometry" />
        </mxCell>
        <mxCell id="-i5Seh6Ps2-eGDYUu5fO-48" value="" style="aspect=fixed;html=1;points=[];align=center;image;fontSize=12;image=img/lib/azure2/networking/Network_Interfaces.svg;strokeWidth=2;movable=1;resizable=1;rotatable=1;deletable=1;editable=1;connectable=1;direction=east;container=0;" parent="-i5Seh6Ps2-eGDYUu5fO-46" vertex="1">
          <mxGeometry x="121.00000000000006" y="32" width="35.13" height="31" as="geometry" />
        </mxCell>
        <mxCell id="Amjm35tBuacjqKwUKSRR-0" value="" style="shape=image;verticalLabelPosition=bottom;verticalAlign=top;imageAspect=0;aspect=fixed;image=data:image/svg+xml,PHN2ZyB4bWxucz0iaHR0cDovL3d3dy53My5vcmcvMjAwMC9zdmciIHZpZXdCb3g9IjEyLjIwMDAwMDc2MjkzOTQ1MyAyNS41Mjk5OTg3NzkyOTY4NzUgMTY3LjYwMDAwNjEwMzUxNTYyIDE0MC45NzAwMTY0Nzk0OTIyIiBkYXRhLW5hbWU9IlNlY3VyaXR5IE5ldHdvcmtpbmciIGlkPSJTZWN1cml0eV9OZXR3b3JraW5nIiB3aWR0aD0iMTY3LjYwMDAwNjEwMzUxNTYyIiBoZWlnaHQ9IjE0MC45NzAwMTY0Nzk0OTIyIj4mI3hhOyAgPGRlZnM+JiN4YTsgICAgPHN0eWxlPiYjeGE7ICAgICAgLmNscy0xIHsmI3hhOyAgICAgICAgZmlsbDogbm9uZTsmI3hhOyAgICAgICAgc3Ryb2tlOiAjNDY0NjQ2OyYjeGE7ICAgICAgICBzdHJva2UtbGluZWNhcDogcm91bmQ7JiN4YTsgICAgICAgIHN0cm9rZS1saW5lam9pbjogcm91bmQ7JiN4YTsgICAgICAgIHN0cm9rZS13aWR0aDogNHB4OyYjeGE7ICAgICAgfSYjeGE7JiN4YTsgICAgICAuY2xzLTIgeyYjeGE7ICAgICAgICBmaWxsOiAjNDY0NjQ2OyYjeGE7ICAgICAgfSYjeGE7JiN4YTsgICAgICAuY2xzLTIsIC5jbHMtMyB7JiN4YTsgICAgICAgIHN0cm9rZS13aWR0aDogMHB4OyYjeGE7ICAgICAgfSYjeGE7JiN4YTsgICAgICAuY2xzLTMgeyYjeGE7ICAgICAgICBmaWxsOiAjMzA3ZmUyOyYjeGE7ICAgICAgfSYjeGE7ICAgIDwvc3R5bGU+JiN4YTsgIDwvZGVmcz4mI3hhOyAgPGc+JiN4YTsgICAgPGc+JiN4YTsgICAgICA8cGF0aCBkPSJtNTUuMTEsMTI1LjM5djM5LjFoLTI5Ljc2Yy02LjE1LDAtMTEuMTQtNC45OC0xMS4xNC0xMS4xNHYtMzQuNTFoMzcuMDNjMS4xMiwyLjI4LDIuNDIsNC40NywzLjg3LDYuNTRaIiBjbGFzcz0iY2xzLTMiLz4mI3hhOyAgICAgIDxwYXRoIGQ9Im01NS4xMSwxNjYuNDloLTI5Ljc2Yy03LjI1LDAtMTMuMTUtNS44OS0xMy4xNS0xMy4xNHYtMzQuNTFjMC0xLjEuOS0yLDItMmgzNy4wM2MuNzYsMCwxLjQ2LjQzLDEuNzksMS4xMiwxLjA3LDIuMTcsMi4zMiw0LjI4LDMuNzEsNi4yNy4yNC4zNC4zNi43NC4zNiwxLjE1djM5LjFjMCwxLjEtLjksMi0yLDJabS0zOC45LTQ1LjY0djMyLjUxYzAsNS4wNCw0LjEsOS4xNCw5LjE1LDkuMTRoMjcuNzZ2LTM2LjQ4Yy0xLjEzLTEuNjYtMi4xNy0zLjM5LTMuMS01LjE2SDE2LjIxWiIgY2xhc3M9ImNscy0yIi8+JiN4YTsgICAgPC9nPiYjeGE7ICAgIDxnPiYjeGE7ICAgICAgPHBhdGggZD0ibTE3Ny43OSwxMTguODV2MzQuNTFjMCw2LjE1LTQuOTgsMTEuMTQtMTEuMTQsMTEuMTRoLTI5LjYxdi0zNS44NWMyLjQ3LTMsNC42LTYuMjgsNi4zMy05Ljc5aDM0LjQyWiIgY2xhc3M9ImNscy0zIi8+JiN4YTsgICAgICA8cGF0aCBkPSJtMTY2LjY2LDE2Ni40OWgtMjkuNjFjLTEuMSwwLTItLjktMi0ydi0zNS44NWMwLS40Ni4xNi0uOTEuNDYtMS4yNywyLjM5LTIuOSw0LjQzLTYuMDYsNi4wOC05LjQuMzQtLjY4LDEuMDMtMS4xMiwxLjc5LTEuMTJoMzQuNDJjMS4xLDAsMiwuOSwyLDJ2MzQuNTFjMCw3LjI0LTUuODksMTMuMTQtMTMuMTQsMTMuMTRabS0yNy42MS00aDI3LjYxYzUuMDQsMCw5LjE0LTQuMSw5LjE0LTkuMTR2LTMyLjUxaC0zMS4xOWMtMS41NywyLjk5LTMuNDMsNS44NS01LjU1LDguNXYzMy4xNFoiIGNsYXNzPSJjbHMtMiIvPiYjeGE7ICAgIDwvZz4mI3hhOyAgICA8Zz4mI3hhOyAgICAgIDxwYXRoIGQ9Im0xMzcuMDUsMTI4LjYzdjM1Ljg1SDU1LjEydi0zOS4wOWMuOTUsMS4zNiwxLjk3LDIuNjcsMy4wNCwzLjkzLDcuNTcsOC45LDE4LjEyLDE1LjE3LDMwLjA5LDE3LjMxLDIuOTMuNTMsNS45OC44LDkuMDcuOCwyLjQ1LDAsNC44Ny0uMTcsNy4yNC0uNTIsMTIuNDEtMS43NSwyMy4zOS03LjkxLDMxLjI5LTE2Ljg3LjQxLS40NS44MS0uOTIsMS4yLTEuNFoiIGNsYXNzPSJjbHMtMyIvPiYjeGE7ICAgICAgPHBhdGggZD0ibTEzNy4wNSwxNjYuNDhINTUuMTJjLTEuMSwwLTItLjktMi0ydi0zOS4wOWMwLS44Ny41Ny0xLjY0LDEuNC0xLjkxLjgzLS4yNiwxLjc0LjA0LDIuMjQuNzYuOTEsMS4zLDEuOSwyLjU4LDIuOTMsMy43OCw3LjQyLDguNzIsMTcuNjksMTQuNjMsMjguOTIsMTYuNjQsNS4wMi45MSwxMC41MywxLjAxLDE1LjY3LjI3LDExLjYyLTEuNjQsMjIuMy03LjQsMzAuMDgtMTYuMjEuMzktLjQ0Ljc4LS44OCwxLjE1LTEuMzQuNTMtLjY2LDEuNDItLjkxLDIuMjItLjYzLjguMjgsMS4zMywxLjA0LDEuMzMsMS44OXYzNS44NWMwLDEuMS0uOSwyLTIsMlptLTc5LjkzLTRoNzcuOTN2LTI4LjY3Yy04LjE1LDguMTUtMTguNzYsMTMuNDctMzAuMjEsMTUuMDgtNS41NS44LTExLjUuNjktMTYuOTQtLjI5LTExLjg5LTIuMTItMjIuOC04LjMtMzAuNzgtMTcuNDJ2MzEuMzFaIiBjbGFzcz0iY2xzLTIiLz4mI3hhOyAgICA8L2c+JiN4YTsgICAgPGc+JiN4YTsgICAgICA8cGF0aCBkPSJtNTUuMTEsMjcuNTN2MzkuMTFjLTEuNDUsMi4wNy0yLjc1LDQuMjYtMy44Nyw2LjU0SDE0LjIxdi0zNC41MmMwLTYuMTUsNC45OS0xMS4xMywxMS4xNC0xMS4xM2gyOS43NloiIGNsYXNzPSJjbHMtMyIvPiYjeGE7ICAgICAgPHBhdGggZD0ibTUxLjI0LDc1LjE4SDE0LjIxYy0xLjEsMC0yLS45LTItMnYtMzQuNTJjMC03LjI0LDUuOS0xMy4xMywxMy4xNS0xMy4xM2gyOS43NmMxLjEsMCwyLC45LDIsMnYzOS4xMWMwLC40MS0uMTMuODEtLjM2LDEuMTUtMS40LDEuOTktMi42NSw0LjEtMy43MSw2LjI3LS4zNC42OC0xLjAzLDEuMTItMS43OSwxLjEyWm0tMzUuMDMtNGgzMy44Yy45My0xLjc3LDEuOTctMy41MSwzLjEtNS4xNlYyOS41M2gtMjcuNzZjLTUuMDQsMC05LjE1LDQuMS05LjE1LDkuMTN2MzIuNTJaIiBjbGFzcz0iY2xzLTIiLz4mI3hhOyAgICA8L2c+JiN4YTsgICAgPGc+JiN4YTsgICAgICA8cGF0aCBkPSJtMTc3LjcyLDM4LjY3djM0LjUyaC0zNC4zNWMtMS43My0zLjUxLTMuODYtNi43OS02LjMzLTkuNzlWMjcuNTNoMjkuNTVjNi4xNSwwLDExLjE0LDQuOTgsMTEuMTQsMTEuMTNaIiBjbGFzcz0iY2xzLTMiLz4mI3hhOyAgICAgIDxwYXRoIGQ9Im0xNzcuNzIsNzUuMThoLTM0LjM1Yy0uNzYsMC0xLjQ2LS40My0xLjc5LTEuMTItMS42NS0zLjM0LTMuNjktNi41LTYuMDgtOS40LS4yOS0uMzYtLjQ2LS44MS0uNDYtMS4yN1YyNy41M2MwLTEuMS45LTIsMi0yaDI5LjU1YzcuMjQsMCwxMy4xNCw1Ljg5LDEzLjE0LDEzLjEzdjM0LjUyYzAsMS4xLS45LDItMiwyWm0tMzMuMTMtNGgzMS4xM3YtMzIuNTJjMC01LjA0LTQuMS05LjEzLTkuMTQtOS4xM2gtMjcuNTV2MzMuMTVjMi4xMiwyLjY1LDMuOTksNS41MSw1LjU1LDguNVoiIGNsYXNzPSJjbHMtMiIvPiYjeGE7ICAgIDwvZz4mI3hhOyAgICA8Zz4mI3hhOyAgICAgIDxwYXRoIGQ9Im0xMzcuMDQsMjcuNTN2MzUuODZjLTkuNDItMTEuNDctMjMuNzItMTguNzktMzkuNzMtMTguNzktMTcuNDcsMC0zMi45MSw4LjcyLTQyLjIsMjIuMDRWMjcuNTNoODEuOTNaIiBjbGFzcz0iY2xzLTMiLz4mI3hhOyAgICAgIDxwYXRoIGQ9Im01NS4xMSw2OC42NGMtLjIsMC0uNC0uMDMtLjYtLjA5LS44My0uMjYtMS40LTEuMDMtMS40LTEuOTFWMjcuNTNjMC0xLjEuOS0yLDItMmg4MS45M2MxLjEsMCwyLC45LDIsMnYzNS44NmMwLC44NC0uNTMsMS42LTEuMzMsMS44OC0uOC4yOS0xLjY4LjA0LTIuMjItLjYxLTkuNDItMTEuNDgtMjMuMzQtMTguMDYtMzguMTktMTguMDYtMTYuMTUsMC0zMS4zMSw3LjkyLTQwLjU2LDIxLjE4LS4zOC41NS0xLC44Ni0xLjY0Ljg2Wm0yLTM5LjExdjMxLjMyYzEwLjA5LTExLjUxLDI0LjcyLTE4LjI0LDQwLjItMTguMjQsMTQuMjgsMCwyNy43Niw1LjYzLDM3LjczLDE1LjYxdi0yOC42OEg1Ny4xMVoiIGNsYXNzPSJjbHMtMiIvPiYjeGE7ICAgIDwvZz4mI3hhOyAgICA8Zz4mI3hhOyAgICAgIDxwYXRoIGQ9Im01MS4yMyw3My4xOWMtMy40Miw2Ljg4LTUuMzMsMTQuNjItNS4zMywyMi44MnMxLjkyLDE1Ljk0LDUuMzMsMjIuODJIMTQuMjF2LTQ1LjY0aDM3LjAyWiIgY2xhc3M9ImNscy0zIi8+JiN4YTsgICAgICA8cGF0aCBkPSJtNTEuMjMsMTIwLjg0SDE0LjIxYy0xLjEsMC0yLS45LTItMnYtNDUuNjRjMC0xLjEuOS0yLDItMmgzNy4wMmMuNjksMCwxLjMzLjM2LDEuNy45NXMuNCwxLjMyLjA5LDEuOTRjLTMuNCw2Ljg1LTUuMTIsMTQuMjItNS4xMiwyMS45M3MxLjcyLDE1LjA5LDUuMTIsMjEuOTNjLjMxLjYyLjI3LDEuMzUtLjA5LDEuOTQtLjM2LjU5LTEuMDEuOTUtMS43Ljk1Wm0tMzUuMDItNGgzMS45Yy0yLjc5LTYuNTgtNC4yMS0xMy41Ni00LjIxLTIwLjgyczEuNDEtMTQuMjUsNC4yMS0yMC44MmgtMzEuOXY0MS42NFoiIGNsYXNzPSJjbHMtMiIvPiYjeGE7ICAgIDwvZz4mI3hhOyAgICA8Zz4mI3hhOyAgICAgIDxwYXRoIGQ9Im0xNzcuNzIsNzMuMTl2NDUuNjRoLTM0LjM0YzMuNDEtNi44OCw1LjMzLTE0LjYyLDUuMzMtMjIuODJzLTEuOTItMTUuOTQtNS4zMy0yMi44MmgzNC4zNFoiIGNsYXNzPSJjbHMtMyIvPiYjeGE7ICAgICAgPHBhdGggZD0ibTE3Ny43MiwxMjAuODRoLTM0LjM0Yy0uNjksMC0xLjMzLS4zNi0xLjctLjk1LS4zNi0uNTktLjQtMS4zMi0uMDktMS45NCwzLjQtNi44NSw1LjEyLTE0LjIzLDUuMTItMjEuOTNzLTEuNzItMTUuMDktNS4xMi0yMS45M2MtLjMxLS42Mi0uMjctMS4zNS4wOS0xLjk0LjM2LS41OSwxLjAxLS45NSwxLjctLjk1aDM0LjM0YzEuMSwwLDIsLjksMiwydjQ1LjY0YzAsMS4xLS45LDItMiwyWm0tMzEuMjItNGgyOS4yMnYtNDEuNjRoLTI5LjIyYzIuNzksNi41OCw0LjIxLDEzLjU2LDQuMjEsMjAuODJzLTEuNDEsMTQuMjUtNC4yMSwyMC44MloiIGNsYXNzPSJjbHMtMiIvPiYjeGE7ICAgIDwvZz4mI3hhOyAgPC9nPiYjeGE7ICA8Zz4mI3hhOyAgICA8cGF0aCBkPSJtOTYuMDYsMTEwLjMxYzExLjQ2LDAsMjIuNTQsMS42NSwzMyw0LjczIiBjbGFzcz0iY2xzLTEiLz4mI3hhOyAgICA8cGF0aCBkPSJtMTM0LjA2LDk2LjAxYzAsNi45Mi0xLjg1LDEzLjQxLTUuMDgsMTktNi41NywxMS4zNC0xOC44MywxOC45Ny0zMi44OSwxOC45N1Y1OC4wNWMxNC4yMiwwLDI2LjYxLDcuODIsMzMuMTIsMTkuMzksMy4wNSw1LjQyLDQuODEsMTEuNjYsNC44NSwxOC4zMSwwLC4wOSwwLC4xOCwwLC4yN1oiIGNsYXNzPSJjbHMtMSIvPiYjeGE7ICAgIDxwYXRoIGQ9Im05Ni4wNiw1OC4xYzEyLjk5LDcuNjQsMjEuNzEsMjEuNzYsMjEuNzEsMzcuOTJzLTguNzIsMzAuMjgtMjEuNzEsMzcuOTIiIGNsYXNzPSJjbHMtMSIvPiYjeGE7ICAgIDxwYXRoIGQ9Im0xMjkuMjUsNzcuNDJjLTEwLjUxLDMuMS0yMS42NCw0Ljc3LTMzLjE2LDQuNzciIGNsYXNzPSJjbHMtMSIvPiYjeGE7ICAgIDxwYXRoIGQ9Im05Ni4xLDExMC4zMWMtMTEuNDYsMC0yMi41NCwxLjY1LTMzLDQuNzMiIGNsYXNzPSJjbHMtMSIvPiYjeGE7ICAgIDxwYXRoIGQ9Im01OC4xLDk2LjAxYzAsNi45MiwxLjg1LDEzLjQxLDUuMDgsMTksNi41NywxMS4zNCwxOC44MywxOC45NywzMi44OSwxOC45N1Y1OC4wNWMtMTQuMjIsMC0yNi42MSw3LjgyLTMzLjEyLDE5LjM5LTMuMDUsNS40Mi00LjgxLDExLjY2LTQuODUsMTguMzEsMCwuMDksMCwuMTgsMCwuMjdaIiBjbGFzcz0iY2xzLTEiLz4mI3hhOyAgICA8cGF0aCBkPSJtOTYuMSw1OC4xYy0xMi45OSw3LjY0LTIxLjcxLDIxLjc2LTIxLjcxLDM3LjkyczguNzIsMzAuMjgsMjEuNzEsMzcuOTIiIGNsYXNzPSJjbHMtMSIvPiYjeGE7ICAgIDxwYXRoIGQ9Im02Mi45MSw3Ny40MmMxMC41MSwzLjEsMjEuNjQsNC43NywzMy4xNiw0Ljc3IiBjbGFzcz0iY2xzLTEiLz4mI3hhOyAgICA8bGluZSB5Mj0iOTUuNzUiIHgyPSIxMzQuMDUiIHkxPSI5NS43NSIgeDE9IjU4LjExIiBjbGFzcz0iY2xzLTEiLz4mI3hhOyAgPC9nPiYjeGE7PC9zdmc+" vertex="1" parent="-i5Seh6Ps2-eGDYUu5fO-1">
          <mxGeometry x="384.73" y="258.25" width="93.53" height="78.5" as="geometry" />
        </mxCell>
      </root>
    </mxGraphModel>
  </diagram>
  <diagram name="fgt-single-vm-az" id="8264oSVa9FdB2fSVa5nj">
    <mxGraphModel dx="1306" dy="929" grid="1" gridSize="10" guides="1" tooltips="1" connect="1" arrows="1" fold="1" page="1" pageScale="1" pageWidth="1169" pageHeight="827" math="0" shadow="0">
      <root>
        <mxCell id="GIH2d1FqiKNFb0mKvt3j-0" />
        <mxCell id="GIH2d1FqiKNFb0mKvt3j-1" parent="GIH2d1FqiKNFb0mKvt3j-0" />
        <mxCell id="GIH2d1FqiKNFb0mKvt3j-2" style="vsdxID=7;fillColor=#ffffff;gradientColor=none;fillOpacity=0;strokeOpacity=0;shape=stencil(pZPRDoIgFIafhlt35Cy1y2b2Hi4xWSYOteztg7EMNXVMrg7w/4fv3zgE46ZIa0YoNK0Ud/biWVsQPBNKeVUwyVtVEUwIxrmQ7CZFV2VmX6daqauHeOoOvfGBdlB427uLEZa8soToReGy9tpJ09Uf1MHRXl+vP3q2pxtyOpbjjAVnMHDaZj94QbQHX/lD+xrd4izZF+ONef8kBKd44JQGnOBhF/nqp5pgwyomrGJN/4uqfxOS87I0AzagqGI6UerITCMmHw==);spacingTop=-3;spacingBottom=-3;spacingLeft=-3;spacingRight=-3;labelBackgroundColor=none;rounded=0;html=1;whiteSpace=wrap;" parent="GIH2d1FqiKNFb0mKvt3j-1" vertex="1">
          <mxGeometry x="193" y="101" width="918" height="626" as="geometry" />
        </mxCell>
        <mxCell id="GIH2d1FqiKNFb0mKvt3j-3" value="" style="rounded=1;whiteSpace=wrap;html=1;sketch=0;fontSize=10;strokeColor=#007fff;fillColor=#FFFFFF;gradientColor=none;gradientDirection=south;absoluteArcSize=1;arcSize=4;fontFamily=Helvetica;" parent="GIH2d1FqiKNFb0mKvt3j-1" vertex="1">
          <mxGeometry x="153" y="330" width="860" height="320" as="geometry" />
        </mxCell>
        <mxCell id="GIH2d1FqiKNFb0mKvt3j-4" value="" style="vsdxID=12;fillColor=#f0f0f0;gradientColor=none;shape=stencil(hZNRcoMgEIZPwysDrJjw2EmTC/QETqSVqdUMMa3p6UtcNIAk9Qn+/Ve+XVgCu3NTnTQR7DzY/lP/mHpoCLwSIUzXaGsGtyKwJ7B7763+sP2lq3F/qpxTsEnRNebwm1uwyh7fzK9GjVHgG4kBzPzqv28njj6OoevsVsUkHNB7vFg089g9b2nBVPCVJcZHMcfLjc8Q0Q9G8MRUFt4AoWE6nr04gtZ0Aa3a0kLGxM9wlaIgEuSY0DmUShAfFQXrFMi1Lccd5CwKk/+wLyl3SW5X/EuFXuIsaXLYNIg9j3iDe8kkZN7F/aJ5ShHf/FWsa4HYAdkOZSifv123mIYEx8e0Lc5YGE+Hykk4kLD/Aw==);strokeColor=#bfbfbf;spacingTop=-3;spacingBottom=-3;spacingLeft=-3;spacingRight=-3;labelBackgroundColor=none;rounded=1;html=1;whiteSpace=wrap;arcSize=17;" parent="GIH2d1FqiKNFb0mKvt3j-1" vertex="1">
          <mxGeometry x="494" y="370" width="206" height="210" as="geometry" />
        </mxCell>
        <mxCell id="GIH2d1FqiKNFb0mKvt3j-5" value="&lt;p style=&quot;align:center;margin-left:0;margin-right:0;margin-top:0px;margin-bottom:0px;text-indent:0;valign:middle;direction:ltr;&quot;&gt;&lt;font style=&quot;font-size:9px;font-family:Arial;color:#000000;direction:ltr;letter-spacing:0px;line-height:100%;opacity:1&quot;&gt;Internal&lt;/font&gt;&lt;/p&gt;" style="text;vsdxID=11;fillColor=none;gradientColor=none;strokeColor=none;spacingTop=-3;spacingBottom=-3;spacingLeft=-3;spacingRight=-3;labelBackgroundColor=none;rounded=1;html=1;whiteSpace=wrap;verticalAlign=middle;align=center;;html=1;" parent="GIH2d1FqiKNFb0mKvt3j-1" vertex="1">
          <mxGeometry x="505.94660194174753" y="387.8886567164179" width="184.49417475728154" height="18.576119402985075" as="geometry" />
        </mxCell>
        <mxCell id="GIH2d1FqiKNFb0mKvt3j-6" value="&lt;span style=&quot;&quot;&gt;172.16.136.64/26&amp;nbsp;&lt;/span&gt;" style="text;html=1;strokeColor=none;fillColor=none;align=right;verticalAlign=middle;whiteSpace=wrap;rounded=0;fontFamily=Helvetica;fontSize=10;" parent="GIH2d1FqiKNFb0mKvt3j-1" vertex="1">
          <mxGeometry x="608.252427184466" y="552.2089552238806" width="91.74757281553397" height="27.791044776119403" as="geometry" />
        </mxCell>
        <mxCell id="GIH2d1FqiKNFb0mKvt3j-7" value="&lt;font color=&quot;#000000&quot;&gt;Public IP Address&lt;/font&gt;" style="aspect=fixed;html=1;points=[];align=center;image;fontSize=12;image=img/lib/azure2/networking/Public_IP_Addresses.svg;rounded=1;sketch=0;strokeColor=#007fff;fillColor=#FFFFFF;gradientColor=none;gradientDirection=south;fontFamily=Helvetica;fontColor=#999999;" parent="GIH2d1FqiKNFb0mKvt3j-1" vertex="1">
          <mxGeometry x="100" y="449.00000000000006" width="65" height="52" as="geometry" />
        </mxCell>
        <mxCell id="GIH2d1FqiKNFb0mKvt3j-8" value="&lt;span style=&quot;font-size: 13px;&quot;&gt;Virtual Network&amp;nbsp;&lt;/span&gt;&lt;br style=&quot;font-size: 13px;&quot;&gt;&lt;span style=&quot;font-size: 13px;&quot;&gt;172.16.136.0/22&amp;nbsp;&lt;/span&gt;" style="text;html=1;strokeColor=none;fillColor=none;align=right;verticalAlign=middle;whiteSpace=wrap;rounded=0;sketch=0;fontSize=4;labelPosition=center;verticalLabelPosition=middle;horizontal=1;fontFamily=Helvetica;" parent="GIH2d1FqiKNFb0mKvt3j-1" vertex="1">
          <mxGeometry x="174.5" y="589" width="766.83" height="50" as="geometry" />
        </mxCell>
        <mxCell id="GIH2d1FqiKNFb0mKvt3j-9" value="" style="aspect=fixed;html=1;points=[];align=center;image;fontSize=12;image=img/lib/azure2/networking/Virtual_Networks.svg;rounded=1;sketch=0;strokeColor=#007fff;fillColor=#FFFFFF;gradientColor=none;gradientDirection=south;fontFamily=Helvetica;" parent="GIH2d1FqiKNFb0mKvt3j-1" vertex="1">
          <mxGeometry x="941.3333333333333" y="596.8399999999999" width="57.548333333333325" height="34.32833333333333" as="geometry" />
        </mxCell>
        <mxCell id="GIH2d1FqiKNFb0mKvt3j-10" style="vsdxID=113;fillColor=none;gradientColor=none;strokeColor=none;spacingTop=-3;spacingBottom=-3;spacingLeft=-3;spacingRight=-3;labelBackgroundColor=none;rounded=1;html=1;whiteSpace=wrap;" parent="GIH2d1FqiKNFb0mKvt3j-1" vertex="1">
          <mxGeometry x="743" y="370" width="207" height="210" as="geometry" />
        </mxCell>
        <mxCell id="GIH2d1FqiKNFb0mKvt3j-11" style="vsdxID=114;fillColor=#f0f0f0;gradientColor=none;shape=stencil(fZPdcoMgEIWfhlsHWDXhspMmL9AncJRUplYzxDSapw9xpfyExCvcPQe+XVgCu3NbnSTh9Dzq4UdeVTO2BD4J56pvpVajWRHYE9gdBy2/9XDpG/w/VUbJ6RKRDXrYQ81ppesvdZMYoxmwTYEJdP4Of48TpzWPqXndIcvFEjigtr5oFLNQbX+zQlDvgxzzE7f5crM6eLDBBPa8AlYBWAsrHAH9MBCd6j1gsc3ybQAdWp6hhTA9iMBDTkZphPmqMIgNkGpcAts5/ssoy3fUzuDKyFnI7VcWl2JR/X5F9C9Z3a0kDIlX4a45hp/Ce5/5cy0QKiDZnwTl+5drFsuI4PCorsMJ8/PxSJkQjiPs7w==);strokeColor=#bfbfbf;spacingTop=-3;spacingBottom=-3;spacingLeft=-3;spacingRight=-3;labelBackgroundColor=none;rounded=1;html=1;whiteSpace=wrap;" parent="GIH2d1FqiKNFb0mKvt3j-10" vertex="1">
          <mxGeometry width="207" height="210" as="geometry" />
        </mxCell>
        <mxCell id="GIH2d1FqiKNFb0mKvt3j-12" value="&lt;p style=&quot;align:center;margin-left:0;margin-right:0;margin-top:0px;margin-bottom:0px;text-indent:0;valign:middle;direction:ltr;&quot;&gt;&lt;font style=&quot;font-size:9px;font-family:Arial;color:#000000;direction:ltr;letter-spacing:0px;line-height:100%;opacity:1&quot;&gt;Protected A&lt;br/&gt;&lt;/font&gt;&lt;/p&gt;" style="text;vsdxID=113;fillColor=none;gradientColor=none;strokeColor=none;spacingTop=-3;spacingBottom=-3;spacingLeft=-3;spacingRight=-3;labelBackgroundColor=none;rounded=1;html=1;whiteSpace=wrap;verticalAlign=middle;align=center;;html=1;" parent="GIH2d1FqiKNFb0mKvt3j-10" vertex="1">
          <mxGeometry x="12.7" y="10.482278481012658" width="182.88" height="11.253164556962025" as="geometry" />
        </mxCell>
        <mxCell id="GIH2d1FqiKNFb0mKvt3j-13" style="vsdxID=117;fillColor=none;gradientColor=none;fillOpacity=0;strokeOpacity=0;spacingTop=-3;spacingBottom=-3;spacingLeft=-3;spacingRight=-3;labelBackgroundColor=none;rounded=1;strokeColor=none;html=1;whiteSpace=wrap;" parent="GIH2d1FqiKNFb0mKvt3j-10" vertex="1">
          <mxGeometry x="96" y="186.07594936708858" width="111" height="23.924050632911392" as="geometry" />
        </mxCell>
        <mxCell id="GIH2d1FqiKNFb0mKvt3j-14" style="vsdxID=118;fillColor=#ffffff;gradientColor=none;fillOpacity=0;strokeOpacity=0;shape=stencil(hZNNcsMgDIVPw5YRkn+XnTS5QE/giWnN1LUzxGmdnr6ORaYoJSkrkN6DT4AUbY5dc7AK4Tj58d1+uXbqFD0rRDd01rtpmSnaKtq8jt6++fE0tLw+NIsSYY3Ylj3mokZo/P7FfVuOgSZT5pxg58f4eTlxDnlOncMORufFGtmxeH/yrDZSHpa5hrKORsXpGcN2GsPRZxT+mXiJuiqCgGLBejo8LQC9GyLautSmEMTwiLaudCmB4QYQQANKxHs1UcJCyWtLgAsXh6pKZ9kjeuG5VpTpGmUNUZFxVZnEjm+O/sjuYUfvk/YkqH/f3CRw5D+4EsdlkVRQ8rYSrP/85GWy9gx3k+t7brk4f9tjS4j7k7Y/);spacingTop=-3;spacingBottom=-3;spacingLeft=-3;spacingRight=-3;labelBackgroundColor=none;rounded=1;html=1;whiteSpace=wrap;" parent="GIH2d1FqiKNFb0mKvt3j-13" vertex="1">
          <mxGeometry width="111" height="23.924050632911392" as="geometry" />
        </mxCell>
        <mxCell id="GIH2d1FqiKNFb0mKvt3j-15" value="&lt;p style=&quot;align:right;margin-left:0;margin-right:0;margin-top:0px;margin-bottom:0px;text-indent:0;valign:middle;direction:ltr;&quot;&gt;&lt;font style=&quot;font-family: Arial; color: rgb(0, 0, 0); direction: ltr; letter-spacing: 0px; line-height: 100%; opacity: 1; font-size: 13px;&quot;&gt;172.16.137.0/24&amp;nbsp;&lt;/font&gt;&lt;/p&gt;" style="text;vsdxID=117;fillColor=none;gradientColor=none;fillOpacity=0;strokeOpacity=0;spacingTop=-3;spacingBottom=-3;spacingLeft=-3;spacingRight=-3;labelBackgroundColor=none;rounded=1;strokeColor=none;html=1;whiteSpace=wrap;verticalAlign=middle;align=right;;html=1;" parent="GIH2d1FqiKNFb0mKvt3j-13" vertex="1">
          <mxGeometry y="-0.3721518987341772" width="111.13" height="24.756962025316454" as="geometry" />
        </mxCell>
        <mxCell id="GIH2d1FqiKNFb0mKvt3j-16" value="" style="aspect=fixed;html=1;points=[];align=center;image;fontSize=12;image=img/lib/azure2/networking/Route_Tables.svg;rounded=1;sketch=0;strokeColor=#007fff;fillColor=#FFFFFF;gradientColor=none;gradientDirection=south;fontFamily=Helvetica;" parent="GIH2d1FqiKNFb0mKvt3j-10" vertex="1">
          <mxGeometry x="4" y="177.2151898734177" width="29.267088607594935" height="28.354430379746834" as="geometry" />
        </mxCell>
        <mxCell id="GIH2d1FqiKNFb0mKvt3j-17" value="" style="vsdxID=12;fillColor=#f0f0f0;gradientColor=none;shape=stencil(hZNRcoMgEIZPwysDrJjw2EmTC/QETqSVqdUMMa3p6UtcNIAk9Qn+/Ve+XVgCu3NTnTQR7DzY/lP/mHpoCLwSIUzXaGsGtyKwJ7B7763+sP2lq3F/qpxTsEnRNebwm1uwyh7fzK9GjVHgG4kBzPzqv28njj6OoevsVsUkHNB7vFg089g9b2nBVPCVJcZHMcfLjc8Q0Q9G8MRUFt4AoWE6nr04gtZ0Aa3a0kLGxM9wlaIgEuSY0DmUShAfFQXrFMi1Lccd5CwKk/+wLyl3SW5X/EuFXuIsaXLYNIg9j3iDe8kkZN7F/aJ5ShHf/FWsa4HYAdkOZSifv123mIYEx8e0Lc5YGE+Hykk4kLD/Aw==);strokeColor=#bfbfbf;spacingTop=-3;spacingBottom=-3;spacingLeft=-3;spacingRight=-3;labelBackgroundColor=none;rounded=1;html=1;whiteSpace=wrap;" parent="GIH2d1FqiKNFb0mKvt3j-1" vertex="1">
          <mxGeometry x="203" y="369" width="206" height="211" as="geometry" />
        </mxCell>
        <mxCell id="GIH2d1FqiKNFb0mKvt3j-18" value="" style="group" parent="GIH2d1FqiKNFb0mKvt3j-1" vertex="1" connectable="0">
          <mxGeometry x="203" y="370" width="507" height="210" as="geometry" />
        </mxCell>
        <mxCell id="GIH2d1FqiKNFb0mKvt3j-19" value="&lt;p style=&quot;align:center;margin-left:0;margin-right:0;margin-top:0px;margin-bottom:0px;text-indent:0;valign:middle;direction:ltr;&quot;&gt;&lt;font style=&quot;font-size:9px;font-family:Arial;color:#000000;direction:ltr;letter-spacing:0px;line-height:100%;opacity:1&quot;&gt;External&lt;/font&gt;&lt;/p&gt;" style="text;vsdxID=11;fillColor=none;gradientColor=none;strokeColor=none;spacingTop=-3;spacingBottom=-3;spacingLeft=-3;spacingRight=-3;labelBackgroundColor=none;rounded=1;html=1;whiteSpace=wrap;verticalAlign=middle;align=center;;html=1;" parent="GIH2d1FqiKNFb0mKvt3j-18" vertex="1">
          <mxGeometry x="12.699999999999989" y="7.666567164179098" width="180.98" height="7.961194029850745" as="geometry" />
        </mxCell>
        <mxCell id="GIH2d1FqiKNFb0mKvt3j-20" value="&lt;span style=&quot;&quot;&gt;&amp;nbsp;172.16.136.0/26&lt;/span&gt;" style="text;html=1;strokeColor=none;fillColor=none;align=left;verticalAlign=middle;whiteSpace=wrap;rounded=0;fontFamily=Helvetica;fontSize=10;" parent="GIH2d1FqiKNFb0mKvt3j-18" vertex="1">
          <mxGeometry y="180" width="90" height="30" as="geometry" />
        </mxCell>
        <mxCell id="eB45qNHYJneKJyf1W0ct-0" value="" style="rounded=0;whiteSpace=wrap;html=1;fillColor=none;strokeWidth=2;dashed=1;strokeColor=#007FFF;" parent="GIH2d1FqiKNFb0mKvt3j-18" vertex="1">
          <mxGeometry x="-13" y="45" width="520" height="120" as="geometry" />
        </mxCell>
        <mxCell id="eB45qNHYJneKJyf1W0ct-1" value="&amp;nbsp; &amp;nbsp; Availability Zone 1" style="text;html=1;strokeColor=none;fillColor=none;align=left;verticalAlign=middle;whiteSpace=wrap;rounded=0;fontSize=11;movable=1;resizable=1;rotatable=1;deletable=1;editable=1;connectable=1;direction=east;container=0;fontColor=#000000;" parent="GIH2d1FqiKNFb0mKvt3j-18" vertex="1">
          <mxGeometry x="-13" y="45" width="114" height="30" as="geometry" />
        </mxCell>
        <mxCell id="GIH2d1FqiKNFb0mKvt3j-21" style="vsdxID=156;startArrow=none;endArrow=none;startSize=5;endSize=5;strokeColor=#000000;spacingTop=-3;spacingBottom=-3;spacingLeft=-3;spacingRight=-3;verticalAlign=middle;html=1;labelBackgroundColor=none;rounded=1;exitX=0.977;exitY=0.538;exitDx=0;exitDy=0;exitPerimeter=0;" parent="GIH2d1FqiKNFb0mKvt3j-1" source="GIH2d1FqiKNFb0mKvt3j-7" target="GIH2d1FqiKNFb0mKvt3j-26" edge="1">
          <mxGeometry relative="1" as="geometry">
            <mxPoint x="83" y="469.5000000000001" as="sourcePoint" />
            <mxPoint x="237" y="547" as="targetPoint" />
          </mxGeometry>
        </mxCell>
        <mxCell id="GIH2d1FqiKNFb0mKvt3j-23" value=".4" style="text;html=1;strokeColor=none;fillColor=none;align=center;verticalAlign=middle;whiteSpace=wrap;rounded=0;fontSize=13;movable=1;resizable=1;rotatable=1;deletable=1;editable=1;connectable=1;direction=east;container=0;" parent="GIH2d1FqiKNFb0mKvt3j-1" vertex="1">
          <mxGeometry x="378.68" y="492" width="24" height="30" as="geometry" />
        </mxCell>
        <mxCell id="GIH2d1FqiKNFb0mKvt3j-24" value=".68" style="text;html=1;strokeColor=none;fillColor=none;align=center;verticalAlign=middle;whiteSpace=wrap;rounded=0;fontSize=13;movable=1;resizable=1;rotatable=1;deletable=1;editable=1;connectable=1;direction=east;container=0;" parent="GIH2d1FqiKNFb0mKvt3j-1" vertex="1">
          <mxGeometry x="500.56999999999994" y="492" width="24" height="30" as="geometry" />
        </mxCell>
        <mxCell id="GIH2d1FqiKNFb0mKvt3j-25" value="" style="group" parent="GIH2d1FqiKNFb0mKvt3j-1" vertex="1" connectable="0">
          <mxGeometry x="372.99999999999994" y="430" width="156.13000000000005" height="95" as="geometry" />
        </mxCell>
        <mxCell id="GIH2d1FqiKNFb0mKvt3j-26" value="" style="aspect=fixed;html=1;points=[];align=center;image;fontSize=12;image=img/lib/azure2/networking/Network_Interfaces.svg;strokeWidth=2;rotation=-180;movable=1;resizable=1;rotatable=1;deletable=1;editable=1;connectable=1;direction=east;container=0;" parent="GIH2d1FqiKNFb0mKvt3j-25" vertex="1">
          <mxGeometry y="32" width="35.13" height="31" as="geometry" />
        </mxCell>
        <mxCell id="GIH2d1FqiKNFb0mKvt3j-27" value="" style="aspect=fixed;html=1;points=[];align=center;image;fontSize=12;image=img/lib/azure2/networking/Network_Interfaces.svg;strokeWidth=2;movable=1;resizable=1;rotatable=1;deletable=1;editable=1;connectable=1;direction=east;container=0;" parent="GIH2d1FqiKNFb0mKvt3j-25" vertex="1">
          <mxGeometry x="121.00000000000006" y="32" width="35.13" height="31" as="geometry" />
        </mxCell>
        <mxCell id="FxxwXpjzcfAf76msIT_v-1" value="" style="shape=image;verticalLabelPosition=bottom;verticalAlign=top;imageAspect=0;aspect=fixed;image=data:image/svg+xml,PHN2ZyB4bWxucz0iaHR0cDovL3d3dy53My5vcmcvMjAwMC9zdmciIHZpZXdCb3g9IjEyLjIwMDAwMDc2MjkzOTQ1MyAyNS41Mjk5OTg3NzkyOTY4NzUgMTY3LjYwMDAwNjEwMzUxNTYyIDE0MC45NzAwMTY0Nzk0OTIyIiBkYXRhLW5hbWU9IlNlY3VyaXR5IE5ldHdvcmtpbmciIGlkPSJTZWN1cml0eV9OZXR3b3JraW5nIiB3aWR0aD0iMTY3LjYwMDAwNjEwMzUxNTYyIiBoZWlnaHQ9IjE0MC45NzAwMTY0Nzk0OTIyIj4mI3hhOyAgPGRlZnM+JiN4YTsgICAgPHN0eWxlPiYjeGE7ICAgICAgLmNscy0xIHsmI3hhOyAgICAgICAgZmlsbDogbm9uZTsmI3hhOyAgICAgICAgc3Ryb2tlOiAjNDY0NjQ2OyYjeGE7ICAgICAgICBzdHJva2UtbGluZWNhcDogcm91bmQ7JiN4YTsgICAgICAgIHN0cm9rZS1saW5lam9pbjogcm91bmQ7JiN4YTsgICAgICAgIHN0cm9rZS13aWR0aDogNHB4OyYjeGE7ICAgICAgfSYjeGE7JiN4YTsgICAgICAuY2xzLTIgeyYjeGE7ICAgICAgICBmaWxsOiAjNDY0NjQ2OyYjeGE7ICAgICAgfSYjeGE7JiN4YTsgICAgICAuY2xzLTIsIC5jbHMtMyB7JiN4YTsgICAgICAgIHN0cm9rZS13aWR0aDogMHB4OyYjeGE7ICAgICAgfSYjeGE7JiN4YTsgICAgICAuY2xzLTMgeyYjeGE7ICAgICAgICBmaWxsOiAjMzA3ZmUyOyYjeGE7ICAgICAgfSYjeGE7ICAgIDwvc3R5bGU+JiN4YTsgIDwvZGVmcz4mI3hhOyAgPGc+JiN4YTsgICAgPGc+JiN4YTsgICAgICA8cGF0aCBkPSJtNTUuMTEsMTI1LjM5djM5LjFoLTI5Ljc2Yy02LjE1LDAtMTEuMTQtNC45OC0xMS4xNC0xMS4xNHYtMzQuNTFoMzcuMDNjMS4xMiwyLjI4LDIuNDIsNC40NywzLjg3LDYuNTRaIiBjbGFzcz0iY2xzLTMiLz4mI3hhOyAgICAgIDxwYXRoIGQ9Im01NS4xMSwxNjYuNDloLTI5Ljc2Yy03LjI1LDAtMTMuMTUtNS44OS0xMy4xNS0xMy4xNHYtMzQuNTFjMC0xLjEuOS0yLDItMmgzNy4wM2MuNzYsMCwxLjQ2LjQzLDEuNzksMS4xMiwxLjA3LDIuMTcsMi4zMiw0LjI4LDMuNzEsNi4yNy4yNC4zNC4zNi43NC4zNiwxLjE1djM5LjFjMCwxLjEtLjksMi0yLDJabS0zOC45LTQ1LjY0djMyLjUxYzAsNS4wNCw0LjEsOS4xNCw5LjE1LDkuMTRoMjcuNzZ2LTM2LjQ4Yy0xLjEzLTEuNjYtMi4xNy0zLjM5LTMuMS01LjE2SDE2LjIxWiIgY2xhc3M9ImNscy0yIi8+JiN4YTsgICAgPC9nPiYjeGE7ICAgIDxnPiYjeGE7ICAgICAgPHBhdGggZD0ibTE3Ny43OSwxMTguODV2MzQuNTFjMCw2LjE1LTQuOTgsMTEuMTQtMTEuMTQsMTEuMTRoLTI5LjYxdi0zNS44NWMyLjQ3LTMsNC42LTYuMjgsNi4zMy05Ljc5aDM0LjQyWiIgY2xhc3M9ImNscy0zIi8+JiN4YTsgICAgICA8cGF0aCBkPSJtMTY2LjY2LDE2Ni40OWgtMjkuNjFjLTEuMSwwLTItLjktMi0ydi0zNS44NWMwLS40Ni4xNi0uOTEuNDYtMS4yNywyLjM5LTIuOSw0LjQzLTYuMDYsNi4wOC05LjQuMzQtLjY4LDEuMDMtMS4xMiwxLjc5LTEuMTJoMzQuNDJjMS4xLDAsMiwuOSwyLDJ2MzQuNTFjMCw3LjI0LTUuODksMTMuMTQtMTMuMTQsMTMuMTRabS0yNy42MS00aDI3LjYxYzUuMDQsMCw5LjE0LTQuMSw5LjE0LTkuMTR2LTMyLjUxaC0zMS4xOWMtMS41NywyLjk5LTMuNDMsNS44NS01LjU1LDguNXYzMy4xNFoiIGNsYXNzPSJjbHMtMiIvPiYjeGE7ICAgIDwvZz4mI3hhOyAgICA8Zz4mI3hhOyAgICAgIDxwYXRoIGQ9Im0xMzcuMDUsMTI4LjYzdjM1Ljg1SDU1LjEydi0zOS4wOWMuOTUsMS4zNiwxLjk3LDIuNjcsMy4wNCwzLjkzLDcuNTcsOC45LDE4LjEyLDE1LjE3LDMwLjA5LDE3LjMxLDIuOTMuNTMsNS45OC44LDkuMDcuOCwyLjQ1LDAsNC44Ny0uMTcsNy4yNC0uNTIsMTIuNDEtMS43NSwyMy4zOS03LjkxLDMxLjI5LTE2Ljg3LjQxLS40NS44MS0uOTIsMS4yLTEuNFoiIGNsYXNzPSJjbHMtMyIvPiYjeGE7ICAgICAgPHBhdGggZD0ibTEzNy4wNSwxNjYuNDhINTUuMTJjLTEuMSwwLTItLjktMi0ydi0zOS4wOWMwLS44Ny41Ny0xLjY0LDEuNC0xLjkxLjgzLS4yNiwxLjc0LjA0LDIuMjQuNzYuOTEsMS4zLDEuOSwyLjU4LDIuOTMsMy43OCw3LjQyLDguNzIsMTcuNjksMTQuNjMsMjguOTIsMTYuNjQsNS4wMi45MSwxMC41MywxLjAxLDE1LjY3LjI3LDExLjYyLTEuNjQsMjIuMy03LjQsMzAuMDgtMTYuMjEuMzktLjQ0Ljc4LS44OCwxLjE1LTEuMzQuNTMtLjY2LDEuNDItLjkxLDIuMjItLjYzLjguMjgsMS4zMywxLjA0LDEuMzMsMS44OXYzNS44NWMwLDEuMS0uOSwyLTIsMlptLTc5LjkzLTRoNzcuOTN2LTI4LjY3Yy04LjE1LDguMTUtMTguNzYsMTMuNDctMzAuMjEsMTUuMDgtNS41NS44LTExLjUuNjktMTYuOTQtLjI5LTExLjg5LTIuMTItMjIuOC04LjMtMzAuNzgtMTcuNDJ2MzEuMzFaIiBjbGFzcz0iY2xzLTIiLz4mI3hhOyAgICA8L2c+JiN4YTsgICAgPGc+JiN4YTsgICAgICA8cGF0aCBkPSJtNTUuMTEsMjcuNTN2MzkuMTFjLTEuNDUsMi4wNy0yLjc1LDQuMjYtMy44Nyw2LjU0SDE0LjIxdi0zNC41MmMwLTYuMTUsNC45OS0xMS4xMywxMS4xNC0xMS4xM2gyOS43NloiIGNsYXNzPSJjbHMtMyIvPiYjeGE7ICAgICAgPHBhdGggZD0ibTUxLjI0LDc1LjE4SDE0LjIxYy0xLjEsMC0yLS45LTItMnYtMzQuNTJjMC03LjI0LDUuOS0xMy4xMywxMy4xNS0xMy4xM2gyOS43NmMxLjEsMCwyLC45LDIsMnYzOS4xMWMwLC40MS0uMTMuODEtLjM2LDEuMTUtMS40LDEuOTktMi42NSw0LjEtMy43MSw2LjI3LS4zNC42OC0xLjAzLDEuMTItMS43OSwxLjEyWm0tMzUuMDMtNGgzMy44Yy45My0xLjc3LDEuOTctMy41MSwzLjEtNS4xNlYyOS41M2gtMjcuNzZjLTUuMDQsMC05LjE1LDQuMS05LjE1LDkuMTN2MzIuNTJaIiBjbGFzcz0iY2xzLTIiLz4mI3hhOyAgICA8L2c+JiN4YTsgICAgPGc+JiN4YTsgICAgICA8cGF0aCBkPSJtMTc3LjcyLDM4LjY3djM0LjUyaC0zNC4zNWMtMS43My0zLjUxLTMuODYtNi43OS02LjMzLTkuNzlWMjcuNTNoMjkuNTVjNi4xNSwwLDExLjE0LDQuOTgsMTEuMTQsMTEuMTNaIiBjbGFzcz0iY2xzLTMiLz4mI3hhOyAgICAgIDxwYXRoIGQ9Im0xNzcuNzIsNzUuMThoLTM0LjM1Yy0uNzYsMC0xLjQ2LS40My0xLjc5LTEuMTItMS42NS0zLjM0LTMuNjktNi41LTYuMDgtOS40LS4yOS0uMzYtLjQ2LS44MS0uNDYtMS4yN1YyNy41M2MwLTEuMS45LTIsMi0yaDI5LjU1YzcuMjQsMCwxMy4xNCw1Ljg5LDEzLjE0LDEzLjEzdjM0LjUyYzAsMS4xLS45LDItMiwyWm0tMzMuMTMtNGgzMS4xM3YtMzIuNTJjMC01LjA0LTQuMS05LjEzLTkuMTQtOS4xM2gtMjcuNTV2MzMuMTVjMi4xMiwyLjY1LDMuOTksNS41MSw1LjU1LDguNVoiIGNsYXNzPSJjbHMtMiIvPiYjeGE7ICAgIDwvZz4mI3hhOyAgICA8Zz4mI3hhOyAgICAgIDxwYXRoIGQ9Im0xMzcuMDQsMjcuNTN2MzUuODZjLTkuNDItMTEuNDctMjMuNzItMTguNzktMzkuNzMtMTguNzktMTcuNDcsMC0zMi45MSw4LjcyLTQyLjIsMjIuMDRWMjcuNTNoODEuOTNaIiBjbGFzcz0iY2xzLTMiLz4mI3hhOyAgICAgIDxwYXRoIGQ9Im01NS4xMSw2OC42NGMtLjIsMC0uNC0uMDMtLjYtLjA5LS44My0uMjYtMS40LTEuMDMtMS40LTEuOTFWMjcuNTNjMC0xLjEuOS0yLDItMmg4MS45M2MxLjEsMCwyLC45LDIsMnYzNS44NmMwLC44NC0uNTMsMS42LTEuMzMsMS44OC0uOC4yOS0xLjY4LjA0LTIuMjItLjYxLTkuNDItMTEuNDgtMjMuMzQtMTguMDYtMzguMTktMTguMDYtMTYuMTUsMC0zMS4zMSw3LjkyLTQwLjU2LDIxLjE4LS4zOC41NS0xLC44Ni0xLjY0Ljg2Wm0yLTM5LjExdjMxLjMyYzEwLjA5LTExLjUxLDI0LjcyLTE4LjI0LDQwLjItMTguMjQsMTQuMjgsMCwyNy43Niw1LjYzLDM3LjczLDE1LjYxdi0yOC42OEg1Ny4xMVoiIGNsYXNzPSJjbHMtMiIvPiYjeGE7ICAgIDwvZz4mI3hhOyAgICA8Zz4mI3hhOyAgICAgIDxwYXRoIGQ9Im01MS4yMyw3My4xOWMtMy40Miw2Ljg4LTUuMzMsMTQuNjItNS4zMywyMi44MnMxLjkyLDE1Ljk0LDUuMzMsMjIuODJIMTQuMjF2LTQ1LjY0aDM3LjAyWiIgY2xhc3M9ImNscy0zIi8+JiN4YTsgICAgICA8cGF0aCBkPSJtNTEuMjMsMTIwLjg0SDE0LjIxYy0xLjEsMC0yLS45LTItMnYtNDUuNjRjMC0xLjEuOS0yLDItMmgzNy4wMmMuNjksMCwxLjMzLjM2LDEuNy45NXMuNCwxLjMyLjA5LDEuOTRjLTMuNCw2Ljg1LTUuMTIsMTQuMjItNS4xMiwyMS45M3MxLjcyLDE1LjA5LDUuMTIsMjEuOTNjLjMxLjYyLjI3LDEuMzUtLjA5LDEuOTQtLjM2LjU5LTEuMDEuOTUtMS43Ljk1Wm0tMzUuMDItNGgzMS45Yy0yLjc5LTYuNTgtNC4yMS0xMy41Ni00LjIxLTIwLjgyczEuNDEtMTQuMjUsNC4yMS0yMC44MmgtMzEuOXY0MS42NFoiIGNsYXNzPSJjbHMtMiIvPiYjeGE7ICAgIDwvZz4mI3hhOyAgICA8Zz4mI3hhOyAgICAgIDxwYXRoIGQ9Im0xNzcuNzIsNzMuMTl2NDUuNjRoLTM0LjM0YzMuNDEtNi44OCw1LjMzLTE0LjYyLDUuMzMtMjIuODJzLTEuOTItMTUuOTQtNS4zMy0yMi44MmgzNC4zNFoiIGNsYXNzPSJjbHMtMyIvPiYjeGE7ICAgICAgPHBhdGggZD0ibTE3Ny43MiwxMjAuODRoLTM0LjM0Yy0uNjksMC0xLjMzLS4zNi0xLjctLjk1LS4zNi0uNTktLjQtMS4zMi0uMDktMS45NCwzLjQtNi44NSw1LjEyLTE0LjIzLDUuMTItMjEuOTNzLTEuNzItMTUuMDktNS4xMi0yMS45M2MtLjMxLS42Mi0uMjctMS4zNS4wOS0xLjk0LjM2LS41OSwxLjAxLS45NSwxLjctLjk1aDM0LjM0YzEuMSwwLDIsLjksMiwydjQ1LjY0YzAsMS4xLS45LDItMiwyWm0tMzEuMjItNGgyOS4yMnYtNDEuNjRoLTI5LjIyYzIuNzksNi41OCw0LjIxLDEzLjU2LDQuMjEsMjAuODJzLTEuNDEsMTQuMjUtNC4yMSwyMC44MloiIGNsYXNzPSJjbHMtMiIvPiYjeGE7ICAgIDwvZz4mI3hhOyAgPC9nPiYjeGE7ICA8Zz4mI3hhOyAgICA8cGF0aCBkPSJtOTYuMDYsMTEwLjMxYzExLjQ2LDAsMjIuNTQsMS42NSwzMyw0LjczIiBjbGFzcz0iY2xzLTEiLz4mI3hhOyAgICA8cGF0aCBkPSJtMTM0LjA2LDk2LjAxYzAsNi45Mi0xLjg1LDEzLjQxLTUuMDgsMTktNi41NywxMS4zNC0xOC44MywxOC45Ny0zMi44OSwxOC45N1Y1OC4wNWMxNC4yMiwwLDI2LjYxLDcuODIsMzMuMTIsMTkuMzksMy4wNSw1LjQyLDQuODEsMTEuNjYsNC44NSwxOC4zMSwwLC4wOSwwLC4xOCwwLC4yN1oiIGNsYXNzPSJjbHMtMSIvPiYjeGE7ICAgIDxwYXRoIGQ9Im05Ni4wNiw1OC4xYzEyLjk5LDcuNjQsMjEuNzEsMjEuNzYsMjEuNzEsMzcuOTJzLTguNzIsMzAuMjgtMjEuNzEsMzcuOTIiIGNsYXNzPSJjbHMtMSIvPiYjeGE7ICAgIDxwYXRoIGQ9Im0xMjkuMjUsNzcuNDJjLTEwLjUxLDMuMS0yMS42NCw0Ljc3LTMzLjE2LDQuNzciIGNsYXNzPSJjbHMtMSIvPiYjeGE7ICAgIDxwYXRoIGQ9Im05Ni4xLDExMC4zMWMtMTEuNDYsMC0yMi41NCwxLjY1LTMzLDQuNzMiIGNsYXNzPSJjbHMtMSIvPiYjeGE7ICAgIDxwYXRoIGQ9Im01OC4xLDk2LjAxYzAsNi45MiwxLjg1LDEzLjQxLDUuMDgsMTksNi41NywxMS4zNCwxOC44MywxOC45NywzMi44OSwxOC45N1Y1OC4wNWMtMTQuMjIsMC0yNi42MSw3LjgyLTMzLjEyLDE5LjM5LTMuMDUsNS40Mi00LjgxLDExLjY2LTQuODUsMTguMzEsMCwuMDksMCwuMTgsMCwuMjdaIiBjbGFzcz0iY2xzLTEiLz4mI3hhOyAgICA8cGF0aCBkPSJtOTYuMSw1OC4xYy0xMi45OSw3LjY0LTIxLjcxLDIxLjc2LTIxLjcxLDM3LjkyczguNzIsMzAuMjgsMjEuNzEsMzcuOTIiIGNsYXNzPSJjbHMtMSIvPiYjeGE7ICAgIDxwYXRoIGQ9Im02Mi45MSw3Ny40MmMxMC41MSwzLjEsMjEuNjQsNC43NywzMy4xNiw0Ljc3IiBjbGFzcz0iY2xzLTEiLz4mI3hhOyAgICA8bGluZSB5Mj0iOTUuNzUiIHgyPSIxMzQuMDUiIHkxPSI5NS43NSIgeDE9IjU4LjExIiBjbGFzcz0iY2xzLTEiLz4mI3hhOyAgPC9nPiYjeGE7PC9zdmc+" vertex="1" parent="GIH2d1FqiKNFb0mKvt3j-1">
          <mxGeometry x="404.23" y="437.75" width="93.53" height="78.5" as="geometry" />
        </mxCell>
      </root>
    </mxGraphModel>
  </diagram>
  <diagram name="fgt-single-vm-multi-region" id="A6uuBxQ9i6Yt8fwl8ElG">
    <mxGraphModel dx="2009" dy="1429" grid="1" gridSize="10" guides="1" tooltips="1" connect="1" arrows="1" fold="1" page="1" pageScale="1" pageWidth="1169" pageHeight="827" math="0" shadow="0">
      <root>
        <mxCell id="uR380l_1hicrCM-ZJrvN-0" />
        <mxCell id="uR380l_1hicrCM-ZJrvN-1" parent="uR380l_1hicrCM-ZJrvN-0" />
        <mxCell id="NduwsXCs-qqVcqc0j1wE-28" value="" style="rounded=1;whiteSpace=wrap;html=1;sketch=0;fontSize=10;strokeColor=#007fff;fillColor=#FFFFFF;gradientColor=none;gradientDirection=south;absoluteArcSize=1;arcSize=4;fontFamily=Helvetica;" parent="uR380l_1hicrCM-ZJrvN-1" vertex="1">
          <mxGeometry x="894.5" y="40" width="250" height="320" as="geometry" />
        </mxCell>
        <mxCell id="NduwsXCs-qqVcqc0j1wE-30" style="vsdxID=114;fillColor=#f0f0f0;gradientColor=none;shape=stencil(fZPdcoMgEIWfhlsHWDXhspMmL9AncJRUplYzxDSapw9xpfyExCvcPQe+XVgCu3NbnSTh9Dzq4UdeVTO2BD4J56pvpVajWRHYE9gdBy2/9XDpG/w/VUbJ6RKRDXrYQ81ppesvdZMYoxmwTYEJdP4Of48TpzWPqXndIcvFEjigtr5oFLNQbX+zQlDvgxzzE7f5crM6eLDBBPa8AlYBWAsrHAH9MBCd6j1gsc3ybQAdWp6hhTA9iMBDTkZphPmqMIgNkGpcAts5/ssoy3fUzuDKyFnI7VcWl2JR/X5F9C9Z3a0kDIlX4a45hp/Ce5/5cy0QKiDZnwTl+5drFsuI4PCorsMJ8/PxSJkQjiPs7w==);strokeColor=#bfbfbf;spacingTop=-3;spacingBottom=-3;spacingLeft=-3;spacingRight=-3;labelBackgroundColor=none;rounded=1;html=1;whiteSpace=wrap;" parent="uR380l_1hicrCM-ZJrvN-1" vertex="1">
          <mxGeometry x="918.83" y="82.5" width="207" height="210" as="geometry" />
        </mxCell>
        <mxCell id="uR380l_1hicrCM-ZJrvN-2" style="vsdxID=7;fillColor=#ffffff;gradientColor=none;fillOpacity=0;strokeOpacity=0;shape=stencil(pZPRDoIgFIafhlt35Cy1y2b2Hi4xWSYOteztg7EMNXVMrg7w/4fv3zgE46ZIa0YoNK0Ud/biWVsQPBNKeVUwyVtVEUwIxrmQ7CZFV2VmX6daqauHeOoOvfGBdlB427uLEZa8soToReGy9tpJ09Uf1MHRXl+vP3q2pxtyOpbjjAVnMHDaZj94QbQHX/lD+xrd4izZF+ONef8kBKd44JQGnOBhF/nqp5pgwyomrGJN/4uqfxOS87I0AzagqGI6UerITCMmHw==);spacingTop=-3;spacingBottom=-3;spacingLeft=-3;spacingRight=-3;labelBackgroundColor=none;rounded=0;html=1;whiteSpace=wrap;" parent="uR380l_1hicrCM-ZJrvN-1" vertex="1">
          <mxGeometry x="193" y="101" width="918" height="626" as="geometry" />
        </mxCell>
        <mxCell id="uR380l_1hicrCM-ZJrvN-3" value="" style="rounded=1;whiteSpace=wrap;html=1;sketch=0;fontSize=10;strokeColor=#007fff;fillColor=#FFFFFF;gradientColor=none;gradientDirection=south;absoluteArcSize=1;arcSize=4;fontFamily=Helvetica;" parent="uR380l_1hicrCM-ZJrvN-1" vertex="1">
          <mxGeometry x="207.5" y="40" width="597" height="320" as="geometry" />
        </mxCell>
        <mxCell id="uR380l_1hicrCM-ZJrvN-4" value="" style="vsdxID=12;fillColor=#f0f0f0;gradientColor=none;shape=stencil(hZNRcoMgEIZPwysDrJjw2EmTC/QETqSVqdUMMa3p6UtcNIAk9Qn+/Ve+XVgCu3NTnTQR7DzY/lP/mHpoCLwSIUzXaGsGtyKwJ7B7763+sP2lq3F/qpxTsEnRNebwm1uwyh7fzK9GjVHgG4kBzPzqv28njj6OoevsVsUkHNB7vFg089g9b2nBVPCVJcZHMcfLjc8Q0Q9G8MRUFt4AoWE6nr04gtZ0Aa3a0kLGxM9wlaIgEuSY0DmUShAfFQXrFMi1Lccd5CwKk/+wLyl3SW5X/EuFXuIsaXLYNIg9j3iDe8kkZN7F/aJ5ShHf/FWsa4HYAdkOZSifv123mIYEx8e0Lc5YGE+Hykk4kLD/Aw==);strokeColor=#bfbfbf;spacingTop=-3;spacingBottom=-3;spacingLeft=-3;spacingRight=-3;labelBackgroundColor=none;rounded=1;html=1;whiteSpace=wrap;arcSize=17;" parent="uR380l_1hicrCM-ZJrvN-1" vertex="1">
          <mxGeometry x="548.5" y="80" width="206" height="210" as="geometry" />
        </mxCell>
        <mxCell id="uR380l_1hicrCM-ZJrvN-5" value="&lt;p style=&quot;align:center;margin-left:0;margin-right:0;margin-top:0px;margin-bottom:0px;text-indent:0;valign:middle;direction:ltr;&quot;&gt;&lt;font style=&quot;font-size:9px;font-family:Arial;color:#000000;direction:ltr;letter-spacing:0px;line-height:100%;opacity:1&quot;&gt;Internal&lt;/font&gt;&lt;/p&gt;" style="text;vsdxID=11;fillColor=none;gradientColor=none;strokeColor=none;spacingTop=-3;spacingBottom=-3;spacingLeft=-3;spacingRight=-3;labelBackgroundColor=none;rounded=1;html=1;whiteSpace=wrap;verticalAlign=middle;align=center;;html=1;" parent="uR380l_1hicrCM-ZJrvN-1" vertex="1">
          <mxGeometry x="560.4466019417475" y="97.8886567164179" width="184.49417475728154" height="18.576119402985075" as="geometry" />
        </mxCell>
        <mxCell id="uR380l_1hicrCM-ZJrvN-6" value="&lt;span style=&quot;&quot;&gt;172.16.136.64/26&amp;nbsp;&lt;/span&gt;" style="text;html=1;strokeColor=none;fillColor=none;align=right;verticalAlign=middle;whiteSpace=wrap;rounded=0;fontFamily=Helvetica;fontSize=10;" parent="uR380l_1hicrCM-ZJrvN-1" vertex="1">
          <mxGeometry x="662.752427184466" y="262.2089552238806" width="91.74757281553397" height="27.791044776119403" as="geometry" />
        </mxCell>
        <mxCell id="uR380l_1hicrCM-ZJrvN-7" value="&lt;font color=&quot;#000000&quot;&gt;Public IP Address&lt;/font&gt;" style="aspect=fixed;html=1;points=[];align=center;image;fontSize=12;image=img/lib/azure2/networking/Public_IP_Addresses.svg;rounded=1;sketch=0;strokeColor=#007fff;fillColor=#FFFFFF;gradientColor=none;gradientDirection=south;fontFamily=Helvetica;fontColor=#999999;" parent="uR380l_1hicrCM-ZJrvN-1" vertex="1">
          <mxGeometry x="174.5" y="97.89000000000004" width="65" height="52" as="geometry" />
        </mxCell>
        <mxCell id="uR380l_1hicrCM-ZJrvN-8" value="&lt;span style=&quot;font-size: 13px;&quot;&gt;HUB - Virtual Network&amp;nbsp;&lt;/span&gt;&lt;br style=&quot;font-size: 13px;&quot;&gt;&lt;span style=&quot;font-size: 13px;&quot;&gt;172.16.136.0/24&amp;nbsp;&lt;/span&gt;" style="text;html=1;strokeColor=none;fillColor=none;align=right;verticalAlign=middle;whiteSpace=wrap;rounded=0;sketch=0;fontSize=4;labelPosition=center;verticalLabelPosition=middle;horizontal=1;fontFamily=Helvetica;" parent="uR380l_1hicrCM-ZJrvN-1" vertex="1">
          <mxGeometry x="229" y="299" width="495.5" height="50" as="geometry" />
        </mxCell>
        <mxCell id="uR380l_1hicrCM-ZJrvN-9" value="" style="aspect=fixed;html=1;points=[];align=center;image;fontSize=12;image=img/lib/azure2/networking/Virtual_Networks.svg;rounded=1;sketch=0;strokeColor=#007fff;fillColor=#FFFFFF;gradientColor=none;gradientDirection=south;fontFamily=Helvetica;" parent="uR380l_1hicrCM-ZJrvN-1" vertex="1">
          <mxGeometry x="735.2033333333331" y="306.84" width="57.548333333333325" height="34.32833333333333" as="geometry" />
        </mxCell>
        <mxCell id="uR380l_1hicrCM-ZJrvN-17" value="" style="vsdxID=12;fillColor=#f0f0f0;gradientColor=none;shape=stencil(hZNRcoMgEIZPwysDrJjw2EmTC/QETqSVqdUMMa3p6UtcNIAk9Qn+/Ve+XVgCu3NTnTQR7DzY/lP/mHpoCLwSIUzXaGsGtyKwJ7B7763+sP2lq3F/qpxTsEnRNebwm1uwyh7fzK9GjVHgG4kBzPzqv28njj6OoevsVsUkHNB7vFg089g9b2nBVPCVJcZHMcfLjc8Q0Q9G8MRUFt4AoWE6nr04gtZ0Aa3a0kLGxM9wlaIgEuSY0DmUShAfFQXrFMi1Lccd5CwKk/+wLyl3SW5X/EuFXuIsaXLYNIg9j3iDe8kkZN7F/aJ5ShHf/FWsa4HYAdkOZSifv123mIYEx8e0Lc5YGE+Hykk4kLD/Aw==);strokeColor=#bfbfbf;spacingTop=-3;spacingBottom=-3;spacingLeft=-3;spacingRight=-3;labelBackgroundColor=none;rounded=1;html=1;whiteSpace=wrap;" parent="uR380l_1hicrCM-ZJrvN-1" vertex="1">
          <mxGeometry x="257.5" y="79" width="206" height="211" as="geometry" />
        </mxCell>
        <mxCell id="uR380l_1hicrCM-ZJrvN-18" value="" style="group" parent="uR380l_1hicrCM-ZJrvN-1" vertex="1" connectable="0">
          <mxGeometry x="257.5" y="80" width="206" height="210" as="geometry" />
        </mxCell>
        <mxCell id="uR380l_1hicrCM-ZJrvN-19" value="&lt;p style=&quot;align:center;margin-left:0;margin-right:0;margin-top:0px;margin-bottom:0px;text-indent:0;valign:middle;direction:ltr;&quot;&gt;&lt;font style=&quot;font-size:9px;font-family:Arial;color:#000000;direction:ltr;letter-spacing:0px;line-height:100%;opacity:1&quot;&gt;External&lt;/font&gt;&lt;/p&gt;" style="text;vsdxID=11;fillColor=none;gradientColor=none;strokeColor=none;spacingTop=-3;spacingBottom=-3;spacingLeft=-3;spacingRight=-3;labelBackgroundColor=none;rounded=1;html=1;whiteSpace=wrap;verticalAlign=middle;align=center;;html=1;" parent="uR380l_1hicrCM-ZJrvN-18" vertex="1">
          <mxGeometry x="12.699999999999989" y="7.666567164179098" width="180.98" height="7.961194029850745" as="geometry" />
        </mxCell>
        <mxCell id="uR380l_1hicrCM-ZJrvN-20" value="&lt;span style=&quot;&quot;&gt;&amp;nbsp;172.16.136.0/26&lt;/span&gt;" style="text;html=1;strokeColor=none;fillColor=none;align=left;verticalAlign=middle;whiteSpace=wrap;rounded=0;fontFamily=Helvetica;fontSize=10;" parent="uR380l_1hicrCM-ZJrvN-18" vertex="1">
          <mxGeometry y="180" width="90" height="30" as="geometry" />
        </mxCell>
        <mxCell id="uR380l_1hicrCM-ZJrvN-21" style="vsdxID=156;edgeStyle=orthogonalEdgeStyle;startArrow=none;endArrow=none;startSize=5;endSize=5;strokeColor=#000000;spacingTop=-3;spacingBottom=-3;spacingLeft=-3;spacingRight=-3;verticalAlign=middle;html=1;labelBackgroundColor=none;rounded=1;curved=1;exitX=0.977;exitY=0.538;exitDx=0;exitDy=0;exitPerimeter=0;" parent="uR380l_1hicrCM-ZJrvN-1" source="uR380l_1hicrCM-ZJrvN-7" target="uR380l_1hicrCM-ZJrvN-26" edge="1">
          <mxGeometry relative="1" as="geometry">
            <Array as="points">
              <mxPoint x="297.5" y="126" />
              <mxPoint x="297.5" y="180" />
            </Array>
            <mxPoint x="137.5" y="179.5000000000001" as="sourcePoint" />
            <mxPoint x="291.5" y="257" as="targetPoint" />
          </mxGeometry>
        </mxCell>
        <mxCell id="NduwsXCs-qqVcqc0j1wE-27" value="Azure&lt;div&gt;Traffie Manager&lt;/div&gt;" style="aspect=fixed;html=1;points=[];align=center;image;fontSize=12;image=img/lib/azure2/networking/Traffic_Manager_Profiles.svg;rounded=1;sketch=0;strokeColor=#007fff;fillColor=#FFFFFF;gradientColor=none;gradientDirection=south;" parent="uR380l_1hicrCM-ZJrvN-1" vertex="1">
          <mxGeometry x="20" y="380" width="68" height="68" as="geometry" />
        </mxCell>
        <mxCell id="NduwsXCs-qqVcqc0j1wE-29" style="vsdxID=113;fillColor=none;gradientColor=none;strokeColor=none;spacingTop=-3;spacingBottom=-3;spacingLeft=-3;spacingRight=-3;labelBackgroundColor=none;rounded=1;html=1;whiteSpace=wrap;" parent="uR380l_1hicrCM-ZJrvN-1" vertex="1">
          <mxGeometry x="918.83" y="82.5" width="207" height="210" as="geometry" />
        </mxCell>
        <mxCell id="NduwsXCs-qqVcqc0j1wE-31" value="&lt;p style=&quot;align:center;margin-left:0;margin-right:0;margin-top:0px;margin-bottom:0px;text-indent:0;valign:middle;direction:ltr;&quot;&gt;&lt;font style=&quot;font-size:9px;font-family:Arial;color:#000000;direction:ltr;letter-spacing:0px;line-height:100%;opacity:1&quot;&gt;Protected A&lt;br/&gt;&lt;/font&gt;&lt;/p&gt;" style="text;vsdxID=113;fillColor=none;gradientColor=none;strokeColor=none;spacingTop=-3;spacingBottom=-3;spacingLeft=-3;spacingRight=-3;labelBackgroundColor=none;rounded=1;html=1;whiteSpace=wrap;verticalAlign=middle;align=center;;html=1;" parent="NduwsXCs-qqVcqc0j1wE-29" vertex="1">
          <mxGeometry x="12.7" y="10.482278481012658" width="182.88" height="11.253164556962025" as="geometry" />
        </mxCell>
        <mxCell id="NduwsXCs-qqVcqc0j1wE-32" style="vsdxID=117;fillColor=none;gradientColor=none;fillOpacity=0;strokeOpacity=0;spacingTop=-3;spacingBottom=-3;spacingLeft=-3;spacingRight=-3;labelBackgroundColor=none;rounded=1;strokeColor=none;html=1;whiteSpace=wrap;" parent="NduwsXCs-qqVcqc0j1wE-29" vertex="1">
          <mxGeometry x="96" y="186.07594936708858" width="111" height="23.924050632911392" as="geometry" />
        </mxCell>
        <mxCell id="NduwsXCs-qqVcqc0j1wE-33" style="vsdxID=118;fillColor=#ffffff;gradientColor=none;fillOpacity=0;strokeOpacity=0;shape=stencil(hZNNcsMgDIVPw5YRkn+XnTS5QE/giWnN1LUzxGmdnr6ORaYoJSkrkN6DT4AUbY5dc7AK4Tj58d1+uXbqFD0rRDd01rtpmSnaKtq8jt6++fE0tLw+NIsSYY3Ylj3mokZo/P7FfVuOgSZT5pxg58f4eTlxDnlOncMORufFGtmxeH/yrDZSHpa5hrKORsXpGcN2GsPRZxT+mXiJuiqCgGLBejo8LQC9GyLautSmEMTwiLaudCmB4QYQQANKxHs1UcJCyWtLgAsXh6pKZ9kjeuG5VpTpGmUNUZFxVZnEjm+O/sjuYUfvk/YkqH/f3CRw5D+4EsdlkVRQ8rYSrP/85GWy9gx3k+t7brk4f9tjS4j7k7Y/);spacingTop=-3;spacingBottom=-3;spacingLeft=-3;spacingRight=-3;labelBackgroundColor=none;rounded=1;html=1;whiteSpace=wrap;" parent="NduwsXCs-qqVcqc0j1wE-32" vertex="1">
          <mxGeometry width="111" height="23.924050632911392" as="geometry" />
        </mxCell>
        <mxCell id="NduwsXCs-qqVcqc0j1wE-34" value="&lt;p style=&quot;align:right;margin-left:0;margin-right:0;margin-top:0px;margin-bottom:0px;text-indent:0;valign:middle;direction:ltr;&quot;&gt;&lt;font style=&quot;font-family: Arial; color: rgb(0, 0, 0); direction: ltr; letter-spacing: 0px; line-height: 100%; opacity: 1; font-size: 13px;&quot;&gt;172.16.137.0/26&amp;nbsp;&lt;/font&gt;&lt;/p&gt;" style="text;vsdxID=117;fillColor=none;gradientColor=none;fillOpacity=0;strokeOpacity=0;spacingTop=-3;spacingBottom=-3;spacingLeft=-3;spacingRight=-3;labelBackgroundColor=none;rounded=1;strokeColor=none;html=1;whiteSpace=wrap;verticalAlign=middle;align=right;;html=1;" parent="NduwsXCs-qqVcqc0j1wE-32" vertex="1">
          <mxGeometry y="-0.3721518987341772" width="111.13" height="24.756962025316454" as="geometry" />
        </mxCell>
        <mxCell id="NduwsXCs-qqVcqc0j1wE-35" value="" style="aspect=fixed;html=1;points=[];align=center;image;fontSize=12;image=img/lib/azure2/networking/Route_Tables.svg;rounded=1;sketch=0;strokeColor=#007fff;fillColor=#FFFFFF;gradientColor=none;gradientDirection=south;fontFamily=Helvetica;" parent="NduwsXCs-qqVcqc0j1wE-29" vertex="1">
          <mxGeometry x="4" y="177.2151898734177" width="29.267088607594935" height="28.354430379746834" as="geometry" />
        </mxCell>
        <mxCell id="NduwsXCs-qqVcqc0j1wE-36" value="" style="aspect=fixed;html=1;points=[];align=center;image;fontSize=12;image=img/lib/azure2/networking/Virtual_Networks.svg;rounded=1;sketch=0;strokeColor=#007fff;fillColor=#FFFFFF;gradientColor=none;gradientDirection=south;fontFamily=Helvetica;" parent="uR380l_1hicrCM-ZJrvN-1" vertex="1">
          <mxGeometry x="1076.9533333333331" y="314.66999999999996" width="57.548333333333325" height="34.32833333333333" as="geometry" />
        </mxCell>
        <mxCell id="NduwsXCs-qqVcqc0j1wE-37" value="&lt;span style=&quot;font-size: 13px;&quot;&gt;Spoke 1 - Virtual Network&amp;nbsp;&lt;/span&gt;&lt;br style=&quot;font-size: 13px;&quot;&gt;&lt;span style=&quot;font-size: 13px;&quot;&gt;172.16.137.0/24&amp;nbsp;&lt;/span&gt;" style="text;html=1;strokeColor=none;fillColor=none;align=right;verticalAlign=middle;whiteSpace=wrap;rounded=0;sketch=0;fontSize=4;labelPosition=center;verticalLabelPosition=middle;horizontal=1;fontFamily=Helvetica;" parent="uR380l_1hicrCM-ZJrvN-1" vertex="1">
          <mxGeometry x="904.5" y="306.83" width="172.45" height="50" as="geometry" />
        </mxCell>
        <mxCell id="NduwsXCs-qqVcqc0j1wE-38" value="" style="endArrow=none;html=1;rounded=0;entryX=0;entryY=0.5;entryDx=0;entryDy=0;exitX=1;exitY=0.5;exitDx=0;exitDy=0;" parent="uR380l_1hicrCM-ZJrvN-1" source="uR380l_1hicrCM-ZJrvN-3" target="NduwsXCs-qqVcqc0j1wE-28" edge="1">
          <mxGeometry width="50" height="50" relative="1" as="geometry">
            <mxPoint x="804.5" y="210" as="sourcePoint" />
            <mxPoint x="854.5" y="160" as="targetPoint" />
          </mxGeometry>
        </mxCell>
        <mxCell id="NduwsXCs-qqVcqc0j1wE-39" value="VNET&lt;div&gt;Peering&lt;/div&gt;" style="edgeLabel;html=1;align=center;verticalAlign=middle;resizable=0;points=[];" parent="NduwsXCs-qqVcqc0j1wE-38" vertex="1" connectable="0">
          <mxGeometry x="0.1333" y="-3" relative="1" as="geometry">
            <mxPoint as="offset" />
          </mxGeometry>
        </mxCell>
        <mxCell id="H3oIZYAEWl6ergive7Da-0" value="" style="rounded=1;whiteSpace=wrap;html=1;sketch=0;fontSize=10;strokeColor=#007fff;fillColor=#FFFFFF;gradientColor=none;gradientDirection=south;absoluteArcSize=1;arcSize=4;fontFamily=Helvetica;" parent="uR380l_1hicrCM-ZJrvN-1" vertex="1">
          <mxGeometry x="894.5" y="480" width="250" height="320" as="geometry" />
        </mxCell>
        <mxCell id="H3oIZYAEWl6ergive7Da-1" style="vsdxID=114;fillColor=#f0f0f0;gradientColor=none;shape=stencil(fZPdcoMgEIWfhlsHWDXhspMmL9AncJRUplYzxDSapw9xpfyExCvcPQe+XVgCu3NbnSTh9Dzq4UdeVTO2BD4J56pvpVajWRHYE9gdBy2/9XDpG/w/VUbJ6RKRDXrYQ81ppesvdZMYoxmwTYEJdP4Of48TpzWPqXndIcvFEjigtr5oFLNQbX+zQlDvgxzzE7f5crM6eLDBBPa8AlYBWAsrHAH9MBCd6j1gsc3ybQAdWp6hhTA9iMBDTkZphPmqMIgNkGpcAts5/ssoy3fUzuDKyFnI7VcWl2JR/X5F9C9Z3a0kDIlX4a45hp/Ce5/5cy0QKiDZnwTl+5drFsuI4PCorsMJ8/PxSJkQjiPs7w==);strokeColor=#bfbfbf;spacingTop=-3;spacingBottom=-3;spacingLeft=-3;spacingRight=-3;labelBackgroundColor=none;rounded=1;html=1;whiteSpace=wrap;" parent="uR380l_1hicrCM-ZJrvN-1" vertex="1">
          <mxGeometry x="918.83" y="522.5" width="207" height="210" as="geometry" />
        </mxCell>
        <mxCell id="H3oIZYAEWl6ergive7Da-2" value="" style="rounded=1;whiteSpace=wrap;html=1;sketch=0;fontSize=10;strokeColor=#007fff;fillColor=#FFFFFF;gradientColor=none;gradientDirection=south;absoluteArcSize=1;arcSize=4;fontFamily=Helvetica;" parent="uR380l_1hicrCM-ZJrvN-1" vertex="1">
          <mxGeometry x="207.5" y="480" width="597" height="320" as="geometry" />
        </mxCell>
        <mxCell id="H3oIZYAEWl6ergive7Da-3" value="" style="vsdxID=12;fillColor=#f0f0f0;gradientColor=none;shape=stencil(hZNRcoMgEIZPwysDrJjw2EmTC/QETqSVqdUMMa3p6UtcNIAk9Qn+/Ve+XVgCu3NTnTQR7DzY/lP/mHpoCLwSIUzXaGsGtyKwJ7B7763+sP2lq3F/qpxTsEnRNebwm1uwyh7fzK9GjVHgG4kBzPzqv28njj6OoevsVsUkHNB7vFg089g9b2nBVPCVJcZHMcfLjc8Q0Q9G8MRUFt4AoWE6nr04gtZ0Aa3a0kLGxM9wlaIgEuSY0DmUShAfFQXrFMi1Lccd5CwKk/+wLyl3SW5X/EuFXuIsaXLYNIg9j3iDe8kkZN7F/aJ5ShHf/FWsa4HYAdkOZSifv123mIYEx8e0Lc5YGE+Hykk4kLD/Aw==);strokeColor=#bfbfbf;spacingTop=-3;spacingBottom=-3;spacingLeft=-3;spacingRight=-3;labelBackgroundColor=none;rounded=1;html=1;whiteSpace=wrap;arcSize=17;" parent="uR380l_1hicrCM-ZJrvN-1" vertex="1">
          <mxGeometry x="548.5" y="520" width="206" height="210" as="geometry" />
        </mxCell>
        <mxCell id="H3oIZYAEWl6ergive7Da-4" value="&lt;p style=&quot;align:center;margin-left:0;margin-right:0;margin-top:0px;margin-bottom:0px;text-indent:0;valign:middle;direction:ltr;&quot;&gt;&lt;font style=&quot;font-size:9px;font-family:Arial;color:#000000;direction:ltr;letter-spacing:0px;line-height:100%;opacity:1&quot;&gt;Internal&lt;/font&gt;&lt;/p&gt;" style="text;vsdxID=11;fillColor=none;gradientColor=none;strokeColor=none;spacingTop=-3;spacingBottom=-3;spacingLeft=-3;spacingRight=-3;labelBackgroundColor=none;rounded=1;html=1;whiteSpace=wrap;verticalAlign=middle;align=center;;html=1;" parent="uR380l_1hicrCM-ZJrvN-1" vertex="1">
          <mxGeometry x="560.4466019417475" y="537.8886567164179" width="184.49417475728154" height="18.576119402985075" as="geometry" />
        </mxCell>
        <mxCell id="H3oIZYAEWl6ergive7Da-5" value="&lt;span style=&quot;&quot;&gt;172.16.140.64/26&amp;nbsp;&lt;/span&gt;" style="text;html=1;strokeColor=none;fillColor=none;align=right;verticalAlign=middle;whiteSpace=wrap;rounded=0;fontFamily=Helvetica;fontSize=10;" parent="uR380l_1hicrCM-ZJrvN-1" vertex="1">
          <mxGeometry x="662.752427184466" y="702.2089552238806" width="91.74757281553397" height="27.791044776119403" as="geometry" />
        </mxCell>
        <mxCell id="H3oIZYAEWl6ergive7Da-6" value="&lt;font color=&quot;#000000&quot;&gt;Public IP Address&lt;/font&gt;" style="aspect=fixed;html=1;points=[];align=center;image;fontSize=12;image=img/lib/azure2/networking/Public_IP_Addresses.svg;rounded=1;sketch=0;strokeColor=#007fff;fillColor=#FFFFFF;gradientColor=none;gradientDirection=south;fontFamily=Helvetica;fontColor=#999999;" parent="uR380l_1hicrCM-ZJrvN-1" vertex="1">
          <mxGeometry x="174.5" y="537.8900000000001" width="65" height="52" as="geometry" />
        </mxCell>
        <mxCell id="H3oIZYAEWl6ergive7Da-7" value="&lt;span style=&quot;font-size: 13px;&quot;&gt;HUB - Virtual Network&amp;nbsp;&lt;/span&gt;&lt;br style=&quot;font-size: 13px;&quot;&gt;&lt;span style=&quot;font-size: 13px;&quot;&gt;172.16.140.0/24&amp;nbsp;&lt;/span&gt;" style="text;html=1;strokeColor=none;fillColor=none;align=right;verticalAlign=middle;whiteSpace=wrap;rounded=0;sketch=0;fontSize=4;labelPosition=center;verticalLabelPosition=middle;horizontal=1;fontFamily=Helvetica;" parent="uR380l_1hicrCM-ZJrvN-1" vertex="1">
          <mxGeometry x="229" y="739" width="495.5" height="50" as="geometry" />
        </mxCell>
        <mxCell id="H3oIZYAEWl6ergive7Da-8" value="" style="aspect=fixed;html=1;points=[];align=center;image;fontSize=12;image=img/lib/azure2/networking/Virtual_Networks.svg;rounded=1;sketch=0;strokeColor=#007fff;fillColor=#FFFFFF;gradientColor=none;gradientDirection=south;fontFamily=Helvetica;" parent="uR380l_1hicrCM-ZJrvN-1" vertex="1">
          <mxGeometry x="735.2033333333331" y="746.8399999999999" width="57.548333333333325" height="34.32833333333333" as="geometry" />
        </mxCell>
        <mxCell id="H3oIZYAEWl6ergive7Da-9" value="" style="vsdxID=12;fillColor=#f0f0f0;gradientColor=none;shape=stencil(hZNRcoMgEIZPwysDrJjw2EmTC/QETqSVqdUMMa3p6UtcNIAk9Qn+/Ve+XVgCu3NTnTQR7DzY/lP/mHpoCLwSIUzXaGsGtyKwJ7B7763+sP2lq3F/qpxTsEnRNebwm1uwyh7fzK9GjVHgG4kBzPzqv28njj6OoevsVsUkHNB7vFg089g9b2nBVPCVJcZHMcfLjc8Q0Q9G8MRUFt4AoWE6nr04gtZ0Aa3a0kLGxM9wlaIgEuSY0DmUShAfFQXrFMi1Lccd5CwKk/+wLyl3SW5X/EuFXuIsaXLYNIg9j3iDe8kkZN7F/aJ5ShHf/FWsa4HYAdkOZSifv123mIYEx8e0Lc5YGE+Hykk4kLD/Aw==);strokeColor=#bfbfbf;spacingTop=-3;spacingBottom=-3;spacingLeft=-3;spacingRight=-3;labelBackgroundColor=none;rounded=1;html=1;whiteSpace=wrap;" parent="uR380l_1hicrCM-ZJrvN-1" vertex="1">
          <mxGeometry x="257.5" y="519" width="206" height="211" as="geometry" />
        </mxCell>
        <mxCell id="H3oIZYAEWl6ergive7Da-10" value="" style="group" parent="uR380l_1hicrCM-ZJrvN-1" vertex="1" connectable="0">
          <mxGeometry x="257.5" y="520" width="206" height="210" as="geometry" />
        </mxCell>
        <mxCell id="H3oIZYAEWl6ergive7Da-11" value="&lt;p style=&quot;align:center;margin-left:0;margin-right:0;margin-top:0px;margin-bottom:0px;text-indent:0;valign:middle;direction:ltr;&quot;&gt;&lt;font style=&quot;font-size:9px;font-family:Arial;color:#000000;direction:ltr;letter-spacing:0px;line-height:100%;opacity:1&quot;&gt;External&lt;/font&gt;&lt;/p&gt;" style="text;vsdxID=11;fillColor=none;gradientColor=none;strokeColor=none;spacingTop=-3;spacingBottom=-3;spacingLeft=-3;spacingRight=-3;labelBackgroundColor=none;rounded=1;html=1;whiteSpace=wrap;verticalAlign=middle;align=center;;html=1;" parent="H3oIZYAEWl6ergive7Da-10" vertex="1">
          <mxGeometry x="12.699999999999989" y="7.666567164179098" width="180.98" height="7.961194029850745" as="geometry" />
        </mxCell>
        <mxCell id="H3oIZYAEWl6ergive7Da-12" value="&lt;span style=&quot;&quot;&gt;&amp;nbsp;172.16.140.0/26&lt;/span&gt;" style="text;html=1;strokeColor=none;fillColor=none;align=left;verticalAlign=middle;whiteSpace=wrap;rounded=0;fontFamily=Helvetica;fontSize=10;" parent="H3oIZYAEWl6ergive7Da-10" vertex="1">
          <mxGeometry y="180" width="90" height="30" as="geometry" />
        </mxCell>
        <mxCell id="H3oIZYAEWl6ergive7Da-13" style="vsdxID=156;edgeStyle=orthogonalEdgeStyle;startArrow=none;endArrow=none;startSize=5;endSize=5;strokeColor=#000000;spacingTop=-3;spacingBottom=-3;spacingLeft=-3;spacingRight=-3;verticalAlign=middle;html=1;labelBackgroundColor=none;rounded=1;curved=1;exitX=0.977;exitY=0.538;exitDx=0;exitDy=0;exitPerimeter=0;" parent="uR380l_1hicrCM-ZJrvN-1" source="H3oIZYAEWl6ergive7Da-6" target="H3oIZYAEWl6ergive7Da-18" edge="1">
          <mxGeometry relative="1" as="geometry">
            <Array as="points">
              <mxPoint x="297.5" y="566" />
              <mxPoint x="297.5" y="620" />
            </Array>
            <mxPoint x="137.5" y="619.5000000000001" as="sourcePoint" />
            <mxPoint x="291.5" y="697" as="targetPoint" />
          </mxGeometry>
        </mxCell>
        <mxCell id="H3oIZYAEWl6ergive7Da-21" style="vsdxID=113;fillColor=none;gradientColor=none;strokeColor=none;spacingTop=-3;spacingBottom=-3;spacingLeft=-3;spacingRight=-3;labelBackgroundColor=none;rounded=1;html=1;whiteSpace=wrap;" parent="uR380l_1hicrCM-ZJrvN-1" vertex="1">
          <mxGeometry x="918.83" y="522.5" width="207" height="210" as="geometry" />
        </mxCell>
        <mxCell id="H3oIZYAEWl6ergive7Da-22" value="&lt;p style=&quot;align:center;margin-left:0;margin-right:0;margin-top:0px;margin-bottom:0px;text-indent:0;valign:middle;direction:ltr;&quot;&gt;&lt;font style=&quot;font-size:9px;font-family:Arial;color:#000000;direction:ltr;letter-spacing:0px;line-height:100%;opacity:1&quot;&gt;Protected A&lt;br/&gt;&lt;/font&gt;&lt;/p&gt;" style="text;vsdxID=113;fillColor=none;gradientColor=none;strokeColor=none;spacingTop=-3;spacingBottom=-3;spacingLeft=-3;spacingRight=-3;labelBackgroundColor=none;rounded=1;html=1;whiteSpace=wrap;verticalAlign=middle;align=center;;html=1;" parent="H3oIZYAEWl6ergive7Da-21" vertex="1">
          <mxGeometry x="12.7" y="10.482278481012658" width="182.88" height="11.253164556962025" as="geometry" />
        </mxCell>
        <mxCell id="H3oIZYAEWl6ergive7Da-23" style="vsdxID=117;fillColor=none;gradientColor=none;fillOpacity=0;strokeOpacity=0;spacingTop=-3;spacingBottom=-3;spacingLeft=-3;spacingRight=-3;labelBackgroundColor=none;rounded=1;strokeColor=none;html=1;whiteSpace=wrap;" parent="H3oIZYAEWl6ergive7Da-21" vertex="1">
          <mxGeometry x="96" y="186.07594936708858" width="111" height="23.924050632911392" as="geometry" />
        </mxCell>
        <mxCell id="H3oIZYAEWl6ergive7Da-24" style="vsdxID=118;fillColor=#ffffff;gradientColor=none;fillOpacity=0;strokeOpacity=0;shape=stencil(hZNNcsMgDIVPw5YRkn+XnTS5QE/giWnN1LUzxGmdnr6ORaYoJSkrkN6DT4AUbY5dc7AK4Tj58d1+uXbqFD0rRDd01rtpmSnaKtq8jt6++fE0tLw+NIsSYY3Ylj3mokZo/P7FfVuOgSZT5pxg58f4eTlxDnlOncMORufFGtmxeH/yrDZSHpa5hrKORsXpGcN2GsPRZxT+mXiJuiqCgGLBejo8LQC9GyLautSmEMTwiLaudCmB4QYQQANKxHs1UcJCyWtLgAsXh6pKZ9kjeuG5VpTpGmUNUZFxVZnEjm+O/sjuYUfvk/YkqH/f3CRw5D+4EsdlkVRQ8rYSrP/85GWy9gx3k+t7brk4f9tjS4j7k7Y/);spacingTop=-3;spacingBottom=-3;spacingLeft=-3;spacingRight=-3;labelBackgroundColor=none;rounded=1;html=1;whiteSpace=wrap;" parent="H3oIZYAEWl6ergive7Da-23" vertex="1">
          <mxGeometry width="111" height="23.924050632911392" as="geometry" />
        </mxCell>
        <mxCell id="H3oIZYAEWl6ergive7Da-25" value="&lt;p style=&quot;align:right;margin-left:0;margin-right:0;margin-top:0px;margin-bottom:0px;text-indent:0;valign:middle;direction:ltr;&quot;&gt;&lt;font style=&quot;font-family: Arial; color: rgb(0, 0, 0); direction: ltr; letter-spacing: 0px; line-height: 100%; opacity: 1; font-size: 13px;&quot;&gt;172.16.141.0/26&amp;nbsp;&lt;/font&gt;&lt;/p&gt;" style="text;vsdxID=117;fillColor=none;gradientColor=none;fillOpacity=0;strokeOpacity=0;spacingTop=-3;spacingBottom=-3;spacingLeft=-3;spacingRight=-3;labelBackgroundColor=none;rounded=1;strokeColor=none;html=1;whiteSpace=wrap;verticalAlign=middle;align=right;;html=1;" parent="H3oIZYAEWl6ergive7Da-23" vertex="1">
          <mxGeometry y="-0.3721518987341772" width="111.13" height="24.756962025316454" as="geometry" />
        </mxCell>
        <mxCell id="H3oIZYAEWl6ergive7Da-26" value="" style="aspect=fixed;html=1;points=[];align=center;image;fontSize=12;image=img/lib/azure2/networking/Route_Tables.svg;rounded=1;sketch=0;strokeColor=#007fff;fillColor=#FFFFFF;gradientColor=none;gradientDirection=south;fontFamily=Helvetica;" parent="H3oIZYAEWl6ergive7Da-21" vertex="1">
          <mxGeometry x="4" y="177.2151898734177" width="29.267088607594935" height="28.354430379746834" as="geometry" />
        </mxCell>
        <mxCell id="H3oIZYAEWl6ergive7Da-27" value="" style="aspect=fixed;html=1;points=[];align=center;image;fontSize=12;image=img/lib/azure2/networking/Virtual_Networks.svg;rounded=1;sketch=0;strokeColor=#007fff;fillColor=#FFFFFF;gradientColor=none;gradientDirection=south;fontFamily=Helvetica;" parent="uR380l_1hicrCM-ZJrvN-1" vertex="1">
          <mxGeometry x="1076.9533333333331" y="754.67" width="57.548333333333325" height="34.32833333333333" as="geometry" />
        </mxCell>
        <mxCell id="H3oIZYAEWl6ergive7Da-28" value="&lt;span style=&quot;font-size: 13px;&quot;&gt;Spoke 1 - Virtual Network&amp;nbsp;&lt;/span&gt;&lt;br style=&quot;font-size: 13px;&quot;&gt;&lt;span style=&quot;font-size: 13px;&quot;&gt;172.16.141.0/24&amp;nbsp;&lt;/span&gt;" style="text;html=1;strokeColor=none;fillColor=none;align=right;verticalAlign=middle;whiteSpace=wrap;rounded=0;sketch=0;fontSize=4;labelPosition=center;verticalLabelPosition=middle;horizontal=1;fontFamily=Helvetica;" parent="uR380l_1hicrCM-ZJrvN-1" vertex="1">
          <mxGeometry x="904.5" y="746.8299999999999" width="172.45" height="50" as="geometry" />
        </mxCell>
        <mxCell id="H3oIZYAEWl6ergive7Da-29" value="" style="endArrow=none;html=1;rounded=0;entryX=0;entryY=0.5;entryDx=0;entryDy=0;exitX=1;exitY=0.5;exitDx=0;exitDy=0;" parent="uR380l_1hicrCM-ZJrvN-1" source="H3oIZYAEWl6ergive7Da-2" target="H3oIZYAEWl6ergive7Da-0" edge="1">
          <mxGeometry width="50" height="50" relative="1" as="geometry">
            <mxPoint x="804.5" y="650" as="sourcePoint" />
            <mxPoint x="854.5" y="600" as="targetPoint" />
          </mxGeometry>
        </mxCell>
        <mxCell id="H3oIZYAEWl6ergive7Da-30" value="VNET&lt;div&gt;Peering&lt;/div&gt;" style="edgeLabel;html=1;align=center;verticalAlign=middle;resizable=0;points=[];" parent="H3oIZYAEWl6ergive7Da-29" vertex="1" connectable="0">
          <mxGeometry x="0.1333" y="-3" relative="1" as="geometry">
            <mxPoint as="offset" />
          </mxGeometry>
        </mxCell>
        <mxCell id="H3oIZYAEWl6ergive7Da-31" style="edgeStyle=orthogonalEdgeStyle;rounded=0;orthogonalLoop=1;jettySize=auto;html=1;entryX=0.038;entryY=0.56;entryDx=0;entryDy=0;entryPerimeter=0;curved=1;" parent="uR380l_1hicrCM-ZJrvN-1" source="NduwsXCs-qqVcqc0j1wE-27" target="uR380l_1hicrCM-ZJrvN-7" edge="1">
          <mxGeometry relative="1" as="geometry">
            <Array as="points">
              <mxPoint x="120" y="414" />
              <mxPoint x="120" y="127" />
            </Array>
          </mxGeometry>
        </mxCell>
        <mxCell id="H3oIZYAEWl6ergive7Da-32" style="edgeStyle=orthogonalEdgeStyle;rounded=0;orthogonalLoop=1;jettySize=auto;html=1;entryX=-0.038;entryY=0.56;entryDx=0;entryDy=0;entryPerimeter=0;curved=1;" parent="uR380l_1hicrCM-ZJrvN-1" source="NduwsXCs-qqVcqc0j1wE-27" target="H3oIZYAEWl6ergive7Da-6" edge="1">
          <mxGeometry relative="1" as="geometry">
            <Array as="points">
              <mxPoint x="120" y="414" />
              <mxPoint x="120" y="567" />
            </Array>
          </mxGeometry>
        </mxCell>
        <mxCell id="uR380l_1hicrCM-ZJrvN-23" value=".4" style="text;html=1;strokeColor=none;fillColor=none;align=center;verticalAlign=middle;whiteSpace=wrap;rounded=0;fontSize=13;movable=1;resizable=1;rotatable=1;deletable=1;editable=1;connectable=1;direction=east;container=0;" parent="uR380l_1hicrCM-ZJrvN-1" vertex="1">
          <mxGeometry x="433.18" y="202" width="24" height="30" as="geometry" />
        </mxCell>
        <mxCell id="uR380l_1hicrCM-ZJrvN-24" value=".68" style="text;html=1;strokeColor=none;fillColor=none;align=center;verticalAlign=middle;whiteSpace=wrap;rounded=0;fontSize=13;movable=1;resizable=1;rotatable=1;deletable=1;editable=1;connectable=1;direction=east;container=0;" parent="uR380l_1hicrCM-ZJrvN-1" vertex="1">
          <mxGeometry x="555.0699999999999" y="202" width="24" height="30" as="geometry" />
        </mxCell>
        <mxCell id="uR380l_1hicrCM-ZJrvN-25" value="" style="group" parent="uR380l_1hicrCM-ZJrvN-1" vertex="1" connectable="0">
          <mxGeometry x="427.49999999999994" y="140" width="156.13000000000005" height="95" as="geometry" />
        </mxCell>
        <mxCell id="uR380l_1hicrCM-ZJrvN-26" value="" style="aspect=fixed;html=1;points=[];align=center;image;fontSize=12;image=img/lib/azure2/networking/Network_Interfaces.svg;strokeWidth=2;rotation=-180;movable=1;resizable=1;rotatable=1;deletable=1;editable=1;connectable=1;direction=east;container=0;" parent="uR380l_1hicrCM-ZJrvN-25" vertex="1">
          <mxGeometry y="32" width="35.13" height="31" as="geometry" />
        </mxCell>
        <mxCell id="uR380l_1hicrCM-ZJrvN-27" value="" style="aspect=fixed;html=1;points=[];align=center;image;fontSize=12;image=img/lib/azure2/networking/Network_Interfaces.svg;strokeWidth=2;movable=1;resizable=1;rotatable=1;deletable=1;editable=1;connectable=1;direction=east;container=0;" parent="uR380l_1hicrCM-ZJrvN-25" vertex="1">
          <mxGeometry x="121.00000000000006" y="32" width="35.13" height="31" as="geometry" />
        </mxCell>
        <mxCell id="H3oIZYAEWl6ergive7Da-15" value=".4" style="text;html=1;strokeColor=none;fillColor=none;align=center;verticalAlign=middle;whiteSpace=wrap;rounded=0;fontSize=13;movable=1;resizable=1;rotatable=1;deletable=1;editable=1;connectable=1;direction=east;container=0;" parent="uR380l_1hicrCM-ZJrvN-1" vertex="1">
          <mxGeometry x="433.18" y="642" width="24" height="30" as="geometry" />
        </mxCell>
        <mxCell id="H3oIZYAEWl6ergive7Da-16" value=".68" style="text;html=1;strokeColor=none;fillColor=none;align=center;verticalAlign=middle;whiteSpace=wrap;rounded=0;fontSize=13;movable=1;resizable=1;rotatable=1;deletable=1;editable=1;connectable=1;direction=east;container=0;" parent="uR380l_1hicrCM-ZJrvN-1" vertex="1">
          <mxGeometry x="555.0699999999999" y="642" width="24" height="30" as="geometry" />
        </mxCell>
        <mxCell id="H3oIZYAEWl6ergive7Da-17" value="" style="group" parent="uR380l_1hicrCM-ZJrvN-1" vertex="1" connectable="0">
          <mxGeometry x="427.49999999999994" y="580" width="156.13000000000005" height="95" as="geometry" />
        </mxCell>
        <mxCell id="H3oIZYAEWl6ergive7Da-18" value="" style="aspect=fixed;html=1;points=[];align=center;image;fontSize=12;image=img/lib/azure2/networking/Network_Interfaces.svg;strokeWidth=2;rotation=-180;movable=1;resizable=1;rotatable=1;deletable=1;editable=1;connectable=1;direction=east;container=0;" parent="H3oIZYAEWl6ergive7Da-17" vertex="1">
          <mxGeometry y="32" width="35.13" height="31" as="geometry" />
        </mxCell>
        <mxCell id="H3oIZYAEWl6ergive7Da-19" value="" style="aspect=fixed;html=1;points=[];align=center;image;fontSize=12;image=img/lib/azure2/networking/Network_Interfaces.svg;strokeWidth=2;movable=1;resizable=1;rotatable=1;deletable=1;editable=1;connectable=1;direction=east;container=0;" parent="H3oIZYAEWl6ergive7Da-17" vertex="1">
          <mxGeometry x="121.00000000000006" y="32" width="35.13" height="31" as="geometry" />
        </mxCell>
        <mxCell id="2cHTunUiTe-ezRcidIi0-0" value="" style="shape=image;verticalLabelPosition=bottom;verticalAlign=top;imageAspect=0;aspect=fixed;image=data:image/svg+xml,PHN2ZyB4bWxucz0iaHR0cDovL3d3dy53My5vcmcvMjAwMC9zdmciIHZpZXdCb3g9IjEyLjIwMDAwMDc2MjkzOTQ1MyAyNS41Mjk5OTg3NzkyOTY4NzUgMTY3LjYwMDAwNjEwMzUxNTYyIDE0MC45NzAwMTY0Nzk0OTIyIiBkYXRhLW5hbWU9IlNlY3VyaXR5IE5ldHdvcmtpbmciIGlkPSJTZWN1cml0eV9OZXR3b3JraW5nIiB3aWR0aD0iMTY3LjYwMDAwNjEwMzUxNTYyIiBoZWlnaHQ9IjE0MC45NzAwMTY0Nzk0OTIyIj4mI3hhOyAgPGRlZnM+JiN4YTsgICAgPHN0eWxlPiYjeGE7ICAgICAgLmNscy0xIHsmI3hhOyAgICAgICAgZmlsbDogbm9uZTsmI3hhOyAgICAgICAgc3Ryb2tlOiAjNDY0NjQ2OyYjeGE7ICAgICAgICBzdHJva2UtbGluZWNhcDogcm91bmQ7JiN4YTsgICAgICAgIHN0cm9rZS1saW5lam9pbjogcm91bmQ7JiN4YTsgICAgICAgIHN0cm9rZS13aWR0aDogNHB4OyYjeGE7ICAgICAgfSYjeGE7JiN4YTsgICAgICAuY2xzLTIgeyYjeGE7ICAgICAgICBmaWxsOiAjNDY0NjQ2OyYjeGE7ICAgICAgfSYjeGE7JiN4YTsgICAgICAuY2xzLTIsIC5jbHMtMyB7JiN4YTsgICAgICAgIHN0cm9rZS13aWR0aDogMHB4OyYjeGE7ICAgICAgfSYjeGE7JiN4YTsgICAgICAuY2xzLTMgeyYjeGE7ICAgICAgICBmaWxsOiAjMzA3ZmUyOyYjeGE7ICAgICAgfSYjeGE7ICAgIDwvc3R5bGU+JiN4YTsgIDwvZGVmcz4mI3hhOyAgPGc+JiN4YTsgICAgPGc+JiN4YTsgICAgICA8cGF0aCBkPSJtNTUuMTEsMTI1LjM5djM5LjFoLTI5Ljc2Yy02LjE1LDAtMTEuMTQtNC45OC0xMS4xNC0xMS4xNHYtMzQuNTFoMzcuMDNjMS4xMiwyLjI4LDIuNDIsNC40NywzLjg3LDYuNTRaIiBjbGFzcz0iY2xzLTMiLz4mI3hhOyAgICAgIDxwYXRoIGQ9Im01NS4xMSwxNjYuNDloLTI5Ljc2Yy03LjI1LDAtMTMuMTUtNS44OS0xMy4xNS0xMy4xNHYtMzQuNTFjMC0xLjEuOS0yLDItMmgzNy4wM2MuNzYsMCwxLjQ2LjQzLDEuNzksMS4xMiwxLjA3LDIuMTcsMi4zMiw0LjI4LDMuNzEsNi4yNy4yNC4zNC4zNi43NC4zNiwxLjE1djM5LjFjMCwxLjEtLjksMi0yLDJabS0zOC45LTQ1LjY0djMyLjUxYzAsNS4wNCw0LjEsOS4xNCw5LjE1LDkuMTRoMjcuNzZ2LTM2LjQ4Yy0xLjEzLTEuNjYtMi4xNy0zLjM5LTMuMS01LjE2SDE2LjIxWiIgY2xhc3M9ImNscy0yIi8+JiN4YTsgICAgPC9nPiYjeGE7ICAgIDxnPiYjeGE7ICAgICAgPHBhdGggZD0ibTE3Ny43OSwxMTguODV2MzQuNTFjMCw2LjE1LTQuOTgsMTEuMTQtMTEuMTQsMTEuMTRoLTI5LjYxdi0zNS44NWMyLjQ3LTMsNC42LTYuMjgsNi4zMy05Ljc5aDM0LjQyWiIgY2xhc3M9ImNscy0zIi8+JiN4YTsgICAgICA8cGF0aCBkPSJtMTY2LjY2LDE2Ni40OWgtMjkuNjFjLTEuMSwwLTItLjktMi0ydi0zNS44NWMwLS40Ni4xNi0uOTEuNDYtMS4yNywyLjM5LTIuOSw0LjQzLTYuMDYsNi4wOC05LjQuMzQtLjY4LDEuMDMtMS4xMiwxLjc5LTEuMTJoMzQuNDJjMS4xLDAsMiwuOSwyLDJ2MzQuNTFjMCw3LjI0LTUuODksMTMuMTQtMTMuMTQsMTMuMTRabS0yNy42MS00aDI3LjYxYzUuMDQsMCw5LjE0LTQuMSw5LjE0LTkuMTR2LTMyLjUxaC0zMS4xOWMtMS41NywyLjk5LTMuNDMsNS44NS01LjU1LDguNXYzMy4xNFoiIGNsYXNzPSJjbHMtMiIvPiYjeGE7ICAgIDwvZz4mI3hhOyAgICA8Zz4mI3hhOyAgICAgIDxwYXRoIGQ9Im0xMzcuMDUsMTI4LjYzdjM1Ljg1SDU1LjEydi0zOS4wOWMuOTUsMS4zNiwxLjk3LDIuNjcsMy4wNCwzLjkzLDcuNTcsOC45LDE4LjEyLDE1LjE3LDMwLjA5LDE3LjMxLDIuOTMuNTMsNS45OC44LDkuMDcuOCwyLjQ1LDAsNC44Ny0uMTcsNy4yNC0uNTIsMTIuNDEtMS43NSwyMy4zOS03LjkxLDMxLjI5LTE2Ljg3LjQxLS40NS44MS0uOTIsMS4yLTEuNFoiIGNsYXNzPSJjbHMtMyIvPiYjeGE7ICAgICAgPHBhdGggZD0ibTEzNy4wNSwxNjYuNDhINTUuMTJjLTEuMSwwLTItLjktMi0ydi0zOS4wOWMwLS44Ny41Ny0xLjY0LDEuNC0xLjkxLjgzLS4yNiwxLjc0LjA0LDIuMjQuNzYuOTEsMS4zLDEuOSwyLjU4LDIuOTMsMy43OCw3LjQyLDguNzIsMTcuNjksMTQuNjMsMjguOTIsMTYuNjQsNS4wMi45MSwxMC41MywxLjAxLDE1LjY3LjI3LDExLjYyLTEuNjQsMjIuMy03LjQsMzAuMDgtMTYuMjEuMzktLjQ0Ljc4LS44OCwxLjE1LTEuMzQuNTMtLjY2LDEuNDItLjkxLDIuMjItLjYzLjguMjgsMS4zMywxLjA0LDEuMzMsMS44OXYzNS44NWMwLDEuMS0uOSwyLTIsMlptLTc5LjkzLTRoNzcuOTN2LTI4LjY3Yy04LjE1LDguMTUtMTguNzYsMTMuNDctMzAuMjEsMTUuMDgtNS41NS44LTExLjUuNjktMTYuOTQtLjI5LTExLjg5LTIuMTItMjIuOC04LjMtMzAuNzgtMTcuNDJ2MzEuMzFaIiBjbGFzcz0iY2xzLTIiLz4mI3hhOyAgICA8L2c+JiN4YTsgICAgPGc+JiN4YTsgICAgICA8cGF0aCBkPSJtNTUuMTEsMjcuNTN2MzkuMTFjLTEuNDUsMi4wNy0yLjc1LDQuMjYtMy44Nyw2LjU0SDE0LjIxdi0zNC41MmMwLTYuMTUsNC45OS0xMS4xMywxMS4xNC0xMS4xM2gyOS43NloiIGNsYXNzPSJjbHMtMyIvPiYjeGE7ICAgICAgPHBhdGggZD0ibTUxLjI0LDc1LjE4SDE0LjIxYy0xLjEsMC0yLS45LTItMnYtMzQuNTJjMC03LjI0LDUuOS0xMy4xMywxMy4xNS0xMy4xM2gyOS43NmMxLjEsMCwyLC45LDIsMnYzOS4xMWMwLC40MS0uMTMuODEtLjM2LDEuMTUtMS40LDEuOTktMi42NSw0LjEtMy43MSw2LjI3LS4zNC42OC0xLjAzLDEuMTItMS43OSwxLjEyWm0tMzUuMDMtNGgzMy44Yy45My0xLjc3LDEuOTctMy41MSwzLjEtNS4xNlYyOS41M2gtMjcuNzZjLTUuMDQsMC05LjE1LDQuMS05LjE1LDkuMTN2MzIuNTJaIiBjbGFzcz0iY2xzLTIiLz4mI3hhOyAgICA8L2c+JiN4YTsgICAgPGc+JiN4YTsgICAgICA8cGF0aCBkPSJtMTc3LjcyLDM4LjY3djM0LjUyaC0zNC4zNWMtMS43My0zLjUxLTMuODYtNi43OS02LjMzLTkuNzlWMjcuNTNoMjkuNTVjNi4xNSwwLDExLjE0LDQuOTgsMTEuMTQsMTEuMTNaIiBjbGFzcz0iY2xzLTMiLz4mI3hhOyAgICAgIDxwYXRoIGQ9Im0xNzcuNzIsNzUuMThoLTM0LjM1Yy0uNzYsMC0xLjQ2LS40My0xLjc5LTEuMTItMS42NS0zLjM0LTMuNjktNi41LTYuMDgtOS40LS4yOS0uMzYtLjQ2LS44MS0uNDYtMS4yN1YyNy41M2MwLTEuMS45LTIsMi0yaDI5LjU1YzcuMjQsMCwxMy4xNCw1Ljg5LDEzLjE0LDEzLjEzdjM0LjUyYzAsMS4xLS45LDItMiwyWm0tMzMuMTMtNGgzMS4xM3YtMzIuNTJjMC01LjA0LTQuMS05LjEzLTkuMTQtOS4xM2gtMjcuNTV2MzMuMTVjMi4xMiwyLjY1LDMuOTksNS41MSw1LjU1LDguNVoiIGNsYXNzPSJjbHMtMiIvPiYjeGE7ICAgIDwvZz4mI3hhOyAgICA8Zz4mI3hhOyAgICAgIDxwYXRoIGQ9Im0xMzcuMDQsMjcuNTN2MzUuODZjLTkuNDItMTEuNDctMjMuNzItMTguNzktMzkuNzMtMTguNzktMTcuNDcsMC0zMi45MSw4LjcyLTQyLjIsMjIuMDRWMjcuNTNoODEuOTNaIiBjbGFzcz0iY2xzLTMiLz4mI3hhOyAgICAgIDxwYXRoIGQ9Im01NS4xMSw2OC42NGMtLjIsMC0uNC0uMDMtLjYtLjA5LS44My0uMjYtMS40LTEuMDMtMS40LTEuOTFWMjcuNTNjMC0xLjEuOS0yLDItMmg4MS45M2MxLjEsMCwyLC45LDIsMnYzNS44NmMwLC44NC0uNTMsMS42LTEuMzMsMS44OC0uOC4yOS0xLjY4LjA0LTIuMjItLjYxLTkuNDItMTEuNDgtMjMuMzQtMTguMDYtMzguMTktMTguMDYtMTYuMTUsMC0zMS4zMSw3LjkyLTQwLjU2LDIxLjE4LS4zOC41NS0xLC44Ni0xLjY0Ljg2Wm0yLTM5LjExdjMxLjMyYzEwLjA5LTExLjUxLDI0LjcyLTE4LjI0LDQwLjItMTguMjQsMTQuMjgsMCwyNy43Niw1LjYzLDM3LjczLDE1LjYxdi0yOC42OEg1Ny4xMVoiIGNsYXNzPSJjbHMtMiIvPiYjeGE7ICAgIDwvZz4mI3hhOyAgICA8Zz4mI3hhOyAgICAgIDxwYXRoIGQ9Im01MS4yMyw3My4xOWMtMy40Miw2Ljg4LTUuMzMsMTQuNjItNS4zMywyMi44MnMxLjkyLDE1Ljk0LDUuMzMsMjIuODJIMTQuMjF2LTQ1LjY0aDM3LjAyWiIgY2xhc3M9ImNscy0zIi8+JiN4YTsgICAgICA8cGF0aCBkPSJtNTEuMjMsMTIwLjg0SDE0LjIxYy0xLjEsMC0yLS45LTItMnYtNDUuNjRjMC0xLjEuOS0yLDItMmgzNy4wMmMuNjksMCwxLjMzLjM2LDEuNy45NXMuNCwxLjMyLjA5LDEuOTRjLTMuNCw2Ljg1LTUuMTIsMTQuMjItNS4xMiwyMS45M3MxLjcyLDE1LjA5LDUuMTIsMjEuOTNjLjMxLjYyLjI3LDEuMzUtLjA5LDEuOTQtLjM2LjU5LTEuMDEuOTUtMS43Ljk1Wm0tMzUuMDItNGgzMS45Yy0yLjc5LTYuNTgtNC4yMS0xMy41Ni00LjIxLTIwLjgyczEuNDEtMTQuMjUsNC4yMS0yMC44MmgtMzEuOXY0MS42NFoiIGNsYXNzPSJjbHMtMiIvPiYjeGE7ICAgIDwvZz4mI3hhOyAgICA8Zz4mI3hhOyAgICAgIDxwYXRoIGQ9Im0xNzcuNzIsNzMuMTl2NDUuNjRoLTM0LjM0YzMuNDEtNi44OCw1LjMzLTE0LjYyLDUuMzMtMjIuODJzLTEuOTItMTUuOTQtNS4zMy0yMi44MmgzNC4zNFoiIGNsYXNzPSJjbHMtMyIvPiYjeGE7ICAgICAgPHBhdGggZD0ibTE3Ny43MiwxMjAuODRoLTM0LjM0Yy0uNjksMC0xLjMzLS4zNi0xLjctLjk1LS4zNi0uNTktLjQtMS4zMi0uMDktMS45NCwzLjQtNi44NSw1LjEyLTE0LjIzLDUuMTItMjEuOTNzLTEuNzItMTUuMDktNS4xMi0yMS45M2MtLjMxLS42Mi0uMjctMS4zNS4wOS0xLjk0LjM2LS41OSwxLjAxLS45NSwxLjctLjk1aDM0LjM0YzEuMSwwLDIsLjksMiwydjQ1LjY0YzAsMS4xLS45LDItMiwyWm0tMzEuMjItNGgyOS4yMnYtNDEuNjRoLTI5LjIyYzIuNzksNi41OCw0LjIxLDEzLjU2LDQuMjEsMjAuODJzLTEuNDEsMTQuMjUtNC4yMSwyMC44MloiIGNsYXNzPSJjbHMtMiIvPiYjeGE7ICAgIDwvZz4mI3hhOyAgPC9nPiYjeGE7ICA8Zz4mI3hhOyAgICA8cGF0aCBkPSJtOTYuMDYsMTEwLjMxYzExLjQ2LDAsMjIuNTQsMS42NSwzMyw0LjczIiBjbGFzcz0iY2xzLTEiLz4mI3hhOyAgICA8cGF0aCBkPSJtMTM0LjA2LDk2LjAxYzAsNi45Mi0xLjg1LDEzLjQxLTUuMDgsMTktNi41NywxMS4zNC0xOC44MywxOC45Ny0zMi44OSwxOC45N1Y1OC4wNWMxNC4yMiwwLDI2LjYxLDcuODIsMzMuMTIsMTkuMzksMy4wNSw1LjQyLDQuODEsMTEuNjYsNC44NSwxOC4zMSwwLC4wOSwwLC4xOCwwLC4yN1oiIGNsYXNzPSJjbHMtMSIvPiYjeGE7ICAgIDxwYXRoIGQ9Im05Ni4wNiw1OC4xYzEyLjk5LDcuNjQsMjEuNzEsMjEuNzYsMjEuNzEsMzcuOTJzLTguNzIsMzAuMjgtMjEuNzEsMzcuOTIiIGNsYXNzPSJjbHMtMSIvPiYjeGE7ICAgIDxwYXRoIGQ9Im0xMjkuMjUsNzcuNDJjLTEwLjUxLDMuMS0yMS42NCw0Ljc3LTMzLjE2LDQuNzciIGNsYXNzPSJjbHMtMSIvPiYjeGE7ICAgIDxwYXRoIGQ9Im05Ni4xLDExMC4zMWMtMTEuNDYsMC0yMi41NCwxLjY1LTMzLDQuNzMiIGNsYXNzPSJjbHMtMSIvPiYjeGE7ICAgIDxwYXRoIGQ9Im01OC4xLDk2LjAxYzAsNi45MiwxLjg1LDEzLjQxLDUuMDgsMTksNi41NywxMS4zNCwxOC44MywxOC45NywzMi44OSwxOC45N1Y1OC4wNWMtMTQuMjIsMC0yNi42MSw3LjgyLTMzLjEyLDE5LjM5LTMuMDUsNS40Mi00LjgxLDExLjY2LTQuODUsMTguMzEsMCwuMDksMCwuMTgsMCwuMjdaIiBjbGFzcz0iY2xzLTEiLz4mI3hhOyAgICA8cGF0aCBkPSJtOTYuMSw1OC4xYy0xMi45OSw3LjY0LTIxLjcxLDIxLjc2LTIxLjcxLDM3LjkyczguNzIsMzAuMjgsMjEuNzEsMzcuOTIiIGNsYXNzPSJjbHMtMSIvPiYjeGE7ICAgIDxwYXRoIGQ9Im02Mi45MSw3Ny40MmMxMC41MSwzLjEsMjEuNjQsNC43NywzMy4xNiw0Ljc3IiBjbGFzcz0iY2xzLTEiLz4mI3hhOyAgICA8bGluZSB5Mj0iOTUuNzUiIHgyPSIxMzQuMDUiIHkxPSI5NS43NSIgeDE9IjU4LjExIiBjbGFzcz0iY2xzLTEiLz4mI3hhOyAgPC9nPiYjeGE7PC9zdmc+" vertex="1" parent="uR380l_1hicrCM-ZJrvN-1">
          <mxGeometry x="459.23" y="148.25" width="93.53" height="78.5" as="geometry" />
        </mxCell>
        <mxCell id="2cHTunUiTe-ezRcidIi0-1" value="" style="shape=image;verticalLabelPosition=bottom;verticalAlign=top;imageAspect=0;aspect=fixed;image=data:image/svg+xml,PHN2ZyB4bWxucz0iaHR0cDovL3d3dy53My5vcmcvMjAwMC9zdmciIHZpZXdCb3g9IjEyLjIwMDAwMDc2MjkzOTQ1MyAyNS41Mjk5OTg3NzkyOTY4NzUgMTY3LjYwMDAwNjEwMzUxNTYyIDE0MC45NzAwMTY0Nzk0OTIyIiBkYXRhLW5hbWU9IlNlY3VyaXR5IE5ldHdvcmtpbmciIGlkPSJTZWN1cml0eV9OZXR3b3JraW5nIiB3aWR0aD0iMTY3LjYwMDAwNjEwMzUxNTYyIiBoZWlnaHQ9IjE0MC45NzAwMTY0Nzk0OTIyIj4mI3hhOyAgPGRlZnM+JiN4YTsgICAgPHN0eWxlPiYjeGE7ICAgICAgLmNscy0xIHsmI3hhOyAgICAgICAgZmlsbDogbm9uZTsmI3hhOyAgICAgICAgc3Ryb2tlOiAjNDY0NjQ2OyYjeGE7ICAgICAgICBzdHJva2UtbGluZWNhcDogcm91bmQ7JiN4YTsgICAgICAgIHN0cm9rZS1saW5lam9pbjogcm91bmQ7JiN4YTsgICAgICAgIHN0cm9rZS13aWR0aDogNHB4OyYjeGE7ICAgICAgfSYjeGE7JiN4YTsgICAgICAuY2xzLTIgeyYjeGE7ICAgICAgICBmaWxsOiAjNDY0NjQ2OyYjeGE7ICAgICAgfSYjeGE7JiN4YTsgICAgICAuY2xzLTIsIC5jbHMtMyB7JiN4YTsgICAgICAgIHN0cm9rZS13aWR0aDogMHB4OyYjeGE7ICAgICAgfSYjeGE7JiN4YTsgICAgICAuY2xzLTMgeyYjeGE7ICAgICAgICBmaWxsOiAjMzA3ZmUyOyYjeGE7ICAgICAgfSYjeGE7ICAgIDwvc3R5bGU+JiN4YTsgIDwvZGVmcz4mI3hhOyAgPGc+JiN4YTsgICAgPGc+JiN4YTsgICAgICA8cGF0aCBkPSJtNTUuMTEsMTI1LjM5djM5LjFoLTI5Ljc2Yy02LjE1LDAtMTEuMTQtNC45OC0xMS4xNC0xMS4xNHYtMzQuNTFoMzcuMDNjMS4xMiwyLjI4LDIuNDIsNC40NywzLjg3LDYuNTRaIiBjbGFzcz0iY2xzLTMiLz4mI3hhOyAgICAgIDxwYXRoIGQ9Im01NS4xMSwxNjYuNDloLTI5Ljc2Yy03LjI1LDAtMTMuMTUtNS44OS0xMy4xNS0xMy4xNHYtMzQuNTFjMC0xLjEuOS0yLDItMmgzNy4wM2MuNzYsMCwxLjQ2LjQzLDEuNzksMS4xMiwxLjA3LDIuMTcsMi4zMiw0LjI4LDMuNzEsNi4yNy4yNC4zNC4zNi43NC4zNiwxLjE1djM5LjFjMCwxLjEtLjksMi0yLDJabS0zOC45LTQ1LjY0djMyLjUxYzAsNS4wNCw0LjEsOS4xNCw5LjE1LDkuMTRoMjcuNzZ2LTM2LjQ4Yy0xLjEzLTEuNjYtMi4xNy0zLjM5LTMuMS01LjE2SDE2LjIxWiIgY2xhc3M9ImNscy0yIi8+JiN4YTsgICAgPC9nPiYjeGE7ICAgIDxnPiYjeGE7ICAgICAgPHBhdGggZD0ibTE3Ny43OSwxMTguODV2MzQuNTFjMCw2LjE1LTQuOTgsMTEuMTQtMTEuMTQsMTEuMTRoLTI5LjYxdi0zNS44NWMyLjQ3LTMsNC42LTYuMjgsNi4zMy05Ljc5aDM0LjQyWiIgY2xhc3M9ImNscy0zIi8+JiN4YTsgICAgICA8cGF0aCBkPSJtMTY2LjY2LDE2Ni40OWgtMjkuNjFjLTEuMSwwLTItLjktMi0ydi0zNS44NWMwLS40Ni4xNi0uOTEuNDYtMS4yNywyLjM5LTIuOSw0LjQzLTYuMDYsNi4wOC05LjQuMzQtLjY4LDEuMDMtMS4xMiwxLjc5LTEuMTJoMzQuNDJjMS4xLDAsMiwuOSwyLDJ2MzQuNTFjMCw3LjI0LTUuODksMTMuMTQtMTMuMTQsMTMuMTRabS0yNy42MS00aDI3LjYxYzUuMDQsMCw5LjE0LTQuMSw5LjE0LTkuMTR2LTMyLjUxaC0zMS4xOWMtMS41NywyLjk5LTMuNDMsNS44NS01LjU1LDguNXYzMy4xNFoiIGNsYXNzPSJjbHMtMiIvPiYjeGE7ICAgIDwvZz4mI3hhOyAgICA8Zz4mI3hhOyAgICAgIDxwYXRoIGQ9Im0xMzcuMDUsMTI4LjYzdjM1Ljg1SDU1LjEydi0zOS4wOWMuOTUsMS4zNiwxLjk3LDIuNjcsMy4wNCwzLjkzLDcuNTcsOC45LDE4LjEyLDE1LjE3LDMwLjA5LDE3LjMxLDIuOTMuNTMsNS45OC44LDkuMDcuOCwyLjQ1LDAsNC44Ny0uMTcsNy4yNC0uNTIsMTIuNDEtMS43NSwyMy4zOS03LjkxLDMxLjI5LTE2Ljg3LjQxLS40NS44MS0uOTIsMS4yLTEuNFoiIGNsYXNzPSJjbHMtMyIvPiYjeGE7ICAgICAgPHBhdGggZD0ibTEzNy4wNSwxNjYuNDhINTUuMTJjLTEuMSwwLTItLjktMi0ydi0zOS4wOWMwLS44Ny41Ny0xLjY0LDEuNC0xLjkxLjgzLS4yNiwxLjc0LjA0LDIuMjQuNzYuOTEsMS4zLDEuOSwyLjU4LDIuOTMsMy43OCw3LjQyLDguNzIsMTcuNjksMTQuNjMsMjguOTIsMTYuNjQsNS4wMi45MSwxMC41MywxLjAxLDE1LjY3LjI3LDExLjYyLTEuNjQsMjIuMy03LjQsMzAuMDgtMTYuMjEuMzktLjQ0Ljc4LS44OCwxLjE1LTEuMzQuNTMtLjY2LDEuNDItLjkxLDIuMjItLjYzLjguMjgsMS4zMywxLjA0LDEuMzMsMS44OXYzNS44NWMwLDEuMS0uOSwyLTIsMlptLTc5LjkzLTRoNzcuOTN2LTI4LjY3Yy04LjE1LDguMTUtMTguNzYsMTMuNDctMzAuMjEsMTUuMDgtNS41NS44LTExLjUuNjktMTYuOTQtLjI5LTExLjg5LTIuMTItMjIuOC04LjMtMzAuNzgtMTcuNDJ2MzEuMzFaIiBjbGFzcz0iY2xzLTIiLz4mI3hhOyAgICA8L2c+JiN4YTsgICAgPGc+JiN4YTsgICAgICA8cGF0aCBkPSJtNTUuMTEsMjcuNTN2MzkuMTFjLTEuNDUsMi4wNy0yLjc1LDQuMjYtMy44Nyw2LjU0SDE0LjIxdi0zNC41MmMwLTYuMTUsNC45OS0xMS4xMywxMS4xNC0xMS4xM2gyOS43NloiIGNsYXNzPSJjbHMtMyIvPiYjeGE7ICAgICAgPHBhdGggZD0ibTUxLjI0LDc1LjE4SDE0LjIxYy0xLjEsMC0yLS45LTItMnYtMzQuNTJjMC03LjI0LDUuOS0xMy4xMywxMy4xNS0xMy4xM2gyOS43NmMxLjEsMCwyLC45LDIsMnYzOS4xMWMwLC40MS0uMTMuODEtLjM2LDEuMTUtMS40LDEuOTktMi42NSw0LjEtMy43MSw2LjI3LS4zNC42OC0xLjAzLDEuMTItMS43OSwxLjEyWm0tMzUuMDMtNGgzMy44Yy45My0xLjc3LDEuOTctMy41MSwzLjEtNS4xNlYyOS41M2gtMjcuNzZjLTUuMDQsMC05LjE1LDQuMS05LjE1LDkuMTN2MzIuNTJaIiBjbGFzcz0iY2xzLTIiLz4mI3hhOyAgICA8L2c+JiN4YTsgICAgPGc+JiN4YTsgICAgICA8cGF0aCBkPSJtMTc3LjcyLDM4LjY3djM0LjUyaC0zNC4zNWMtMS43My0zLjUxLTMuODYtNi43OS02LjMzLTkuNzlWMjcuNTNoMjkuNTVjNi4xNSwwLDExLjE0LDQuOTgsMTEuMTQsMTEuMTNaIiBjbGFzcz0iY2xzLTMiLz4mI3hhOyAgICAgIDxwYXRoIGQ9Im0xNzcuNzIsNzUuMThoLTM0LjM1Yy0uNzYsMC0xLjQ2LS40My0xLjc5LTEuMTItMS42NS0zLjM0LTMuNjktNi41LTYuMDgtOS40LS4yOS0uMzYtLjQ2LS44MS0uNDYtMS4yN1YyNy41M2MwLTEuMS45LTIsMi0yaDI5LjU1YzcuMjQsMCwxMy4xNCw1Ljg5LDEzLjE0LDEzLjEzdjM0LjUyYzAsMS4xLS45LDItMiwyWm0tMzMuMTMtNGgzMS4xM3YtMzIuNTJjMC01LjA0LTQuMS05LjEzLTkuMTQtOS4xM2gtMjcuNTV2MzMuMTVjMi4xMiwyLjY1LDMuOTksNS41MSw1LjU1LDguNVoiIGNsYXNzPSJjbHMtMiIvPiYjeGE7ICAgIDwvZz4mI3hhOyAgICA8Zz4mI3hhOyAgICAgIDxwYXRoIGQ9Im0xMzcuMDQsMjcuNTN2MzUuODZjLTkuNDItMTEuNDctMjMuNzItMTguNzktMzkuNzMtMTguNzktMTcuNDcsMC0zMi45MSw4LjcyLTQyLjIsMjIuMDRWMjcuNTNoODEuOTNaIiBjbGFzcz0iY2xzLTMiLz4mI3hhOyAgICAgIDxwYXRoIGQ9Im01NS4xMSw2OC42NGMtLjIsMC0uNC0uMDMtLjYtLjA5LS44My0uMjYtMS40LTEuMDMtMS40LTEuOTFWMjcuNTNjMC0xLjEuOS0yLDItMmg4MS45M2MxLjEsMCwyLC45LDIsMnYzNS44NmMwLC44NC0uNTMsMS42LTEuMzMsMS44OC0uOC4yOS0xLjY4LjA0LTIuMjItLjYxLTkuNDItMTEuNDgtMjMuMzQtMTguMDYtMzguMTktMTguMDYtMTYuMTUsMC0zMS4zMSw3LjkyLTQwLjU2LDIxLjE4LS4zOC41NS0xLC44Ni0xLjY0Ljg2Wm0yLTM5LjExdjMxLjMyYzEwLjA5LTExLjUxLDI0LjcyLTE4LjI0LDQwLjItMTguMjQsMTQuMjgsMCwyNy43Niw1LjYzLDM3LjczLDE1LjYxdi0yOC42OEg1Ny4xMVoiIGNsYXNzPSJjbHMtMiIvPiYjeGE7ICAgIDwvZz4mI3hhOyAgICA8Zz4mI3hhOyAgICAgIDxwYXRoIGQ9Im01MS4yMyw3My4xOWMtMy40Miw2Ljg4LTUuMzMsMTQuNjItNS4zMywyMi44MnMxLjkyLDE1Ljk0LDUuMzMsMjIuODJIMTQuMjF2LTQ1LjY0aDM3LjAyWiIgY2xhc3M9ImNscy0zIi8+JiN4YTsgICAgICA8cGF0aCBkPSJtNTEuMjMsMTIwLjg0SDE0LjIxYy0xLjEsMC0yLS45LTItMnYtNDUuNjRjMC0xLjEuOS0yLDItMmgzNy4wMmMuNjksMCwxLjMzLjM2LDEuNy45NXMuNCwxLjMyLjA5LDEuOTRjLTMuNCw2Ljg1LTUuMTIsMTQuMjItNS4xMiwyMS45M3MxLjcyLDE1LjA5LDUuMTIsMjEuOTNjLjMxLjYyLjI3LDEuMzUtLjA5LDEuOTQtLjM2LjU5LTEuMDEuOTUtMS43Ljk1Wm0tMzUuMDItNGgzMS45Yy0yLjc5LTYuNTgtNC4yMS0xMy41Ni00LjIxLTIwLjgyczEuNDEtMTQuMjUsNC4yMS0yMC44MmgtMzEuOXY0MS42NFoiIGNsYXNzPSJjbHMtMiIvPiYjeGE7ICAgIDwvZz4mI3hhOyAgICA8Zz4mI3hhOyAgICAgIDxwYXRoIGQ9Im0xNzcuNzIsNzMuMTl2NDUuNjRoLTM0LjM0YzMuNDEtNi44OCw1LjMzLTE0LjYyLDUuMzMtMjIuODJzLTEuOTItMTUuOTQtNS4zMy0yMi44MmgzNC4zNFoiIGNsYXNzPSJjbHMtMyIvPiYjeGE7ICAgICAgPHBhdGggZD0ibTE3Ny43MiwxMjAuODRoLTM0LjM0Yy0uNjksMC0xLjMzLS4zNi0xLjctLjk1LS4zNi0uNTktLjQtMS4zMi0uMDktMS45NCwzLjQtNi44NSw1LjEyLTE0LjIzLDUuMTItMjEuOTNzLTEuNzItMTUuMDktNS4xMi0yMS45M2MtLjMxLS42Mi0uMjctMS4zNS4wOS0xLjk0LjM2LS41OSwxLjAxLS45NSwxLjctLjk1aDM0LjM0YzEuMSwwLDIsLjksMiwydjQ1LjY0YzAsMS4xLS45LDItMiwyWm0tMzEuMjItNGgyOS4yMnYtNDEuNjRoLTI5LjIyYzIuNzksNi41OCw0LjIxLDEzLjU2LDQuMjEsMjAuODJzLTEuNDEsMTQuMjUtNC4yMSwyMC44MloiIGNsYXNzPSJjbHMtMiIvPiYjeGE7ICAgIDwvZz4mI3hhOyAgPC9nPiYjeGE7ICA8Zz4mI3hhOyAgICA8cGF0aCBkPSJtOTYuMDYsMTEwLjMxYzExLjQ2LDAsMjIuNTQsMS42NSwzMyw0LjczIiBjbGFzcz0iY2xzLTEiLz4mI3hhOyAgICA8cGF0aCBkPSJtMTM0LjA2LDk2LjAxYzAsNi45Mi0xLjg1LDEzLjQxLTUuMDgsMTktNi41NywxMS4zNC0xOC44MywxOC45Ny0zMi44OSwxOC45N1Y1OC4wNWMxNC4yMiwwLDI2LjYxLDcuODIsMzMuMTIsMTkuMzksMy4wNSw1LjQyLDQuODEsMTEuNjYsNC44NSwxOC4zMSwwLC4wOSwwLC4xOCwwLC4yN1oiIGNsYXNzPSJjbHMtMSIvPiYjeGE7ICAgIDxwYXRoIGQ9Im05Ni4wNiw1OC4xYzEyLjk5LDcuNjQsMjEuNzEsMjEuNzYsMjEuNzEsMzcuOTJzLTguNzIsMzAuMjgtMjEuNzEsMzcuOTIiIGNsYXNzPSJjbHMtMSIvPiYjeGE7ICAgIDxwYXRoIGQ9Im0xMjkuMjUsNzcuNDJjLTEwLjUxLDMuMS0yMS42NCw0Ljc3LTMzLjE2LDQuNzciIGNsYXNzPSJjbHMtMSIvPiYjeGE7ICAgIDxwYXRoIGQ9Im05Ni4xLDExMC4zMWMtMTEuNDYsMC0yMi41NCwxLjY1LTMzLDQuNzMiIGNsYXNzPSJjbHMtMSIvPiYjeGE7ICAgIDxwYXRoIGQ9Im01OC4xLDk2LjAxYzAsNi45MiwxLjg1LDEzLjQxLDUuMDgsMTksNi41NywxMS4zNCwxOC44MywxOC45NywzMi44OSwxOC45N1Y1OC4wNWMtMTQuMjIsMC0yNi42MSw3LjgyLTMzLjEyLDE5LjM5LTMuMDUsNS40Mi00LjgxLDExLjY2LTQuODUsMTguMzEsMCwuMDksMCwuMTgsMCwuMjdaIiBjbGFzcz0iY2xzLTEiLz4mI3hhOyAgICA8cGF0aCBkPSJtOTYuMSw1OC4xYy0xMi45OSw3LjY0LTIxLjcxLDIxLjc2LTIxLjcxLDM3LjkyczguNzIsMzAuMjgsMjEuNzEsMzcuOTIiIGNsYXNzPSJjbHMtMSIvPiYjeGE7ICAgIDxwYXRoIGQ9Im02Mi45MSw3Ny40MmMxMC41MSwzLjEsMjEuNjQsNC43NywzMy4xNiw0Ljc3IiBjbGFzcz0iY2xzLTEiLz4mI3hhOyAgICA8bGluZSB5Mj0iOTUuNzUiIHgyPSIxMzQuMDUiIHkxPSI5NS43NSIgeDE9IjU4LjExIiBjbGFzcz0iY2xzLTEiLz4mI3hhOyAgPC9nPiYjeGE7PC9zdmc+" vertex="1" parent="uR380l_1hicrCM-ZJrvN-1">
          <mxGeometry x="459.24" y="588.25" width="93.53" height="78.5" as="geometry" />
        </mxCell>
      </root>
    </mxGraphModel>
  </diagram>
  <diagram id="maEs-aDzaNGBbNFm83zP" name="Flow - Inbound">
    <mxGraphModel dx="1306" dy="929" grid="1" gridSize="10" guides="1" tooltips="1" connect="1" arrows="1" fold="1" page="1" pageScale="1" pageWidth="1654" pageHeight="1169" math="0" shadow="0">
      <root>
        <mxCell id="0" />
        <mxCell id="1" parent="0" />
        <mxCell id="aldpSXv1bzGrkSbbX8es-1" value="" style="rounded=1;whiteSpace=wrap;html=1;sketch=0;fontSize=10;strokeColor=#007fff;fillColor=#FFFFFF;gradientColor=none;gradientDirection=south;absoluteArcSize=1;arcSize=4;fontFamily=Helvetica;" parent="1" vertex="1">
          <mxGeometry x="733" y="500" width="860" height="320" as="geometry" />
        </mxCell>
        <mxCell id="aldpSXv1bzGrkSbbX8es-2" value="" style="vsdxID=12;fillColor=#f0f0f0;gradientColor=none;shape=stencil(hZNRcoMgEIZPwysDrJjw2EmTC/QETqSVqdUMMa3p6UtcNIAk9Qn+/Ve+XVgCu3NTnTQR7DzY/lP/mHpoCLwSIUzXaGsGtyKwJ7B7763+sP2lq3F/qpxTsEnRNebwm1uwyh7fzK9GjVHgG4kBzPzqv28njj6OoevsVsUkHNB7vFg089g9b2nBVPCVJcZHMcfLjc8Q0Q9G8MRUFt4AoWE6nr04gtZ0Aa3a0kLGxM9wlaIgEuSY0DmUShAfFQXrFMi1Lccd5CwKk/+wLyl3SW5X/EuFXuIsaXLYNIg9j3iDe8kkZN7F/aJ5ShHf/FWsa4HYAdkOZSifv123mIYEx8e0Lc5YGE+Hykk4kLD/Aw==);strokeColor=#bfbfbf;spacingTop=-3;spacingBottom=-3;spacingLeft=-3;spacingRight=-3;labelBackgroundColor=none;rounded=1;html=1;whiteSpace=wrap;arcSize=17;" parent="1" vertex="1">
          <mxGeometry x="1074" y="540" width="206" height="210" as="geometry" />
        </mxCell>
        <mxCell id="aldpSXv1bzGrkSbbX8es-3" value="&lt;p style=&quot;align:center;margin-left:0;margin-right:0;margin-top:0px;margin-bottom:0px;text-indent:0;valign:middle;direction:ltr;&quot;&gt;&lt;font style=&quot;font-size:9px;font-family:Arial;color:#000000;direction:ltr;letter-spacing:0px;line-height:100%;opacity:1&quot;&gt;Internal&lt;/font&gt;&lt;/p&gt;" style="text;vsdxID=11;fillColor=none;gradientColor=none;strokeColor=none;spacingTop=-3;spacingBottom=-3;spacingLeft=-3;spacingRight=-3;labelBackgroundColor=none;rounded=1;html=1;whiteSpace=wrap;verticalAlign=middle;align=center;;html=1;" parent="1" vertex="1">
          <mxGeometry x="1085.9466019417475" y="557.8886567164179" width="184.49417475728154" height="18.576119402985075" as="geometry" />
        </mxCell>
        <mxCell id="aldpSXv1bzGrkSbbX8es-4" value="&lt;span style=&quot;&quot;&gt;172.16.136.64/26&amp;nbsp;&lt;/span&gt;" style="text;html=1;strokeColor=none;fillColor=none;align=right;verticalAlign=middle;whiteSpace=wrap;rounded=0;fontFamily=Helvetica;fontSize=10;" parent="1" vertex="1">
          <mxGeometry x="1188.252427184466" y="722.2089552238806" width="91.74757281553397" height="27.791044776119403" as="geometry" />
        </mxCell>
        <mxCell id="aldpSXv1bzGrkSbbX8es-5" value="&lt;font color=&quot;#000000&quot;&gt;Public IP Address&lt;/font&gt;" style="aspect=fixed;html=1;points=[];align=center;image;fontSize=12;image=img/lib/azure2/networking/Public_IP_Addresses.svg;rounded=1;sketch=0;strokeColor=#007fff;fillColor=#FFFFFF;gradientColor=none;gradientDirection=south;fontFamily=Helvetica;fontColor=#999999;" parent="1" vertex="1">
          <mxGeometry x="700" y="557.8900000000001" width="65" height="52" as="geometry" />
        </mxCell>
        <mxCell id="aldpSXv1bzGrkSbbX8es-6" value="&lt;span style=&quot;font-size: 13px;&quot;&gt;Virtual Network&amp;nbsp;&lt;/span&gt;&lt;br style=&quot;font-size: 13px;&quot;&gt;&lt;span style=&quot;font-size: 13px;&quot;&gt;172.16.136.0/22&amp;nbsp;&lt;/span&gt;" style="text;html=1;strokeColor=none;fillColor=none;align=right;verticalAlign=middle;whiteSpace=wrap;rounded=0;sketch=0;fontSize=4;labelPosition=center;verticalLabelPosition=middle;horizontal=1;fontFamily=Helvetica;" parent="1" vertex="1">
          <mxGeometry x="754.5" y="759" width="766.83" height="50" as="geometry" />
        </mxCell>
        <mxCell id="aldpSXv1bzGrkSbbX8es-7" value="" style="aspect=fixed;html=1;points=[];align=center;image;fontSize=12;image=img/lib/azure2/networking/Virtual_Networks.svg;rounded=1;sketch=0;strokeColor=#007fff;fillColor=#FFFFFF;gradientColor=none;gradientDirection=south;fontFamily=Helvetica;" parent="1" vertex="1">
          <mxGeometry x="1521.3333333333333" y="766.8399999999999" width="57.548333333333325" height="34.32833333333333" as="geometry" />
        </mxCell>
        <mxCell id="aldpSXv1bzGrkSbbX8es-8" style="vsdxID=113;fillColor=none;gradientColor=none;strokeColor=none;spacingTop=-3;spacingBottom=-3;spacingLeft=-3;spacingRight=-3;labelBackgroundColor=none;rounded=1;html=1;whiteSpace=wrap;" parent="1" vertex="1">
          <mxGeometry x="1323" y="540" width="207" height="210" as="geometry" />
        </mxCell>
        <mxCell id="aldpSXv1bzGrkSbbX8es-9" style="vsdxID=114;fillColor=#f0f0f0;gradientColor=none;shape=stencil(fZPdcoMgEIWfhlsHWDXhspMmL9AncJRUplYzxDSapw9xpfyExCvcPQe+XVgCu3NbnSTh9Dzq4UdeVTO2BD4J56pvpVajWRHYE9gdBy2/9XDpG/w/VUbJ6RKRDXrYQ81ppesvdZMYoxmwTYEJdP4Of48TpzWPqXndIcvFEjigtr5oFLNQbX+zQlDvgxzzE7f5crM6eLDBBPa8AlYBWAsrHAH9MBCd6j1gsc3ybQAdWp6hhTA9iMBDTkZphPmqMIgNkGpcAts5/ssoy3fUzuDKyFnI7VcWl2JR/X5F9C9Z3a0kDIlX4a45hp/Ce5/5cy0QKiDZnwTl+5drFsuI4PCorsMJ8/PxSJkQjiPs7w==);strokeColor=#bfbfbf;spacingTop=-3;spacingBottom=-3;spacingLeft=-3;spacingRight=-3;labelBackgroundColor=none;rounded=1;html=1;whiteSpace=wrap;" parent="aldpSXv1bzGrkSbbX8es-8" vertex="1">
          <mxGeometry width="207" height="210" as="geometry" />
        </mxCell>
        <mxCell id="aldpSXv1bzGrkSbbX8es-10" value="&lt;p style=&quot;align:center;margin-left:0;margin-right:0;margin-top:0px;margin-bottom:0px;text-indent:0;valign:middle;direction:ltr;&quot;&gt;&lt;font style=&quot;font-size:9px;font-family:Arial;color:#000000;direction:ltr;letter-spacing:0px;line-height:100%;opacity:1&quot;&gt;Protected A&lt;br/&gt;&lt;/font&gt;&lt;/p&gt;" style="text;vsdxID=113;fillColor=none;gradientColor=none;strokeColor=none;spacingTop=-3;spacingBottom=-3;spacingLeft=-3;spacingRight=-3;labelBackgroundColor=none;rounded=1;html=1;whiteSpace=wrap;verticalAlign=middle;align=center;;html=1;" parent="aldpSXv1bzGrkSbbX8es-8" vertex="1">
          <mxGeometry x="12.7" y="10.482278481012658" width="182.88" height="11.253164556962025" as="geometry" />
        </mxCell>
        <mxCell id="aldpSXv1bzGrkSbbX8es-11" style="vsdxID=117;fillColor=none;gradientColor=none;fillOpacity=0;strokeOpacity=0;spacingTop=-3;spacingBottom=-3;spacingLeft=-3;spacingRight=-3;labelBackgroundColor=none;rounded=1;strokeColor=none;html=1;whiteSpace=wrap;" parent="aldpSXv1bzGrkSbbX8es-8" vertex="1">
          <mxGeometry x="96" y="186.07594936708858" width="111" height="23.924050632911392" as="geometry" />
        </mxCell>
        <mxCell id="aldpSXv1bzGrkSbbX8es-12" style="vsdxID=118;fillColor=#ffffff;gradientColor=none;fillOpacity=0;strokeOpacity=0;shape=stencil(hZNNcsMgDIVPw5YRkn+XnTS5QE/giWnN1LUzxGmdnr6ORaYoJSkrkN6DT4AUbY5dc7AK4Tj58d1+uXbqFD0rRDd01rtpmSnaKtq8jt6++fE0tLw+NIsSYY3Ylj3mokZo/P7FfVuOgSZT5pxg58f4eTlxDnlOncMORufFGtmxeH/yrDZSHpa5hrKORsXpGcN2GsPRZxT+mXiJuiqCgGLBejo8LQC9GyLautSmEMTwiLaudCmB4QYQQANKxHs1UcJCyWtLgAsXh6pKZ9kjeuG5VpTpGmUNUZFxVZnEjm+O/sjuYUfvk/YkqH/f3CRw5D+4EsdlkVRQ8rYSrP/85GWy9gx3k+t7brk4f9tjS4j7k7Y/);spacingTop=-3;spacingBottom=-3;spacingLeft=-3;spacingRight=-3;labelBackgroundColor=none;rounded=1;html=1;whiteSpace=wrap;" parent="aldpSXv1bzGrkSbbX8es-11" vertex="1">
          <mxGeometry width="111" height="23.924050632911392" as="geometry" />
        </mxCell>
        <mxCell id="aldpSXv1bzGrkSbbX8es-13" value="&lt;p style=&quot;align:right;margin-left:0;margin-right:0;margin-top:0px;margin-bottom:0px;text-indent:0;valign:middle;direction:ltr;&quot;&gt;&lt;font style=&quot;font-family: Arial; color: rgb(0, 0, 0); direction: ltr; letter-spacing: 0px; line-height: 100%; opacity: 1; font-size: 13px;&quot;&gt;172.16.137.0/24&amp;nbsp;&lt;/font&gt;&lt;/p&gt;" style="text;vsdxID=117;fillColor=none;gradientColor=none;fillOpacity=0;strokeOpacity=0;spacingTop=-3;spacingBottom=-3;spacingLeft=-3;spacingRight=-3;labelBackgroundColor=none;rounded=1;strokeColor=none;html=1;whiteSpace=wrap;verticalAlign=middle;align=right;;html=1;" parent="aldpSXv1bzGrkSbbX8es-11" vertex="1">
          <mxGeometry y="-0.3721518987341772" width="111.13" height="24.756962025316454" as="geometry" />
        </mxCell>
        <mxCell id="aldpSXv1bzGrkSbbX8es-14" value="" style="aspect=fixed;html=1;points=[];align=center;image;fontSize=12;image=img/lib/azure2/networking/Route_Tables.svg;rounded=1;sketch=0;strokeColor=#007fff;fillColor=#FFFFFF;gradientColor=none;gradientDirection=south;fontFamily=Helvetica;" parent="aldpSXv1bzGrkSbbX8es-8" vertex="1">
          <mxGeometry x="4" y="177.2151898734177" width="29.267088607594935" height="28.354430379746834" as="geometry" />
        </mxCell>
        <mxCell id="aldpSXv1bzGrkSbbX8es-27" value="Server&#xa;.4" style="shape=image;verticalLabelPosition=bottom;verticalAlign=top;imageAspect=0;aspect=fixed;image=data:image/svg+xml,PHN2ZyB4bWxucz0iaHR0cDovL3d3dy53My5vcmcvMjAwMC9zdmciIGRhdGEtbmFtZT0iZmx1ZW50X2ljb25zIiB2aWV3Qm94PSIwIDAgMTggMTgiPjxkZWZzPjxsaW5lYXJHcmFkaWVudCBpZD0iYSIgeDE9IjguODgiIHkxPSIxMi4yMSIgeDI9IjguODgiIHkyPSIuMjEiIGdyYWRpZW50VW5pdHM9InVzZXJTcGFjZU9uVXNlIj48c3RvcCBvZmZzZXQ9IjAiIHN0b3AtY29sb3I9IiMwMDc4ZDQiLz48c3RvcCBvZmZzZXQ9Ii44MiIgc3RvcC1jb2xvcj0iIzVlYTBlZiIvPjwvbGluZWFyR3JhZGllbnQ+PGxpbmVhckdyYWRpZW50IGlkPSJiIiB4MT0iOC44OCIgeTE9IjE2Ljg0IiB4Mj0iOC44OCIgeTI9IjEyLjIxIiBncmFkaWVudFVuaXRzPSJ1c2VyU3BhY2VPblVzZSI+PHN0b3Agb2Zmc2V0PSIuMTUiIHN0b3AtY29sb3I9IiNjY2MiLz48c3RvcCBvZmZzZXQ9IjEiIHN0b3AtY29sb3I9IiM3MDcwNzAiLz48L2xpbmVhckdyYWRpZW50PjwvZGVmcz48cmVjdCB4PSItLjEyIiB5PSIuMjEiIHdpZHRoPSIxOCIgaGVpZ2h0PSIxMiIgcng9Ii42IiBmaWxsPSJ1cmwoI2EpIi8+PHBhdGggZmlsbD0iIzUwZTZmZiIgZD0iTTExLjg4IDQuNDZ2My40OWwtMyAxLjc2di0zLjVsMy0xLjc1eiIvPjxwYXRoIGZpbGw9IiNjM2YxZmYiIGQ9Ik0xMS44OCA0LjQ2bC0zIDEuNzYtMy0xLjc2IDMtMS43NSAzIDEuNzV6Ii8+PHBhdGggZmlsbD0iIzljZWJmZiIgZD0iTTguODggNi4yMnYzLjQ5bC0zLTEuNzZWNC40NmwzIDEuNzZ6Ii8+PHBhdGggZmlsbD0iI2MzZjFmZiIgZD0iTTUuODggNy45NWwzLTEuNzR2My41bC0zLTEuNzZ6Ii8+PHBhdGggZmlsbD0iIzljZWJmZiIgZD0iTTExLjg4IDcuOTVsLTMtMS43NHYzLjVsMy0xLjc2eiIvPjxwYXRoIGQ9Ik0xMi40OSAxNS44NGMtMS43OC0uMjgtMS44NS0xLjU2LTEuODUtMy42M0g3LjExYzAgMi4wNy0uMDYgMy4zNS0xLjg0IDMuNjNhMSAxIDAgMDAtLjg5IDFoOWExIDEgMCAwMC0uODktMXoiIGZpbGw9InVybCgjYikiLz48L3N2Zz4=;rounded=1;sketch=0;fontSize=12;strokeColor=#007fff;fillColor=#FFFFFF;gradientColor=none;gradientDirection=south;strokeWidth=2;" parent="aldpSXv1bzGrkSbbX8es-8" vertex="1">
          <mxGeometry x="80.63999999999987" y="81.5" width="47" height="47" as="geometry" />
        </mxCell>
        <mxCell id="aldpSXv1bzGrkSbbX8es-15" value="" style="vsdxID=12;fillColor=#f0f0f0;gradientColor=none;shape=stencil(hZNRcoMgEIZPwysDrJjw2EmTC/QETqSVqdUMMa3p6UtcNIAk9Qn+/Ve+XVgCu3NTnTQR7DzY/lP/mHpoCLwSIUzXaGsGtyKwJ7B7763+sP2lq3F/qpxTsEnRNebwm1uwyh7fzK9GjVHgG4kBzPzqv28njj6OoevsVsUkHNB7vFg089g9b2nBVPCVJcZHMcfLjc8Q0Q9G8MRUFt4AoWE6nr04gtZ0Aa3a0kLGxM9wlaIgEuSY0DmUShAfFQXrFMi1Lccd5CwKk/+wLyl3SW5X/EuFXuIsaXLYNIg9j3iDe8kkZN7F/aJ5ShHf/FWsa4HYAdkOZSifv123mIYEx8e0Lc5YGE+Hykk4kLD/Aw==);strokeColor=#bfbfbf;spacingTop=-3;spacingBottom=-3;spacingLeft=-3;spacingRight=-3;labelBackgroundColor=none;rounded=1;html=1;whiteSpace=wrap;" parent="1" vertex="1">
          <mxGeometry x="783" y="539" width="206" height="211" as="geometry" />
        </mxCell>
        <mxCell id="aldpSXv1bzGrkSbbX8es-16" value="" style="group" parent="1" vertex="1" connectable="0">
          <mxGeometry x="783" y="540" width="206" height="210" as="geometry" />
        </mxCell>
        <mxCell id="aldpSXv1bzGrkSbbX8es-17" value="&lt;p style=&quot;align:center;margin-left:0;margin-right:0;margin-top:0px;margin-bottom:0px;text-indent:0;valign:middle;direction:ltr;&quot;&gt;&lt;font style=&quot;font-size:9px;font-family:Arial;color:#000000;direction:ltr;letter-spacing:0px;line-height:100%;opacity:1&quot;&gt;External&lt;/font&gt;&lt;/p&gt;" style="text;vsdxID=11;fillColor=none;gradientColor=none;strokeColor=none;spacingTop=-3;spacingBottom=-3;spacingLeft=-3;spacingRight=-3;labelBackgroundColor=none;rounded=1;html=1;whiteSpace=wrap;verticalAlign=middle;align=center;;html=1;" parent="aldpSXv1bzGrkSbbX8es-16" vertex="1">
          <mxGeometry x="12.699999999999989" y="7.666567164179098" width="180.98" height="7.961194029850745" as="geometry" />
        </mxCell>
        <mxCell id="aldpSXv1bzGrkSbbX8es-18" value="&lt;span style=&quot;&quot;&gt;&amp;nbsp;172.16.136.0/26&lt;/span&gt;" style="text;html=1;strokeColor=none;fillColor=none;align=left;verticalAlign=middle;whiteSpace=wrap;rounded=0;fontFamily=Helvetica;fontSize=10;" parent="aldpSXv1bzGrkSbbX8es-16" vertex="1">
          <mxGeometry y="180" width="90" height="30" as="geometry" />
        </mxCell>
        <mxCell id="aldpSXv1bzGrkSbbX8es-47" style="edgeStyle=orthogonalEdgeStyle;rounded=0;orthogonalLoop=1;jettySize=auto;html=1;entryX=1.028;entryY=0.806;entryDx=0;entryDy=0;entryPerimeter=0;strokeColor=#6600CC;strokeWidth=2;" parent="aldpSXv1bzGrkSbbX8es-16" target="aldpSXv1bzGrkSbbX8es-24" edge="1">
          <mxGeometry relative="1" as="geometry">
            <Array as="points">
              <mxPoint x="137" y="40" />
              <mxPoint x="137" y="98" />
            </Array>
            <mxPoint x="-19.809999999999945" y="40" as="sourcePoint" />
            <mxPoint x="226.19000000000005" y="-20" as="targetPoint" />
          </mxGeometry>
        </mxCell>
        <mxCell id="aldpSXv1bzGrkSbbX8es-52" style="vsdxID=157;fillColor=none;gradientColor=none;strokeOpacity=0;strokeWidth=2;spacingTop=-3;spacingBottom=-3;spacingLeft=-3;spacingRight=-3;points=[[0,0.5,0],[1,0.5,0],[0.5,1,0],[0.5,0,0]];labelBackgroundColor=none;rounded=1;strokeColor=none;html=1;whiteSpace=wrap;arcSize=0;" parent="aldpSXv1bzGrkSbbX8es-16" vertex="1">
          <mxGeometry x="147" y="33" width="22" height="23" as="geometry" />
        </mxCell>
        <mxCell id="aldpSXv1bzGrkSbbX8es-53" style="vsdxID=158;fillColor=#3999c6;gradientColor=none;strokeOpacity=0;shape=stencil(hVPRkoIwDPyavnZCAhYebzz9Ab+AkXp0zhOmonL39RbS4VoHoU9hs9ssYRG0vdZlqwXCtbPNt36YqqsFfQpEc6m1NZ2rBO0EbU+N1V+2uV0qfm5Lx0QYEV2xJhnYCKU9HsyfZgwkJSrjBit/mvswsfcaAAkF938ZyhyCI7JnxfFmWZIEmrwIjtf7vlJSbRjqcYIy5Vk43eI5xEBayDz3HIo5oxH4mPGCKFMFwcHYy/8UPxZiF6FXihk0u45ZFxAPdaYwDTwlsYW3nmOLC3tZ20q47thijyvfEJdfgWZis7AoV49J5Qyb85mDPkXLFa/JdhD/FbR7Ag==);strokeWidth=2;spacingTop=-3;spacingBottom=-3;spacingLeft=-3;spacingRight=-3;points=[[0,0.5,0],[1,0.5,0],[0.5,1,0],[0.5,0,0]];labelBackgroundColor=none;rounded=1;html=1;whiteSpace=wrap;" parent="aldpSXv1bzGrkSbbX8es-52" vertex="1">
          <mxGeometry width="22" height="23" as="geometry" />
        </mxCell>
        <mxCell id="aldpSXv1bzGrkSbbX8es-54" value="&lt;div style=&quot;font-size: 1px&quot;&gt;&lt;p style=&quot;align:center;margin-left:0;margin-right:0;margin-top:0px;margin-bottom:0px;text-indent:0;valign:middle;direction:ltr;&quot;&gt;&lt;font style=&quot;font-size:16.93px;font-family:Arial;color:#ffffff;direction:ltr;letter-spacing:0px;line-height:100%;opacity:1&quot;&gt;2&lt;/font&gt;&lt;/p&gt;&lt;/div&gt;" style="text;vsdxID=157;fillColor=none;gradientColor=none;strokeOpacity=0;strokeWidth=2;spacingTop=-3;spacingBottom=-3;spacingLeft=-3;spacingRight=-3;points=[[0,0.5,0],[1,0.5,0],[0.5,1,0],[0.5,0,0]];labelBackgroundColor=none;rounded=1;strokeColor=none;html=1;whiteSpace=wrap;verticalAlign=middle;align=center;;html=1;" parent="aldpSXv1bzGrkSbbX8es-52" vertex="1">
          <mxGeometry x="3.18" y="3.06" width="15.88" height="17.15" as="geometry" />
        </mxCell>
        <mxCell id="aldpSXv1bzGrkSbbX8es-19" style="vsdxID=156;edgeStyle=orthogonalEdgeStyle;startArrow=none;endArrow=none;startSize=5;endSize=5;strokeColor=#000000;spacingTop=-3;spacingBottom=-3;spacingLeft=-3;spacingRight=-3;verticalAlign=middle;html=1;labelBackgroundColor=none;rounded=1;curved=1;exitX=0.977;exitY=0.538;exitDx=0;exitDy=0;exitPerimeter=0;" parent="1" source="aldpSXv1bzGrkSbbX8es-5" target="aldpSXv1bzGrkSbbX8es-24" edge="1">
          <mxGeometry relative="1" as="geometry">
            <Array as="points">
              <mxPoint x="823" y="586" />
              <mxPoint x="823" y="640" />
            </Array>
            <mxPoint x="663" y="639.5000000000001" as="sourcePoint" />
            <mxPoint x="817" y="717" as="targetPoint" />
          </mxGeometry>
        </mxCell>
        <mxCell id="aldpSXv1bzGrkSbbX8es-20" value="" style="group" parent="1" vertex="1" connectable="0">
          <mxGeometry x="953" y="600" width="156.13000000000005" height="95" as="geometry" />
        </mxCell>
        <mxCell id="aldpSXv1bzGrkSbbX8es-21" value=".4" style="text;html=1;strokeColor=none;fillColor=none;align=center;verticalAlign=middle;whiteSpace=wrap;rounded=0;fontSize=13;movable=1;resizable=1;rotatable=1;deletable=1;editable=1;connectable=1;direction=east;container=0;" parent="aldpSXv1bzGrkSbbX8es-20" vertex="1">
          <mxGeometry x="5.680000000000064" y="62" width="24" height="30" as="geometry" />
        </mxCell>
        <mxCell id="aldpSXv1bzGrkSbbX8es-22" value=".68" style="text;html=1;strokeColor=none;fillColor=none;align=center;verticalAlign=middle;whiteSpace=wrap;rounded=0;fontSize=13;movable=1;resizable=1;rotatable=1;deletable=1;editable=1;connectable=1;direction=east;container=0;" parent="aldpSXv1bzGrkSbbX8es-20" vertex="1">
          <mxGeometry x="127.57" y="62" width="24" height="30" as="geometry" />
        </mxCell>
        <mxCell id="aldpSXv1bzGrkSbbX8es-24" value="" style="aspect=fixed;html=1;points=[];align=center;image;fontSize=12;image=img/lib/azure2/networking/Network_Interfaces.svg;strokeWidth=2;rotation=-180;movable=1;resizable=1;rotatable=1;deletable=1;editable=1;connectable=1;direction=east;container=0;" parent="aldpSXv1bzGrkSbbX8es-20" vertex="1">
          <mxGeometry y="32" width="35.13" height="31" as="geometry" />
        </mxCell>
        <mxCell id="aldpSXv1bzGrkSbbX8es-25" value="" style="aspect=fixed;html=1;points=[];align=center;image;fontSize=12;image=img/lib/azure2/networking/Network_Interfaces.svg;strokeWidth=2;movable=1;resizable=1;rotatable=1;deletable=1;editable=1;connectable=1;direction=east;container=0;" parent="aldpSXv1bzGrkSbbX8es-20" vertex="1">
          <mxGeometry x="121.00000000000006" y="32" width="35.13" height="31" as="geometry" />
        </mxCell>
        <mxCell id="i5hs7WRsxqoz2VFO_gUb-1" value="" style="shape=image;verticalLabelPosition=bottom;verticalAlign=top;imageAspect=0;aspect=fixed;image=data:image/svg+xml,PHN2ZyB4bWxucz0iaHR0cDovL3d3dy53My5vcmcvMjAwMC9zdmciIHZpZXdCb3g9IjEyLjIwMDAwMDc2MjkzOTQ1MyAyNS41Mjk5OTg3NzkyOTY4NzUgMTY3LjYwMDAwNjEwMzUxNTYyIDE0MC45NzAwMTY0Nzk0OTIyIiBkYXRhLW5hbWU9IlNlY3VyaXR5IE5ldHdvcmtpbmciIGlkPSJTZWN1cml0eV9OZXR3b3JraW5nIiB3aWR0aD0iMTY3LjYwMDAwNjEwMzUxNTYyIiBoZWlnaHQ9IjE0MC45NzAwMTY0Nzk0OTIyIj4mI3hhOyAgPGRlZnM+JiN4YTsgICAgPHN0eWxlPiYjeGE7ICAgICAgLmNscy0xIHsmI3hhOyAgICAgICAgZmlsbDogbm9uZTsmI3hhOyAgICAgICAgc3Ryb2tlOiAjNDY0NjQ2OyYjeGE7ICAgICAgICBzdHJva2UtbGluZWNhcDogcm91bmQ7JiN4YTsgICAgICAgIHN0cm9rZS1saW5lam9pbjogcm91bmQ7JiN4YTsgICAgICAgIHN0cm9rZS13aWR0aDogNHB4OyYjeGE7ICAgICAgfSYjeGE7JiN4YTsgICAgICAuY2xzLTIgeyYjeGE7ICAgICAgICBmaWxsOiAjNDY0NjQ2OyYjeGE7ICAgICAgfSYjeGE7JiN4YTsgICAgICAuY2xzLTIsIC5jbHMtMyB7JiN4YTsgICAgICAgIHN0cm9rZS13aWR0aDogMHB4OyYjeGE7ICAgICAgfSYjeGE7JiN4YTsgICAgICAuY2xzLTMgeyYjeGE7ICAgICAgICBmaWxsOiAjMzA3ZmUyOyYjeGE7ICAgICAgfSYjeGE7ICAgIDwvc3R5bGU+JiN4YTsgIDwvZGVmcz4mI3hhOyAgPGc+JiN4YTsgICAgPGc+JiN4YTsgICAgICA8cGF0aCBkPSJtNTUuMTEsMTI1LjM5djM5LjFoLTI5Ljc2Yy02LjE1LDAtMTEuMTQtNC45OC0xMS4xNC0xMS4xNHYtMzQuNTFoMzcuMDNjMS4xMiwyLjI4LDIuNDIsNC40NywzLjg3LDYuNTRaIiBjbGFzcz0iY2xzLTMiLz4mI3hhOyAgICAgIDxwYXRoIGQ9Im01NS4xMSwxNjYuNDloLTI5Ljc2Yy03LjI1LDAtMTMuMTUtNS44OS0xMy4xNS0xMy4xNHYtMzQuNTFjMC0xLjEuOS0yLDItMmgzNy4wM2MuNzYsMCwxLjQ2LjQzLDEuNzksMS4xMiwxLjA3LDIuMTcsMi4zMiw0LjI4LDMuNzEsNi4yNy4yNC4zNC4zNi43NC4zNiwxLjE1djM5LjFjMCwxLjEtLjksMi0yLDJabS0zOC45LTQ1LjY0djMyLjUxYzAsNS4wNCw0LjEsOS4xNCw5LjE1LDkuMTRoMjcuNzZ2LTM2LjQ4Yy0xLjEzLTEuNjYtMi4xNy0zLjM5LTMuMS01LjE2SDE2LjIxWiIgY2xhc3M9ImNscy0yIi8+JiN4YTsgICAgPC9nPiYjeGE7ICAgIDxnPiYjeGE7ICAgICAgPHBhdGggZD0ibTE3Ny43OSwxMTguODV2MzQuNTFjMCw2LjE1LTQuOTgsMTEuMTQtMTEuMTQsMTEuMTRoLTI5LjYxdi0zNS44NWMyLjQ3LTMsNC42LTYuMjgsNi4zMy05Ljc5aDM0LjQyWiIgY2xhc3M9ImNscy0zIi8+JiN4YTsgICAgICA8cGF0aCBkPSJtMTY2LjY2LDE2Ni40OWgtMjkuNjFjLTEuMSwwLTItLjktMi0ydi0zNS44NWMwLS40Ni4xNi0uOTEuNDYtMS4yNywyLjM5LTIuOSw0LjQzLTYuMDYsNi4wOC05LjQuMzQtLjY4LDEuMDMtMS4xMiwxLjc5LTEuMTJoMzQuNDJjMS4xLDAsMiwuOSwyLDJ2MzQuNTFjMCw3LjI0LTUuODksMTMuMTQtMTMuMTQsMTMuMTRabS0yNy42MS00aDI3LjYxYzUuMDQsMCw5LjE0LTQuMSw5LjE0LTkuMTR2LTMyLjUxaC0zMS4xOWMtMS41NywyLjk5LTMuNDMsNS44NS01LjU1LDguNXYzMy4xNFoiIGNsYXNzPSJjbHMtMiIvPiYjeGE7ICAgIDwvZz4mI3hhOyAgICA8Zz4mI3hhOyAgICAgIDxwYXRoIGQ9Im0xMzcuMDUsMTI4LjYzdjM1Ljg1SDU1LjEydi0zOS4wOWMuOTUsMS4zNiwxLjk3LDIuNjcsMy4wNCwzLjkzLDcuNTcsOC45LDE4LjEyLDE1LjE3LDMwLjA5LDE3LjMxLDIuOTMuNTMsNS45OC44LDkuMDcuOCwyLjQ1LDAsNC44Ny0uMTcsNy4yNC0uNTIsMTIuNDEtMS43NSwyMy4zOS03LjkxLDMxLjI5LTE2Ljg3LjQxLS40NS44MS0uOTIsMS4yLTEuNFoiIGNsYXNzPSJjbHMtMyIvPiYjeGE7ICAgICAgPHBhdGggZD0ibTEzNy4wNSwxNjYuNDhINTUuMTJjLTEuMSwwLTItLjktMi0ydi0zOS4wOWMwLS44Ny41Ny0xLjY0LDEuNC0xLjkxLjgzLS4yNiwxLjc0LjA0LDIuMjQuNzYuOTEsMS4zLDEuOSwyLjU4LDIuOTMsMy43OCw3LjQyLDguNzIsMTcuNjksMTQuNjMsMjguOTIsMTYuNjQsNS4wMi45MSwxMC41MywxLjAxLDE1LjY3LjI3LDExLjYyLTEuNjQsMjIuMy03LjQsMzAuMDgtMTYuMjEuMzktLjQ0Ljc4LS44OCwxLjE1LTEuMzQuNTMtLjY2LDEuNDItLjkxLDIuMjItLjYzLjguMjgsMS4zMywxLjA0LDEuMzMsMS44OXYzNS44NWMwLDEuMS0uOSwyLTIsMlptLTc5LjkzLTRoNzcuOTN2LTI4LjY3Yy04LjE1LDguMTUtMTguNzYsMTMuNDctMzAuMjEsMTUuMDgtNS41NS44LTExLjUuNjktMTYuOTQtLjI5LTExLjg5LTIuMTItMjIuOC04LjMtMzAuNzgtMTcuNDJ2MzEuMzFaIiBjbGFzcz0iY2xzLTIiLz4mI3hhOyAgICA8L2c+JiN4YTsgICAgPGc+JiN4YTsgICAgICA8cGF0aCBkPSJtNTUuMTEsMjcuNTN2MzkuMTFjLTEuNDUsMi4wNy0yLjc1LDQuMjYtMy44Nyw2LjU0SDE0LjIxdi0zNC41MmMwLTYuMTUsNC45OS0xMS4xMywxMS4xNC0xMS4xM2gyOS43NloiIGNsYXNzPSJjbHMtMyIvPiYjeGE7ICAgICAgPHBhdGggZD0ibTUxLjI0LDc1LjE4SDE0LjIxYy0xLjEsMC0yLS45LTItMnYtMzQuNTJjMC03LjI0LDUuOS0xMy4xMywxMy4xNS0xMy4xM2gyOS43NmMxLjEsMCwyLC45LDIsMnYzOS4xMWMwLC40MS0uMTMuODEtLjM2LDEuMTUtMS40LDEuOTktMi42NSw0LjEtMy43MSw2LjI3LS4zNC42OC0xLjAzLDEuMTItMS43OSwxLjEyWm0tMzUuMDMtNGgzMy44Yy45My0xLjc3LDEuOTctMy41MSwzLjEtNS4xNlYyOS41M2gtMjcuNzZjLTUuMDQsMC05LjE1LDQuMS05LjE1LDkuMTN2MzIuNTJaIiBjbGFzcz0iY2xzLTIiLz4mI3hhOyAgICA8L2c+JiN4YTsgICAgPGc+JiN4YTsgICAgICA8cGF0aCBkPSJtMTc3LjcyLDM4LjY3djM0LjUyaC0zNC4zNWMtMS43My0zLjUxLTMuODYtNi43OS02LjMzLTkuNzlWMjcuNTNoMjkuNTVjNi4xNSwwLDExLjE0LDQuOTgsMTEuMTQsMTEuMTNaIiBjbGFzcz0iY2xzLTMiLz4mI3hhOyAgICAgIDxwYXRoIGQ9Im0xNzcuNzIsNzUuMThoLTM0LjM1Yy0uNzYsMC0xLjQ2LS40My0xLjc5LTEuMTItMS42NS0zLjM0LTMuNjktNi41LTYuMDgtOS40LS4yOS0uMzYtLjQ2LS44MS0uNDYtMS4yN1YyNy41M2MwLTEuMS45LTIsMi0yaDI5LjU1YzcuMjQsMCwxMy4xNCw1Ljg5LDEzLjE0LDEzLjEzdjM0LjUyYzAsMS4xLS45LDItMiwyWm0tMzMuMTMtNGgzMS4xM3YtMzIuNTJjMC01LjA0LTQuMS05LjEzLTkuMTQtOS4xM2gtMjcuNTV2MzMuMTVjMi4xMiwyLjY1LDMuOTksNS41MSw1LjU1LDguNVoiIGNsYXNzPSJjbHMtMiIvPiYjeGE7ICAgIDwvZz4mI3hhOyAgICA8Zz4mI3hhOyAgICAgIDxwYXRoIGQ9Im0xMzcuMDQsMjcuNTN2MzUuODZjLTkuNDItMTEuNDctMjMuNzItMTguNzktMzkuNzMtMTguNzktMTcuNDcsMC0zMi45MSw4LjcyLTQyLjIsMjIuMDRWMjcuNTNoODEuOTNaIiBjbGFzcz0iY2xzLTMiLz4mI3hhOyAgICAgIDxwYXRoIGQ9Im01NS4xMSw2OC42NGMtLjIsMC0uNC0uMDMtLjYtLjA5LS44My0uMjYtMS40LTEuMDMtMS40LTEuOTFWMjcuNTNjMC0xLjEuOS0yLDItMmg4MS45M2MxLjEsMCwyLC45LDIsMnYzNS44NmMwLC44NC0uNTMsMS42LTEuMzMsMS44OC0uOC4yOS0xLjY4LjA0LTIuMjItLjYxLTkuNDItMTEuNDgtMjMuMzQtMTguMDYtMzguMTktMTguMDYtMTYuMTUsMC0zMS4zMSw3LjkyLTQwLjU2LDIxLjE4LS4zOC41NS0xLC44Ni0xLjY0Ljg2Wm0yLTM5LjExdjMxLjMyYzEwLjA5LTExLjUxLDI0LjcyLTE4LjI0LDQwLjItMTguMjQsMTQuMjgsMCwyNy43Niw1LjYzLDM3LjczLDE1LjYxdi0yOC42OEg1Ny4xMVoiIGNsYXNzPSJjbHMtMiIvPiYjeGE7ICAgIDwvZz4mI3hhOyAgICA8Zz4mI3hhOyAgICAgIDxwYXRoIGQ9Im01MS4yMyw3My4xOWMtMy40Miw2Ljg4LTUuMzMsMTQuNjItNS4zMywyMi44MnMxLjkyLDE1Ljk0LDUuMzMsMjIuODJIMTQuMjF2LTQ1LjY0aDM3LjAyWiIgY2xhc3M9ImNscy0zIi8+JiN4YTsgICAgICA8cGF0aCBkPSJtNTEuMjMsMTIwLjg0SDE0LjIxYy0xLjEsMC0yLS45LTItMnYtNDUuNjRjMC0xLjEuOS0yLDItMmgzNy4wMmMuNjksMCwxLjMzLjM2LDEuNy45NXMuNCwxLjMyLjA5LDEuOTRjLTMuNCw2Ljg1LTUuMTIsMTQuMjItNS4xMiwyMS45M3MxLjcyLDE1LjA5LDUuMTIsMjEuOTNjLjMxLjYyLjI3LDEuMzUtLjA5LDEuOTQtLjM2LjU5LTEuMDEuOTUtMS43Ljk1Wm0tMzUuMDItNGgzMS45Yy0yLjc5LTYuNTgtNC4yMS0xMy41Ni00LjIxLTIwLjgyczEuNDEtMTQuMjUsNC4yMS0yMC44MmgtMzEuOXY0MS42NFoiIGNsYXNzPSJjbHMtMiIvPiYjeGE7ICAgIDwvZz4mI3hhOyAgICA8Zz4mI3hhOyAgICAgIDxwYXRoIGQ9Im0xNzcuNzIsNzMuMTl2NDUuNjRoLTM0LjM0YzMuNDEtNi44OCw1LjMzLTE0LjYyLDUuMzMtMjIuODJzLTEuOTItMTUuOTQtNS4zMy0yMi44MmgzNC4zNFoiIGNsYXNzPSJjbHMtMyIvPiYjeGE7ICAgICAgPHBhdGggZD0ibTE3Ny43MiwxMjAuODRoLTM0LjM0Yy0uNjksMC0xLjMzLS4zNi0xLjctLjk1LS4zNi0uNTktLjQtMS4zMi0uMDktMS45NCwzLjQtNi44NSw1LjEyLTE0LjIzLDUuMTItMjEuOTNzLTEuNzItMTUuMDktNS4xMi0yMS45M2MtLjMxLS42Mi0uMjctMS4zNS4wOS0xLjk0LjM2LS41OSwxLjAxLS45NSwxLjctLjk1aDM0LjM0YzEuMSwwLDIsLjksMiwydjQ1LjY0YzAsMS4xLS45LDItMiwyWm0tMzEuMjItNGgyOS4yMnYtNDEuNjRoLTI5LjIyYzIuNzksNi41OCw0LjIxLDEzLjU2LDQuMjEsMjAuODJzLTEuNDEsMTQuMjUtNC4yMSwyMC44MloiIGNsYXNzPSJjbHMtMiIvPiYjeGE7ICAgIDwvZz4mI3hhOyAgPC9nPiYjeGE7ICA8Zz4mI3hhOyAgICA8cGF0aCBkPSJtOTYuMDYsMTEwLjMxYzExLjQ2LDAsMjIuNTQsMS42NSwzMyw0LjczIiBjbGFzcz0iY2xzLTEiLz4mI3hhOyAgICA8cGF0aCBkPSJtMTM0LjA2LDk2LjAxYzAsNi45Mi0xLjg1LDEzLjQxLTUuMDgsMTktNi41NywxMS4zNC0xOC44MywxOC45Ny0zMi44OSwxOC45N1Y1OC4wNWMxNC4yMiwwLDI2LjYxLDcuODIsMzMuMTIsMTkuMzksMy4wNSw1LjQyLDQuODEsMTEuNjYsNC44NSwxOC4zMSwwLC4wOSwwLC4xOCwwLC4yN1oiIGNsYXNzPSJjbHMtMSIvPiYjeGE7ICAgIDxwYXRoIGQ9Im05Ni4wNiw1OC4xYzEyLjk5LDcuNjQsMjEuNzEsMjEuNzYsMjEuNzEsMzcuOTJzLTguNzIsMzAuMjgtMjEuNzEsMzcuOTIiIGNsYXNzPSJjbHMtMSIvPiYjeGE7ICAgIDxwYXRoIGQ9Im0xMjkuMjUsNzcuNDJjLTEwLjUxLDMuMS0yMS42NCw0Ljc3LTMzLjE2LDQuNzciIGNsYXNzPSJjbHMtMSIvPiYjeGE7ICAgIDxwYXRoIGQ9Im05Ni4xLDExMC4zMWMtMTEuNDYsMC0yMi41NCwxLjY1LTMzLDQuNzMiIGNsYXNzPSJjbHMtMSIvPiYjeGE7ICAgIDxwYXRoIGQ9Im01OC4xLDk2LjAxYzAsNi45MiwxLjg1LDEzLjQxLDUuMDgsMTksNi41NywxMS4zNCwxOC44MywxOC45NywzMi44OSwxOC45N1Y1OC4wNWMtMTQuMjIsMC0yNi42MSw3LjgyLTMzLjEyLDE5LjM5LTMuMDUsNS40Mi00LjgxLDExLjY2LTQuODUsMTguMzEsMCwuMDksMCwuMTgsMCwuMjdaIiBjbGFzcz0iY2xzLTEiLz4mI3hhOyAgICA8cGF0aCBkPSJtOTYuMSw1OC4xYy0xMi45OSw3LjY0LTIxLjcxLDIxLjc2LTIxLjcxLDM3LjkyczguNzIsMzAuMjgsMjEuNzEsMzcuOTIiIGNsYXNzPSJjbHMtMSIvPiYjeGE7ICAgIDxwYXRoIGQ9Im02Mi45MSw3Ny40MmMxMC41MSwzLjEsMjEuNjQsNC43NywzMy4xNiw0Ljc3IiBjbGFzcz0iY2xzLTEiLz4mI3hhOyAgICA8bGluZSB5Mj0iOTUuNzUiIHgyPSIxMzQuMDUiIHkxPSI5NS43NSIgeDE9IjU4LjExIiBjbGFzcz0iY2xzLTEiLz4mI3hhOyAgPC9nPiYjeGE7PC9zdmc+" vertex="1" parent="aldpSXv1bzGrkSbbX8es-20">
          <mxGeometry x="31.300000000000068" y="8.25" width="93.53" height="78.5" as="geometry" />
        </mxCell>
        <mxCell id="aldpSXv1bzGrkSbbX8es-28" style="rounded=0;orthogonalLoop=1;jettySize=auto;html=1;entryX=0;entryY=0.25;entryDx=0;entryDy=0;strokeColor=#6600CC;strokeWidth=2;" parent="1" target="aldpSXv1bzGrkSbbX8es-27" edge="1">
          <mxGeometry relative="1" as="geometry">
            <mxPoint x="1110.13" y="639" as="sourcePoint" />
            <mxPoint x="1400.13" y="601" as="targetPoint" />
          </mxGeometry>
        </mxCell>
        <mxCell id="aldpSXv1bzGrkSbbX8es-29" style="rounded=0;orthogonalLoop=1;jettySize=auto;html=1;entryX=0.966;entryY=0.784;entryDx=0;entryDy=0;entryPerimeter=0;strokeColor=#ff8800;strokeWidth=2;" parent="1" source="aldpSXv1bzGrkSbbX8es-27" edge="1">
          <mxGeometry relative="1" as="geometry">
            <mxPoint x="1400.13" y="613" as="sourcePoint" />
            <mxPoint x="1109.13" y="650" as="targetPoint" />
          </mxGeometry>
        </mxCell>
        <mxCell id="aldpSXv1bzGrkSbbX8es-30" style="vsdxID=159;fillColor=none;gradientColor=none;strokeOpacity=0;strokeWidth=2;spacingTop=-3;spacingBottom=-3;spacingLeft=-3;spacingRight=-3;points=[[0,0.5,0],[1,0.5,0],[0.5,1,0],[0.5,0,0]];labelBackgroundColor=none;rounded=1;strokeColor=none;html=1;whiteSpace=wrap;" parent="1" vertex="1">
          <mxGeometry x="1223.13" y="609.89" width="22" height="23" as="geometry" />
        </mxCell>
        <mxCell id="aldpSXv1bzGrkSbbX8es-31" style="vsdxID=160;fillColor=#3999c6;gradientColor=none;strokeOpacity=0;shape=stencil(hVPRkoIwDPyavnZCAhYebzz9Ab+AkXp0zhOmonL39RbS4VoHoU9hs9ssYRG0vdZlqwXCtbPNt36YqqsFfQpEc6m1NZ2rBO0EbU+N1V+2uV0qfm5Lx0QYEV2xJhnYCKU9HsyfZgwkJSrjBit/mvswsfcaAAkF938ZyhyCI7JnxfFmWZIEmrwIjtf7vlJSbRjqcYIy5Vk43eI5xEBayDz3HIo5oxH4mPGCKFMFwcHYy/8UPxZiF6FXihk0u45ZFxAPdaYwDTwlsYW3nmOLC3tZ20q47thijyvfEJdfgWZis7AoV49J5Qyb85mDPkXLFa/JdhD/FbR7Ag==);strokeWidth=2;spacingTop=-3;spacingBottom=-3;spacingLeft=-3;spacingRight=-3;points=[[0,0.5,0],[1,0.5,0],[0.5,1,0],[0.5,0,0]];labelBackgroundColor=none;rounded=1;html=1;whiteSpace=wrap;" parent="aldpSXv1bzGrkSbbX8es-30" vertex="1">
          <mxGeometry width="22" height="23" as="geometry" />
        </mxCell>
        <mxCell id="aldpSXv1bzGrkSbbX8es-32" value="&lt;div style=&quot;font-size: 1px&quot;&gt;&lt;p style=&quot;align:center;margin-left:0;margin-right:0;margin-top:0px;margin-bottom:0px;text-indent:0;valign:middle;direction:ltr;&quot;&gt;&lt;font style=&quot;font-size:16.93px;font-family:Arial;color:#ffffff;direction:ltr;letter-spacing:0px;line-height:100%;opacity:1&quot;&gt;3&lt;/font&gt;&lt;/p&gt;&lt;/div&gt;" style="text;vsdxID=159;fillColor=none;gradientColor=none;strokeOpacity=0;strokeWidth=2;spacingTop=-3;spacingBottom=-3;spacingLeft=-3;spacingRight=-3;points=[[0,0.5,0],[1,0.5,0],[0.5,1,0],[0.5,0,0]];labelBackgroundColor=none;rounded=1;strokeColor=none;html=1;whiteSpace=wrap;verticalAlign=middle;align=center;;html=1;" parent="aldpSXv1bzGrkSbbX8es-30" vertex="1">
          <mxGeometry x="3.18" y="3.06" width="15.88" height="17.15" as="geometry" />
        </mxCell>
        <mxCell id="aldpSXv1bzGrkSbbX8es-33" style="vsdxID=161;fillColor=none;gradientColor=none;strokeOpacity=0;strokeWidth=2;spacingTop=-3;spacingBottom=-3;spacingLeft=-3;spacingRight=-3;points=[[0,0.5,0],[1,0.5,0],[0.5,1,0],[0.5,0,0]];labelBackgroundColor=none;rounded=1;strokeColor=none;html=1;whiteSpace=wrap;" parent="1" vertex="1">
          <mxGeometry x="1223.13" y="656" width="22" height="23" as="geometry" />
        </mxCell>
        <mxCell id="aldpSXv1bzGrkSbbX8es-34" style="vsdxID=162;fillColor=#3999c6;gradientColor=none;strokeOpacity=0;shape=stencil(hVPRkoIwDPyavnZCAhYebzz9Ab+AkXp0zhOmonL39RbS4VoHoU9hs9ssYRG0vdZlqwXCtbPNt36YqqsFfQpEc6m1NZ2rBO0EbU+N1V+2uV0qfm5Lx0QYEV2xJhnYCKU9HsyfZgwkJSrjBit/mvswsfcaAAkF938ZyhyCI7JnxfFmWZIEmrwIjtf7vlJSbRjqcYIy5Vk43eI5xEBayDz3HIo5oxH4mPGCKFMFwcHYy/8UPxZiF6FXihk0u45ZFxAPdaYwDTwlsYW3nmOLC3tZ20q47thijyvfEJdfgWZis7AoV49J5Qyb85mDPkXLFa/JdhD/FbR7Ag==);strokeWidth=2;spacingTop=-3;spacingBottom=-3;spacingLeft=-3;spacingRight=-3;points=[[0,0.5,0],[1,0.5,0],[0.5,1,0],[0.5,0,0]];labelBackgroundColor=none;rounded=1;html=1;whiteSpace=wrap;" parent="aldpSXv1bzGrkSbbX8es-33" vertex="1">
          <mxGeometry width="22" height="23" as="geometry" />
        </mxCell>
        <mxCell id="aldpSXv1bzGrkSbbX8es-35" value="&lt;div style=&quot;font-size: 1px&quot;&gt;&lt;p style=&quot;align:center;margin-left:0;margin-right:0;margin-top:0px;margin-bottom:0px;text-indent:0;valign:middle;direction:ltr;&quot;&gt;&lt;font style=&quot;font-size:16.93px;font-family:Arial;color:#ffffff;direction:ltr;letter-spacing:0px;line-height:100%;opacity:1&quot;&gt;4&lt;/font&gt;&lt;/p&gt;&lt;/div&gt;" style="text;vsdxID=161;fillColor=none;gradientColor=none;strokeOpacity=0;strokeWidth=2;spacingTop=-3;spacingBottom=-3;spacingLeft=-3;spacingRight=-3;points=[[0,0.5,0],[1,0.5,0],[0.5,1,0],[0.5,0,0]];labelBackgroundColor=none;rounded=1;strokeColor=none;html=1;whiteSpace=wrap;verticalAlign=middle;align=center;;html=1;" parent="aldpSXv1bzGrkSbbX8es-33" vertex="1">
          <mxGeometry x="3.18" y="3.06" width="15.88" height="17.15" as="geometry" />
        </mxCell>
        <mxCell id="aldpSXv1bzGrkSbbX8es-36" value="&lt;font style=&quot;font-size: 16px;&quot;&gt;Client&lt;/font&gt;" style="image;sketch=0;aspect=fixed;html=1;points=[];align=center;fontSize=12;image=img/lib/mscae/VM_Windows_Non_Azure.svg;" parent="1" vertex="1">
          <mxGeometry x="380" y="390" width="81.52" height="75" as="geometry" />
        </mxCell>
        <mxCell id="aldpSXv1bzGrkSbbX8es-37" value="&lt;font style=&quot;font-size: 16px;&quot;&gt;w.x.y.z&lt;/font&gt;" style="text;html=1;strokeColor=none;fillColor=none;align=center;verticalAlign=middle;whiteSpace=wrap;rounded=0;" parent="1" vertex="1">
          <mxGeometry x="470" y="380" width="60" height="30" as="geometry" />
        </mxCell>
        <mxCell id="aldpSXv1bzGrkSbbX8es-38" style="edgeStyle=orthogonalEdgeStyle;rounded=0;orthogonalLoop=1;jettySize=auto;html=1;entryX=0.859;entryY=0.8;entryDx=0;entryDy=0;entryPerimeter=0;strokeColor=#ff8800;strokeWidth=2;exitX=-0.077;exitY=0.598;exitDx=0;exitDy=0;exitPerimeter=0;" parent="1" source="aldpSXv1bzGrkSbbX8es-5" edge="1">
          <mxGeometry relative="1" as="geometry">
            <Array as="points">
              <mxPoint x="410" y="589" />
            </Array>
            <mxPoint x="520" y="670" as="sourcePoint" />
            <mxPoint x="410" y="490" as="targetPoint" />
          </mxGeometry>
        </mxCell>
        <mxCell id="aldpSXv1bzGrkSbbX8es-39" style="edgeStyle=orthogonalEdgeStyle;rounded=0;orthogonalLoop=1;jettySize=auto;html=1;entryX=-0.031;entryY=0.367;entryDx=0;entryDy=0;entryPerimeter=0;exitX=0.972;exitY=0.753;exitDx=0;exitDy=0;exitPerimeter=0;strokeColor=#7a00cc;strokeWidth=2;" parent="1" target="aldpSXv1bzGrkSbbX8es-5" edge="1">
          <mxGeometry relative="1" as="geometry">
            <Array as="points">
              <mxPoint x="429" y="577" />
            </Array>
            <mxPoint x="429" y="490" as="sourcePoint" />
            <mxPoint x="530" y="663" as="targetPoint" />
          </mxGeometry>
        </mxCell>
        <mxCell id="aldpSXv1bzGrkSbbX8es-40" style="vsdxID=155;fillColor=none;gradientColor=none;strokeOpacity=0;strokeWidth=2;spacingTop=-3;spacingBottom=-3;spacingLeft=-3;spacingRight=-3;points=[[0,0.5,0],[1,0.5,0],[0.5,1,0],[0.5,0,0]];labelBackgroundColor=none;rounded=1;strokeColor=none;html=1;whiteSpace=wrap;" parent="1" vertex="1">
          <mxGeometry x="508" y="550" width="22" height="23" as="geometry" />
        </mxCell>
        <mxCell id="aldpSXv1bzGrkSbbX8es-41" style="vsdxID=156;fillColor=#3999c6;gradientColor=none;strokeOpacity=0;shape=stencil(hVPRkoIwDPyavnZCAhYebzz9Ab+AkXp0zhOmonL39RbS4VoHoU9hs9ssYRG0vdZlqwXCtbPNt36YqqsFfQpEc6m1NZ2rBO0EbU+N1V+2uV0qfm5Lx0QYEV2xJhnYCKU9HsyfZgwkJSrjBit/mvswsfcaAAkF938ZyhyCI7JnxfFmWZIEmrwIjtf7vlJSbRjqcYIy5Vk43eI5xEBayDz3HIo5oxH4mPGCKFMFwcHYy/8UPxZiF6FXihk0u45ZFxAPdaYwDTwlsYW3nmOLC3tZ20q47thijyvfEJdfgWZis7AoV49J5Qyb85mDPkXLFa/JdhD/FbR7Ag==);strokeWidth=2;spacingTop=-3;spacingBottom=-3;spacingLeft=-3;spacingRight=-3;points=[[0,0.5,0],[1,0.5,0],[0.5,1,0],[0.5,0,0]];labelBackgroundColor=none;rounded=1;html=1;whiteSpace=wrap;" parent="aldpSXv1bzGrkSbbX8es-40" vertex="1">
          <mxGeometry width="22" height="23" as="geometry" />
        </mxCell>
        <mxCell id="aldpSXv1bzGrkSbbX8es-42" value="&lt;div style=&quot;font-size: 1px&quot;&gt;&lt;p style=&quot;align:center;margin-left:0;margin-right:0;margin-top:0px;margin-bottom:0px;text-indent:0;valign:middle;direction:ltr;&quot;&gt;&lt;font style=&quot;font-size:16.93px;font-family:Arial;color:#ffffff;direction:ltr;letter-spacing:0px;line-height:100%;opacity:1&quot;&gt;1&lt;/font&gt;&lt;/p&gt;&lt;/div&gt;" style="text;vsdxID=155;fillColor=none;gradientColor=none;strokeOpacity=0;strokeWidth=2;spacingTop=-3;spacingBottom=-3;spacingLeft=-3;spacingRight=-3;points=[[0,0.5,0],[1,0.5,0],[0.5,1,0],[0.5,0,0]];labelBackgroundColor=none;rounded=1;strokeColor=none;html=1;whiteSpace=wrap;verticalAlign=middle;align=center;;html=1;arcSize=0;" parent="aldpSXv1bzGrkSbbX8es-40" vertex="1">
          <mxGeometry x="3.18" y="3.06" width="15.88" height="17.15" as="geometry" />
        </mxCell>
        <mxCell id="aldpSXv1bzGrkSbbX8es-43" style="vsdxID=163;fillColor=none;gradientColor=none;strokeOpacity=0;strokeWidth=2;spacingTop=-3;spacingBottom=-3;spacingLeft=-3;spacingRight=-3;points=[[0,0.5,0],[1,0.5,0],[0.5,1,0],[0.5,0,0]];labelBackgroundColor=none;rounded=1;strokeColor=none;html=1;whiteSpace=wrap;" parent="1" vertex="1">
          <mxGeometry x="490" y="600" width="22" height="23" as="geometry" />
        </mxCell>
        <mxCell id="aldpSXv1bzGrkSbbX8es-44" style="vsdxID=164;fillColor=#3999c6;gradientColor=none;strokeOpacity=0;shape=stencil(hVPRkoIwDPyavnZCAhYebzz9Ab+AkXp0zhOmonL39RbS4VoHoU9hs9ssYRG0vdZlqwXCtbPNt36YqqsFfQpEc6m1NZ2rBO0EbU+N1V+2uV0qfm5Lx0QYEV2xJhnYCKU9HsyfZgwkJSrjBit/mvswsfcaAAkF938ZyhyCI7JnxfFmWZIEmrwIjtf7vlJSbRjqcYIy5Vk43eI5xEBayDz3HIo5oxH4mPGCKFMFwcHYy/8UPxZiF6FXihk0u45ZFxAPdaYwDTwlsYW3nmOLC3tZ20q47thijyvfEJdfgWZis7AoV49J5Qyb85mDPkXLFa/JdhD/FbR7Ag==);strokeWidth=2;spacingTop=-3;spacingBottom=-3;spacingLeft=-3;spacingRight=-3;points=[[0,0.5,0],[1,0.5,0],[0.5,1,0],[0.5,0,0]];labelBackgroundColor=none;rounded=1;html=1;whiteSpace=wrap;" parent="aldpSXv1bzGrkSbbX8es-43" vertex="1">
          <mxGeometry width="22" height="23" as="geometry" />
        </mxCell>
        <mxCell id="aldpSXv1bzGrkSbbX8es-45" value="&lt;div style=&quot;&quot;&gt;&lt;p style=&quot;margin: 0px; text-indent: 0px; direction: ltr;&quot;&gt;&lt;font face=&quot;Arial&quot; color=&quot;#ffffff&quot;&gt;&lt;span style=&quot;font-size: 16.93px;&quot;&gt;6&lt;/span&gt;&lt;/font&gt;&lt;/p&gt;&lt;/div&gt;" style="text;vsdxID=163;fillColor=none;gradientColor=none;strokeOpacity=0;strokeWidth=2;spacingTop=-3;spacingBottom=-3;spacingLeft=-3;spacingRight=-3;points=[[0,0.5,0],[1,0.5,0],[0.5,1,0],[0.5,0,0]];labelBackgroundColor=none;rounded=1;strokeColor=none;html=1;whiteSpace=wrap;verticalAlign=middle;align=center;;html=1;" parent="aldpSXv1bzGrkSbbX8es-43" vertex="1">
          <mxGeometry x="3.18" y="3.06" width="15.88" height="17.15" as="geometry" />
        </mxCell>
        <mxCell id="aldpSXv1bzGrkSbbX8es-49" style="vsdxID=163;fillColor=none;gradientColor=none;strokeOpacity=0;strokeWidth=2;spacingTop=-3;spacingBottom=-3;spacingLeft=-3;spacingRight=-3;points=[[0,0.5,0],[1,0.5,0],[0.5,1,0],[0.5,0,0]];labelBackgroundColor=none;rounded=1;strokeColor=none;html=1;whiteSpace=wrap;" parent="1" vertex="1">
          <mxGeometry x="880" y="656" width="22" height="23" as="geometry" />
        </mxCell>
        <mxCell id="aldpSXv1bzGrkSbbX8es-50" style="vsdxID=164;fillColor=#3999c6;gradientColor=none;strokeOpacity=0;shape=stencil(hVPRkoIwDPyavnZCAhYebzz9Ab+AkXp0zhOmonL39RbS4VoHoU9hs9ssYRG0vdZlqwXCtbPNt36YqqsFfQpEc6m1NZ2rBO0EbU+N1V+2uV0qfm5Lx0QYEV2xJhnYCKU9HsyfZgwkJSrjBit/mvswsfcaAAkF938ZyhyCI7JnxfFmWZIEmrwIjtf7vlJSbRjqcYIy5Vk43eI5xEBayDz3HIo5oxH4mPGCKFMFwcHYy/8UPxZiF6FXihk0u45ZFxAPdaYwDTwlsYW3nmOLC3tZ20q47thijyvfEJdfgWZis7AoV49J5Qyb85mDPkXLFa/JdhD/FbR7Ag==);strokeWidth=2;spacingTop=-3;spacingBottom=-3;spacingLeft=-3;spacingRight=-3;points=[[0,0.5,0],[1,0.5,0],[0.5,1,0],[0.5,0,0]];labelBackgroundColor=none;rounded=1;html=1;whiteSpace=wrap;" parent="aldpSXv1bzGrkSbbX8es-49" vertex="1">
          <mxGeometry width="22" height="23" as="geometry" />
        </mxCell>
        <mxCell id="aldpSXv1bzGrkSbbX8es-51" value="&lt;div style=&quot;font-size: 1px&quot;&gt;&lt;p style=&quot;align:center;margin-left:0;margin-right:0;margin-top:0px;margin-bottom:0px;text-indent:0;valign:middle;direction:ltr;&quot;&gt;&lt;font style=&quot;font-size:16.93px;font-family:Arial;color:#ffffff;direction:ltr;letter-spacing:0px;line-height:100%;opacity:1&quot;&gt;5&lt;/font&gt;&lt;/p&gt;&lt;/div&gt;" style="text;vsdxID=163;fillColor=none;gradientColor=none;strokeOpacity=0;strokeWidth=2;spacingTop=-3;spacingBottom=-3;spacingLeft=-3;spacingRight=-3;points=[[0,0.5,0],[1,0.5,0],[0.5,1,0],[0.5,0,0]];labelBackgroundColor=none;rounded=1;strokeColor=none;html=1;whiteSpace=wrap;verticalAlign=middle;align=center;;html=1;" parent="aldpSXv1bzGrkSbbX8es-49" vertex="1">
          <mxGeometry x="3.18" y="3.06" width="15.88" height="17.15" as="geometry" />
        </mxCell>
        <mxCell id="aldpSXv1bzGrkSbbX8es-48" style="edgeStyle=orthogonalEdgeStyle;rounded=0;orthogonalLoop=1;jettySize=auto;html=1;entryX=0.954;entryY=0.637;entryDx=0;entryDy=0;entryPerimeter=0;strokeColor=#ff8800;strokeWidth=2;exitX=1.007;exitY=0.07;exitDx=0;exitDy=0;exitPerimeter=0;" parent="1" source="aldpSXv1bzGrkSbbX8es-24" target="aldpSXv1bzGrkSbbX8es-5" edge="1">
          <mxGeometry relative="1" as="geometry">
            <Array as="points">
              <mxPoint x="910" y="661" />
              <mxPoint x="910" y="591" />
            </Array>
            <mxPoint x="948" y="660" as="sourcePoint" />
            <mxPoint x="706" y="737" as="targetPoint" />
          </mxGeometry>
        </mxCell>
      </root>
    </mxGraphModel>
  </diagram>
</mxfile>
